<?xml version="1.0" encoding="UTF-8" standalone="no"?>
<!-- Created with Inkscape (http://www.inkscape.org/) -->

<svg
   xmlns:dc="http://purl.org/dc/elements/1.1/"
   xmlns:cc="http://creativecommons.org/ns#"
   xmlns:rdf="http://www.w3.org/1999/02/22-rdf-syntax-ns#"
   xmlns:svg="http://www.w3.org/2000/svg"
   xmlns="http://www.w3.org/2000/svg"
   xmlns:sodipodi="http://sodipodi.sourceforge.net/DTD/sodipodi-0.dtd"
   xmlns:inkscape="http://www.inkscape.org/namespaces/inkscape"
   width="360"
   height="180"
   id="svg3032"
   version="1.1"
   inkscape:version="0.48.2 r9819"
   sodipodi:docname="nodepdx-2012-sticker-1.svg"
   inkscape:export-filename="C:\repository\thoward\nodepdx.github.com\assets\nodepdx-tshirt\nodepdx-2012-sticker-1.png"
   inkscape:export-xdpi="90"
   inkscape:export-ydpi="90">
  <defs
     id="defs3034" />
  <sodipodi:namedview
     id="base"
     pagecolor="#000000"
     bordercolor="#666666"
     borderopacity="1.0"
     inkscape:pageopacity="1"
     inkscape:pageshadow="2"
     inkscape:zoom="1.979899"
     inkscape:cx="140.87955"
     inkscape:cy="90"
     inkscape:document-units="in"
     inkscape:current-layer="g3065"
     showgrid="false"
     units="in"
     inkscape:window-width="1198"
     inkscape:window-height="583"
     inkscape:window-x="50"
     inkscape:window-y="50"
     inkscape:window-maximized="0" />
  <metadata
     id="metadata3037">
    <rdf:RDF>
      <cc:Work
         rdf:about="">
        <dc:format>image/svg+xml</dc:format>
        <dc:type
           rdf:resource="http://purl.org/dc/dcmitype/StillImage" />
        <dc:title></dc:title>
      </cc:Work>
    </rdf:RDF>
  </metadata>
  <g
     inkscape:label="Layer 1"
     inkscape:groupmode="layer"
     id="layer1"
     transform="translate(0,-872.35975)">
    <g
       id="g3065"
       transform="matrix(0.81569494,0,0,0.81569494,48.650967,932.40961)">
      <g
         id="g3101"
         transform="matrix(1.5369636,0,0,1.5369636,-80.094833,-85.569159)">
        <g
           transform="matrix(0.8681967,0,0,0.8681967,17.690492,16.034035)"
           id="g3076">
          <path
             id="path3041"
             d="m 215.814,79.964 6.938,-7.108 h 19.631 v -13.2 l 22.507,13.2 v 38.754 l -6.77,6.938 H 215.813 V 79.964 z m 26.569,10.154 h -2.877 v 12.185 h 2.877 V 90.118 z"
             inkscape:connector-curvature="0"
             style="fill:#898989" />
          <path
             id="path3043"
             d="m 294.467,118.549 v -15.231 h -3.046 v 15.231 H 269.76 v -15.908 l 6.769,-6.938 -6.769,-6.769 V 72.856 h 21.661 V 89.78 h 3.046 V 72.856 h 21.662 v 16.077 l -6.77,6.769 6.77,6.938 v 15.908 h -21.662 z"
             inkscape:connector-curvature="0"
             style="fill:#898989" />
          <text
             id="text3045"
             font-size="20"
             transform="translate(185.959,140.0098)"
             style="font-size:20px;fill:#4986a1;font-family:seattlesans" />
          <path
             id="path3047"
             d="m 42.584,21.914 7.107,7.107 V 67.605 H 28.369 l 0,-32.492 -3.045,0 V 67.605 L 4,67.605 4,21.914 h 38.584 z"
             inkscape:connector-curvature="0"
             style="fill:#4886a1" />
          <path
             id="path3049"
             d="m 102.968,60.667 -6.599,6.939 -42.477,0 0,-38.753 6.77,-6.938 h 42.308 l -0.002,38.752 z m -25.892,-29.108 0,26.062 h 2.876 l 0,-26.061 -2.876,-10e-4 z"
             inkscape:connector-curvature="0"
             style="fill:#4886a1" />
          <path
             id="path3051"
             d="m 107.337,29.021 6.938,-7.108 h 19.63 v -13.2 l 22.508,13.2 v 38.753 l -6.769,6.939 H 107.336 V 29.021 z m 26.569,10.154 -2.877,0 0,12.185 h 2.876 l 0.001,-12.185 z"
             inkscape:connector-curvature="0"
             style="fill:#4886a1" />
          <path
             id="path3053"
             d="m 169.26,67.605 h 34.825 l 6.77,-6.938 V 44.251 l -23.016,9.308 0,7.107 -2.876,0 0,-8.631 25.893,-10.661 0,-19.461 -41.97,0 -7.107,6.939 0,31.271 7.481,7.482 z m 18.579,-38.753 v 12.692 h -2.877 V 28.852 h 2.877 z"
             inkscape:connector-curvature="0"
             style="fill:#4886a1" />
          <rect
             id="rect3055"
             height="10.187"
             width="10.537"
             transform="matrix(0.7071,0.7071,-0.7071,0.7071,96.4032,-92.2101)"
             y="65.176003"
             x="154.246"
             style="fill:#fee823" />
          <path
             id="path3057"
             d="m 210.929,79.284 -6.428,-6.428 h -35.854 l -6.769,6.938 v 38.754 l 22.508,13.2 v -13.2 h 19.8 l 6.77,-6.769 V 79.258 l -0.027,0.026 z m -23.497,22.003 h -3.046 V 89.103 h 3.046 v 12.184 z"
             inkscape:connector-curvature="0"
             style="fill:#898989" />
        </g>
        <g
           style="font-size:17.16327858px;font-style:normal;font-variant:normal;font-weight:normal;font-stretch:normal;line-height:125%;letter-spacing:0px;word-spacing:0px;fill:#4886a1;fill-opacity:1;stroke:none;font-family:Seattle Sans;-inkscape-font-specification:Seattle Sans"
           id="text3097">
          <path
             d="m 185.38028,136.52635 -4.90417,0 0,-1.20155 c 0.0164,-0.29402 0.0655,-0.5718 0.14719,-0.83334 l 3.53081,-8.75344 0,-1.4713 c 0,-0.34324 -0.11855,-0.63333 -0.35565,-0.87027 -0.2371,-0.23691 -0.52727,-0.35537 -0.87052,-0.35538 -0.34326,10e-6 -0.63334,0.11847 -0.87027,0.35538 -0.23692,0.23694 -0.35538,0.52703 -0.35538,0.87027 l 0,1.22617 -1.22618,0 0,-1.22617 c 0,-0.67008 0.24112,-1.24624 0.72335,-1.72848 0.48222,-0.48222 1.05838,-0.72333 1.72848,-0.72334 0.67043,1e-5 1.24677,0.24112 1.729,0.72334 0.48222,0.48224 0.72334,1.0584 0.72334,1.72848 l 0,1.37335 c -0.0164,0.27797 -0.0574,0.53951 -0.12309,0.78463 l -3.5549,8.87548 3.67799,0 z"
             id="path3116"
             inkscape:connector-curvature="0" />
          <path
             d="m 191.28016,134.07453 c -1e-5,0.67009 -0.24112,1.24625 -0.72334,1.72848 -0.48224,0.48223 -1.05857,0.72334 -1.72901,0.72334 -0.67009,0 -1.24625,-0.24111 -1.72848,-0.72334 -0.48222,-0.48223 -0.72334,-1.05839 -0.72334,-1.72848 l 0,-9.80781 c 0,-0.67008 0.24112,-1.24624 0.72334,-1.72848 0.48223,-0.48222 1.05839,-0.72333 1.72848,-0.72334 0.67044,1e-5 1.24677,0.24112 1.72901,0.72334 0.48222,0.48224 0.72333,1.0584 0.72334,1.72848 z m -1.22617,0 0,-9.80781 c -1e-5,-0.34324 -0.11856,-0.63333 -0.35565,-0.87027 -0.2371,-0.23691 -0.52728,-0.35537 -0.87053,-0.35538 -0.34325,10e-6 -0.63334,0.11847 -0.87026,0.35538 -0.23693,0.23694 -0.35539,0.52703 -0.35539,0.87027 l 0,9.80781 c 0,0.34325 0.11846,0.63334 0.35539,0.87026 0.23692,0.23693 0.52701,0.35539 0.87026,0.35539 0.34325,0 0.63343,-0.11846 0.87053,-0.35539 0.23709,-0.23692 0.35564,-0.52701 0.35565,-0.87026 z"
             id="path3118"
             inkscape:connector-curvature="0" />
          <path
             d="m 195.26719,136.52635 -1.22565,0 0,-12.99502 -0.78463,0.78462 -0.80924,-0.80924 1.69181,-1.69181 1.12771,0 z"
             id="path3120"
             inkscape:connector-curvature="0" />
          <path
             d="m 201.33677,136.52635 -4.90417,0 0,-1.20155 c 0.0164,-0.29402 0.0655,-0.5718 0.14718,-0.83334 l 3.53082,-8.75344 0,-1.4713 c -1e-5,-0.34324 -0.11856,-0.63333 -0.35565,-0.87027 -0.2371,-0.23691 -0.52728,-0.35537 -0.87053,-0.35538 -0.34325,10e-6 -0.63334,0.11847 -0.87026,0.35538 -0.23693,0.23694 -0.35539,0.52703 -0.35539,0.87027 l 0,1.22617 -1.22617,0 0,-1.22617 c 0,-0.67008 0.24111,-1.24624 0.72334,-1.72848 0.48223,-0.48222 1.05839,-0.72333 1.72848,-0.72334 0.67044,1e-5 1.24677,0.24112 1.72901,0.72334 0.48222,0.48224 0.72333,1.0584 0.72334,1.72848 l 0,1.37335 c -0.0164,0.27797 -0.0574,0.53951 -0.12309,0.78463 l -3.55491,8.87548 3.678,0 z"
             id="path3122"
             inkscape:connector-curvature="0" />
        </g>
      </g>
    </g>
  </g>
</svg>
