<?xml version="1.0" encoding="UTF-8" standalone="no"?>
<!-- Created with Inkscape (http://www.inkscape.org/) -->

<svg
   xmlns:dc="http://purl.org/dc/elements/1.1/"
   xmlns:cc="http://creativecommons.org/ns#"
   xmlns:rdf="http://www.w3.org/1999/02/22-rdf-syntax-ns#"
   xmlns:svg="http://www.w3.org/2000/svg"
   xmlns="http://www.w3.org/2000/svg"
   xmlns:sodipodi="http://sodipodi.sourceforge.net/DTD/sodipodi-0.dtd"
   xmlns:inkscape="http://www.inkscape.org/namespaces/inkscape"
   width="360"
   height="180"
   id="svg3032"
   version="1.1"
   inkscape:version="0.48.2 r9819"
   sodipodi:docname="nodepdx-2012-sticker-2.svg"
   inkscape:export-filename="C:\repository\thoward\nodepdx.github.com\assets\nodepdx-tshirt\nodepdx-2012-sticker-2.png"
   inkscape:export-xdpi="90"
   inkscape:export-ydpi="90">
  <defs
     id="defs3034" />
  <sodipodi:namedview
     id="base"
     pagecolor="#000000"
     bordercolor="#666666"
     borderopacity="1.0"
     inkscape:pageopacity="1"
     inkscape:pageshadow="2"
     inkscape:zoom="1.979899"
     inkscape:cx="166.70552"
     inkscape:cy="80.416308"
     inkscape:document-units="in"
     inkscape:current-layer="g3065"
     showgrid="false"
     units="in"
     inkscape:window-width="1198"
     inkscape:window-height="583"
     inkscape:window-x="50"
     inkscape:window-y="50"
     inkscape:window-maximized="0" />
  <metadata
     id="metadata3037">
    <rdf:RDF>
      <cc:Work
         rdf:about="">
        <dc:format>image/svg+xml</dc:format>
        <dc:type
           rdf:resource="http://purl.org/dc/dcmitype/StillImage" />
        <dc:title></dc:title>
      </cc:Work>
    </rdf:RDF>
  </metadata>
  <g
     inkscape:label="Layer 1"
     inkscape:groupmode="layer"
     id="layer1"
     transform="translate(0,-872.35975)">
    <g
       id="g3065"
       transform="matrix(0.81569494,0,0,0.81569494,48.650967,932.40961)">
      <g
         style="font-size:41.68225098px;font-style:normal;font-variant:normal;font-weight:normal;font-stretch:normal;line-height:125%;letter-spacing:0px;word-spacing:0px;fill:#ffffff;fill-opacity:1;stroke:none;font-family:'04b03';-inkscape-font-specification:'04b03'"
         id="text3179">
        <path
           d="m -22.960022,-32.194064 0,-15.546889 -10.420563,0 0,15.546889 z m 0,5.252259 -15.630844,0 0,-26.051407 15.630844,0 0,5.210282 5.210281,0 0,15.630844 -5.210281,0 z"
           style=""
           id="path3190" />
        <path
           d="m 3.0913849,-32.194064 0,-15.546889 -10.4205628,0 0,15.546889 z m -10.4205628,0.04198 -5.2102811,0 0,-15.630844 5.2102811,0 0,-5.210282 10.4205628,0 0,5.210282 5.2102814,0 0,15.630844 -5.2102814,0 0,5.210281 -10.4205628,0 z"
           style=""
           id="path3192" />
        <path
           d="m 49.983917,-37.362368 0,10.420563 5.210282,0 0,-26.051407 -5.210282,0 0,10.420563 -5.210281,0 0,5.210281 z m -10.420563,-5.210281 5.210282,0 0,-5.210281 -5.210282,0 0,-5.210282 -5.210281,0 0,26.051407 5.210281,0 z"
           style=""
           id="path3194" />
        <path
           d="m 76.035324,-32.194064 0,-15.546889 -10.420563,0 0,15.546889 z m -10.420563,0.04198 -5.210281,0 0,-15.630844 5.210281,0 0,-5.210282 10.420563,0 0,5.210282 5.210281,0 0,15.630844 -5.210281,0 0,5.210281 -10.420563,0 z"
           style=""
           id="path3196" />
        <path
           d="m 91.666168,-26.941805 5.210282,0 0,-20.841125 5.21028,0 0,-5.210282 -15.630843,0 0,5.210282 5.210281,0 z"
           style=""
           id="path3198" />
        <path
           d="m 143.76898,-32.194064 0,-15.546889 -10.42056,0 0,15.546889 z m 0,5.252259 -15.63084,0 0,-26.051407 15.63084,0 0,5.210282 5.21028,0 0,15.630844 -5.21028,0 z"
           style=""
           id="path3200" />
        <path
           d="m 164.61011,-47.78293 5.21028,0 0,-5.210282 -15.63085,0 0,5.210282 5.21029,0 0,15.630844 -5.21029,0 0,5.210281 15.63085,0 0,-5.210281 -5.21028,0 z"
           style=""
           id="path3202" />
        <path
           d="m 175.03067,-42.572649 5.21028,0 0,-5.210281 -5.21028,0 z m 5.21028,-10.420563 0,5.210282 15.63085,0 0,-5.210282 z m 10.42056,15.630844 0,-5.210281 -10.42056,0 0,5.210281 z m 5.21029,5.210282 0,-5.210282 -5.21029,0 0,5.210282 z m -20.84113,0 0,5.210281 15.63084,0 0,-5.210281 z"
           style=""
           id="path3204" />
        <path
           d="m 206.29236,-26.941805 5.21028,0 0,-20.841125 5.21028,0 0,-5.210282 -15.63084,0 0,5.210282 5.21028,0 z"
           style=""
           id="path3206" />
        <path
           d="m 237.55405,-32.152086 5.21028,0 0,-20.841126 -5.21028,0 z m -10.42057,-20.841126 -5.21028,0 0,20.841126 5.21028,0 z m 0,20.841126 0,5.210281 10.42057,0 0,-5.210281 z"
           style=""
           id="path3208" />
        <path
           d="m 268.81575,-26.941805 -5.21028,0 0,-5.210281 -10.42056,0 0,5.210281 -5.21029,0 0,-26.051407 15.63085,0 0,5.168304 -10.42056,0 0,10.420563 10.42056,0 0,-10.378585 5.21028,0 0,10.420562 -5.21028,0 0,5.210282 5.21028,0 z"
           style=""
           id="path3210" />
        <path
           d="m 279.2363,-42.614626 10.42056,0 0,-5.126327 -10.42056,0 z m 10.42056,5.294236 -10.42056,0 0,5.126326 10.42056,0 z m 5.21028,5.168304 -5.21028,0 0,5.210281 -15.63084,0 0,-26.051407 15.63084,0 0,5.210282 5.21028,0 0,5.210281 -5.21028,0 0,5.210281 5.21028,0 z"
           style=""
           id="path3212" />
        <path
           d="m -22.960022,14.740446 0,10.420563 5.210281,0 0,-26.05140703 -5.210281,0 0,10.42056273 -5.210281,0 0,5.2102813 z m -10.420563,-5.2102813 5.210282,0 0,-5.2102814 -5.210282,0 0,-5.21028133 -5.210281,0 0,26.05140703 5.210281,0 z"
           style=""
           id="path3214" />
        <path
           d="m 3.0913849,19.90875 0,-15.5468893 -10.4205628,0 0,15.5468893 z m -10.4205628,0.04198 -5.2102811,0 0,-15.6308437 5.2102811,0 0,-5.21028133 10.4205628,0 0,5.21028133 5.2102814,0 0,15.6308437 -5.2102814,0 0,5.210282 -10.4205628,0 z"
           style=""
           id="path3216" />
        <path
           d="m 29.142792,19.90875 0,-15.5468893 -10.420563,0 0,15.5468893 z m 0,5.252259 -15.630844,0 0,-26.05140703 15.630844,0 0,5.21028133 5.210281,0 0,15.6308437 -5.210281,0 z"
           style=""
           id="path3218" />
        <path
           d="m 49.983917,4.3198833 5.210282,0 0,-5.21028133 -15.630845,0 0,5.21028133 5.210282,0 0,15.6308437 -5.210282,0 0,5.210282 15.630845,0 0,-5.210282 -5.210282,0 z"
           style=""
           id="path3220" />
        <path
           d="m 76.035324,14.740446 0,10.420563 5.210281,0 0,-26.05140703 -5.210281,0 0,10.42056273 -5.210281,0 0,5.2102813 z m -10.420563,-5.2102813 5.210282,0 0,-5.2102814 -5.210282,0 0,-5.21028133 -5.210281,0 0,26.05140703 5.210281,0 z"
           style=""
           id="path3222" />
        <path
           d="m 107.29701,4.3198833 0,-5.21028133 -15.630842,0 0,5.21028133 z m -15.630842,0 -5.210281,0 0,15.6308437 5.210281,0 z m 15.630842,20.8411257 -15.630842,0 0,-5.210282 10.420562,0 0,-5.210281 -5.21028,0 0,-5.2102813 10.42056,0 z"
           style=""
           id="path3224" />
        <path
           d="m 143.76898,4.3198833 5.21028,0 0,-5.21028133 -15.63084,0 0,5.21028133 5.21028,0 0,15.6308437 -5.21028,0 0,5.210282 15.63084,0 0,-5.210282 -5.21028,0 z"
           style=""
           id="path3226" />
        <path
           d="m 169.82039,14.740446 0,10.420563 5.21028,0 0,-26.05140703 -5.21028,0 0,10.42056273 -5.21028,0 0,5.2102813 z m -10.42056,-5.2102813 5.21028,0 0,-5.2102814 -5.21028,0 0,-5.21028133 -5.21029,0 0,26.05140703 5.21029,0 z"
           style=""
           id="path3228" />
        <path
           d="m 216.71292,4.3198833 5.21028,0 0,10.4205627 -5.21028,0 0,5.210281 -10.42056,0 0,5.210282 -5.21028,0 0,-26.05140703 15.63084,0 z m -10.42056,10.3785857 10.42056,0 0,-10.3366083 -10.42056,0 z"
           style=""
           id="path3230" />
        <path
           d="m 247.97462,25.161009 -5.21028,0 0,-5.210282 -10.42056,0 0,5.210282 -5.21028,0 0,-26.05140703 15.63084,0 0,5.16830403 -10.42056,0 0,10.420563 10.42056,0 0,-10.3785857 5.21028,0 0,10.4205627 -5.21028,0 0,5.210281 5.21028,0 z"
           style=""
           id="path3232" />
        <path
           d="m 268.81573,19.90875 0,-15.5468893 -10.42056,0 0,15.5468893 z m -10.42056,0.04198 -5.21028,0 0,-15.6308437 5.21028,0 0,-5.21028133 10.42056,0 0,5.21028133 5.21029,0 0,15.6308437 -5.21029,0 0,5.210282 -10.42056,0 z"
           style=""
           id="path3234" />
        <path
           d="m 294.86713,4.3198833 0,-5.21028133 -10.42057,0 0,5.21028133 z m -10.42057,0 -5.21028,0 0,15.6308437 5.21028,0 z m 10.42057,20.8411257 0,-5.210282 -10.42057,0 0,5.210282 z"
           style=""
           id="path3236" />
        <path
           d="m 315.70825,25.161009 0,-5.210282 -10.42056,0 0,-5.210281 10.42056,0 0,-5.2102813 -10.42056,0 0,-5.2102814 10.42056,0 0,-5.21028133 -15.63084,0 0,26.05140703 z"
           style=""
           id="path3238" />
        <path
           d="m 320.91853,9.5301647 5.21028,0 0,-5.2102814 -5.21028,0 z m 5.21028,-10.42056273 0,5.21028133 15.63085,0 0,-5.21028133 z m 10.42057,15.63084403 0,-5.2102813 -10.42057,0 0,5.2102813 z m 5.21028,5.210281 0,-5.210281 -5.21028,0 0,5.210281 z m -20.84113,0 0,5.210282 15.63085,0 0,-5.210282 z"
           style=""
           id="path3240" />
        <path
           d="m 346.96996,9.5301647 5.21028,0 0,-5.2102814 -5.21028,0 z m 5.21028,-10.42056273 0,5.21028133 15.63084,0 0,-5.21028133 z m 10.42056,15.63084403 0,-5.2102813 -10.42056,0 0,5.2102813 z m 5.21028,5.210281 0,-5.210281 -5.21028,0 0,5.210281 z m -20.84112,0 0,5.210282 15.63084,0 0,-5.210282 z"
           style=""
           id="path3242" />
        <path
           d="m -38.590866,103.31523 0,5.21028 5.210281,0 0,-5.21028 z m 5.210281,5.21028 0,5.21028 5.210282,0 0,-5.21028 z m 0,15.63084 5.210282,0 0,-5.21028 -5.210282,0 z m 5.210282,-5.21028 5.210281,0 0,-5.21028 -5.210281,0 z m -10.420563,10.42057 5.210281,0 0,-5.21029 -5.210281,0 z"
           style=""
           id="path3244" />
        <path
           d="m 3.0913849,124.15635 0,5.21029 20.8411251,0 0,-5.21029 z"
           style=""
           id="path3246" />
      </g>
    </g>
  </g>
</svg>
