<?xml version="1.0" encoding="UTF-8" standalone="no"?>
<!-- Created with Inkscape (http://www.inkscape.org/) -->

<svg
   xmlns:dc="http://purl.org/dc/elements/1.1/"
   xmlns:cc="http://creativecommons.org/ns#"
   xmlns:rdf="http://www.w3.org/1999/02/22-rdf-syntax-ns#"
   xmlns:svg="http://www.w3.org/2000/svg"
   xmlns="http://www.w3.org/2000/svg"
   xmlns:sodipodi="http://sodipodi.sourceforge.net/DTD/sodipodi-0.dtd"
   xmlns:inkscape="http://www.inkscape.org/namespaces/inkscape"
   width="360"
   height="180"
   id="svg3032"
   version="1.1"
   inkscape:version="0.48.2 r9819"
   sodipodi:docname="New document 1">
  <defs
     id="defs3034" />
  <sodipodi:namedview
     id="base"
     pagecolor="#000000"
     bordercolor="#666666"
     borderopacity="1.0"
     inkscape:pageopacity="1"
     inkscape:pageshadow="2"
     inkscape:zoom="1.979899"
     inkscape:cx="140.87955"
     inkscape:cy="90"
     inkscape:document-units="in"
     inkscape:current-layer="g3065"
     showgrid="false"
     units="in"
     inkscape:window-width="1198"
     inkscape:window-height="583"
     inkscape:window-x="50"
     inkscape:window-y="50"
     inkscape:window-maximized="0" />
  <metadata
     id="metadata3037">
    <rdf:RDF>
      <cc:Work
         rdf:about="">
        <dc:format>image/svg+xml</dc:format>
        <dc:type
           rdf:resource="http://purl.org/dc/dcmitype/StillImage" />
        <dc:title></dc:title>
      </cc:Work>
    </rdf:RDF>
  </metadata>
  <g
     inkscape:label="Layer 1"
     inkscape:groupmode="layer"
     id="layer1"
     transform="translate(0,-872.35975)">
    <g
       id="g3065"
       transform="matrix(0.81569494,0,0,0.81569494,48.650967,932.40961)">
      <g
         style="font-size:36.77845383px;font-style:normal;font-variant:normal;font-weight:normal;font-stretch:normal;text-align:center;line-height:125%;letter-spacing:0px;word-spacing:0px;text-anchor:middle;fill:#ffffff;fill-opacity:1;stroke:none;font-family:'04b03';-inkscape-font-specification:'04b03'"
         id="text3087">
        <path
           d="m 22.185955,-40.607315 0,-13.717842 -9.194614,0 0,13.717842 z m 0,4.634346 -13.7919204,0 0,-22.986534 13.7919204,0 0,4.597307 4.597307,0 0,13.79192 -4.597307,0 z"
           style=""
           id="path3125" />
        <path
           d="m 45.172489,-40.607315 0,-13.717842 -9.194614,0 0,13.717842 z m -9.194614,0.03704 -4.597306,0 0,-13.79192 4.597306,0 0,-4.597307 9.194614,0 0,4.597307 4.597307,0 0,13.79192 -4.597307,0 0,4.597307 -9.194614,0 z"
           style=""
           id="path3127" />
        <path
           d="m 86.548252,-45.167583 0,9.194614 4.597307,0 0,-22.986534 -4.597307,0 0,9.194614 -4.597307,0 0,4.597306 z m -9.194614,-4.597306 4.597307,0 0,-4.597307 -4.597307,0 0,-4.597307 -4.597306,0 0,22.986534 4.597306,0 z"
           style=""
           id="path3129" />
        <path
           d="m 109.53479,-40.607315 0,-13.717842 -9.19462,0 0,13.717842 z m -9.19462,0.03704 -4.597304,0 0,-13.79192 4.597304,0 0,-4.597307 9.19462,0 0,4.597307 4.5973,0 0,13.79192 -4.5973,0 0,4.597307 -9.19462,0 z"
           style=""
           id="path3131" />
        <path
           d="m 123.32671,-35.972969 4.5973,0 0,-18.389227 4.59731,0 0,-4.597307 -13.79192,0 0,4.597307 4.59731,0 z"
           style=""
           id="path3133" />
        <path
           d="m 169.29977,-40.607315 0,-13.717842 -9.19461,0 0,13.717842 z m 0,4.634346 -13.79192,0 0,-22.986534 13.79192,0 0,4.597307 4.59731,0 0,13.79192 -4.59731,0 z"
           style=""
           id="path3135" />
        <path
           d="m 187.68901,-54.362196 4.5973,0 0,-4.597307 -13.79192,0 0,4.597307 4.59731,0 0,13.79192 -4.59731,0 0,4.597307 13.79192,0 0,-4.597307 -4.5973,0 z"
           style=""
           id="path3137" />
        <path
           d="m 196.88361,-49.764889 4.59731,0 0,-4.597307 -4.59731,0 z m 4.59731,-9.194614 0,4.597307 13.79192,0 0,-4.597307 z m 9.19461,13.79192 0,-4.597306 -9.19461,0 0,4.597306 z m 4.59731,4.597307 0,-4.597307 -4.59731,0 0,4.597307 z m -18.38923,0 0,4.597307 13.79192,0 0,-4.597307 z"
           style=""
           id="path3139" />
        <path
           d="m 224.46745,-35.972969 4.5973,0 0,-18.389227 4.59731,0 0,-4.597307 -13.79192,0 0,4.597307 4.59731,0 z"
           style=""
           id="path3141" />
        <path
           d="m 252.0513,-40.570276 4.5973,0 0,-18.389227 -4.5973,0 z m -9.19462,-18.389227 -4.5973,0 0,18.389227 4.5973,0 z m 0,18.389227 0,4.597307 9.19462,0 0,-4.597307 z"
           style=""
           id="path3143" />
        <path
           d="m 279.63513,-35.972969 -4.59731,0 0,-4.597307 -9.19461,0 0,4.597307 -4.59731,0 0,-22.986534 13.79192,0 0,4.560268 -9.19461,0 0,9.194614 9.19461,0 0,-9.157575 4.59731,0 0,9.194613 -4.59731,0 0,4.597307 4.59731,0 z"
           style=""
           id="path3145" />
        <path
           d="m 288.82975,-49.801928 9.19461,0 0,-4.523229 -9.19461,0 z m 9.19461,4.671384 -9.19461,0 0,4.523229 9.19461,0 z m 4.59731,4.560268 -4.59731,0 0,4.597307 -13.79192,0 0,-22.986534 13.79192,0 0,4.597307 4.59731,0 0,4.597307 -4.59731,0 0,4.597306 4.59731,0 z"
           style=""
           id="path3147" />
        <path
           d="m -9.9951923,0.80548477 0,9.19461323 4.5973067,0 0,-22.986533 -4.5973067,0 0,9.194613 -4.5973067,0 0,4.59730677 z m -9.1946137,-4.59730677 4.597307,0 0,-4.5973067 -4.597307,0 0,-4.5973063 -4.597306,0 0,22.986533 4.597306,0 z"
           style=""
           id="path3149" />
        <path
           d="m 12.991342,5.3657527 0,-13.7178425 -9.1946136,0 0,13.7178425 z m -9.1946136,0.037039 -4.59730676,0 0,-13.7919202 4.59730676,0 0,-4.5973063 9.1946136,0 0,4.5973063 4.597307,0 0,13.7919202 -4.597307,0 0,4.5973065 -9.1946136,0 z"
           style=""
           id="path3151" />
        <path
           d="m 35.977876,5.3657527 0,-13.7178425 -9.194614,0 0,13.7178425 z m 0,4.6343453 -13.79192,0 0,-22.986533 13.79192,0 0,4.5973063 4.597307,0 0,13.7919202 -4.597307,0 z"
           style=""
           id="path3153" />
        <path
           d="m 54.367103,-8.3891287 4.597307,0 0,-4.5973063 -13.79192,0 0,4.5973063 4.597307,0 0,13.7919202 -4.597307,0 0,4.5973065 13.79192,0 0,-4.5973065 -4.597307,0 z"
           style=""
           id="path3155" />
        <path
           d="m 77.353639,0.80548477 0,9.19461323 4.597307,0 0,-22.986533 -4.597307,0 0,9.194613 -4.597307,0 0,4.59730677 z m -9.194614,-4.59730677 4.597307,0 0,-4.5973067 -4.597307,0 0,-4.5973063 -4.597306,0 0,22.986533 4.597306,0 z"
           style=""
           id="path3157" />
        <path
           d="m 104.93748,-8.3891287 0,-4.5973063 -13.79192,0 0,4.5973063 z m -13.79192,0 -4.597307,0 0,13.7919202 4.597307,0 z m 13.79192,18.3892267 -13.79192,0 0,-4.5973065 9.19461,0 0,-4.59730673 -4.597304,0 0,-4.59730677 9.194614,0 z"
           style=""
           id="path3159" />
        <path
           d="m 137.11862,-8.3891287 4.59731,0 0,-4.5973063 -13.79192,0 0,4.5973063 4.5973,0 0,13.7919202 -4.5973,0 0,4.5973065 13.79192,0 0,-4.5973065 -4.59731,0 z"
           style=""
           id="path3161" />
        <path
           d="m 160.10516,0.80548477 0,9.19461323 4.59731,0 0,-22.986533 -4.59731,0 0,9.194613 -4.5973,0 0,4.59730677 z m -9.19461,-4.59730677 4.59731,0 0,-4.5973067 -4.59731,0 0,-4.5973063 -4.59731,0 0,22.986533 4.59731,0 z"
           style=""
           id="path3163" />
        <path
           d="m 201.48091,-8.3891287 4.59731,0 0,9.19461347 -4.59731,0 0,4.59730673 -9.19461,0 0,4.5973065 -4.59731,0 0,-22.986533 13.79192,0 z m -9.19461,9.15757462 9.19461,0 0,-9.12053572 -9.19461,0 z"
           style=""
           id="path3165" />
        <path
           d="m 229.06476,10.000098 -4.59731,0 0,-4.5973065 -9.19461,0 0,4.5973065 -4.59731,0 0,-22.986533 13.79192,0 0,4.5602675 -9.19461,0 0,9.19461342 9.19461,0 0,-9.15757462 4.59731,0 0,9.19461347 -4.59731,0 0,4.59730673 4.59731,0 z"
           style=""
           id="path3167" />
        <path
           d="m 247.454,5.3657527 0,-13.7178425 -9.19462,0 0,13.7178425 z m -9.19462,0.037039 -4.5973,0 0,-13.7919202 4.5973,0 0,-4.5973063 9.19462,0 0,4.5973063 4.5973,0 0,13.7919202 -4.5973,0 0,4.5973065 -9.19462,0 z"
           style=""
           id="path3169" />
        <path
           d="m 270.44054,-8.3891287 0,-4.5973063 -9.19462,0 0,4.5973063 z m -9.19462,0 -4.5973,0 0,13.7919202 4.5973,0 z m 9.19462,18.3892267 0,-4.5973065 -9.19462,0 0,4.5973065 z"
           style=""
           id="path3171" />
        <path
           d="m 288.82976,10.000098 0,-4.5973065 -9.19461,0 0,-4.59730673 9.19461,0 0,-4.59730677 -9.19461,0 0,-4.5973067 9.19461,0 0,-4.5973063 -13.79192,0 0,22.986533 z"
           style=""
           id="path3173" />
        <path
           d="m 293.42706,-3.791822 4.59731,0 0,-4.5973067 -4.59731,0 z m 4.59731,-9.194613 0,4.5973063 13.79192,0 0,-4.5973063 z m 9.19461,13.79191977 0,-4.59730677 -9.19461,0 0,4.59730677 z m 4.59731,4.59730673 0,-4.59730673 -4.59731,0 0,4.59730673 z m -18.38923,0 0,4.5973065 13.79192,0 0,-4.5973065 z"
           style=""
           id="path3175" />
        <path
           d="m 316.4136,-3.791822 4.59731,0 0,-4.5973067 -4.59731,0 z m 4.59731,-9.194613 0,4.5973063 13.79192,0 0,-4.5973063 z m 9.19461,13.79191977 0,-4.59730677 -9.19461,0 0,4.59730677 z m 4.59731,4.59730673 0,-4.59730673 -4.59731,0 0,4.59730673 z m -18.38923,0 0,4.5973065 13.79192,0 0,-4.5973065 z"
           style=""
           id="path3177" />
      </g>
      <g
         id="g3101">
        <g
           transform="matrix(0.8681967,0,0,0.8681967,17.690492,16.034035)"
           id="g3076">
          <path
             id="path3041"
             d="m 215.814,79.964 6.938,-7.108 h 19.631 v -13.2 l 22.507,13.2 v 38.754 l -6.77,6.938 H 215.813 V 79.964 z m 26.569,10.154 h -2.877 v 12.185 h 2.877 V 90.118 z"
             inkscape:connector-curvature="0"
             style="fill:#898989" />
          <path
             id="path3043"
             d="m 294.467,118.549 v -15.231 h -3.046 v 15.231 H 269.76 v -15.908 l 6.769,-6.938 -6.769,-6.769 V 72.856 h 21.661 V 89.78 h 3.046 V 72.856 h 21.662 v 16.077 l -6.77,6.769 6.77,6.938 v 15.908 h -21.662 z"
             inkscape:connector-curvature="0"
             style="fill:#898989" />
          <text
             id="text3045"
             font-size="20"
             transform="translate(185.959,140.0098)"
             style="font-size:20px;fill:#4986a1;font-family:seattlesans" />
          <path
             id="path3047"
             d="m 42.584,21.914 7.107,7.107 V 67.605 H 28.369 l 0,-32.492 -3.045,0 V 67.605 L 4,67.605 4,21.914 h 38.584 z"
             inkscape:connector-curvature="0"
             style="fill:#4886a1" />
          <path
             id="path3049"
             d="m 102.968,60.667 -6.599,6.939 -42.477,0 0,-38.753 6.77,-6.938 h 42.308 l -0.002,38.752 z m -25.892,-29.108 0,26.062 h 2.876 l 0,-26.061 -2.876,-10e-4 z"
             inkscape:connector-curvature="0"
             style="fill:#4886a1" />
          <path
             id="path3051"
             d="m 107.337,29.021 6.938,-7.108 h 19.63 v -13.2 l 22.508,13.2 v 38.753 l -6.769,6.939 H 107.336 V 29.021 z m 26.569,10.154 -2.877,0 0,12.185 h 2.876 l 0.001,-12.185 z"
             inkscape:connector-curvature="0"
             style="fill:#4886a1" />
          <path
             id="path3053"
             d="m 169.26,67.605 h 34.825 l 6.77,-6.938 V 44.251 l -23.016,9.308 0,7.107 -2.876,0 0,-8.631 25.893,-10.661 0,-19.461 -41.97,0 -7.107,6.939 0,31.271 7.481,7.482 z m 18.579,-38.753 v 12.692 h -2.877 V 28.852 h 2.877 z"
             inkscape:connector-curvature="0"
             style="fill:#4886a1" />
          <rect
             id="rect3055"
             height="10.187"
             width="10.537"
             transform="matrix(0.7071,0.7071,-0.7071,0.7071,96.4032,-92.2101)"
             y="65.176003"
             x="154.246"
             style="fill:#fee823" />
          <path
             id="path3057"
             d="m 210.929,79.284 -6.428,-6.428 h -35.854 l -6.769,6.938 v 38.754 l 22.508,13.2 v -13.2 h 19.8 l 6.77,-6.769 V 79.258 l -0.027,0.026 z m -23.497,22.003 h -3.046 V 89.103 h 3.046 v 12.184 z"
             inkscape:connector-curvature="0"
             style="fill:#898989" />
        </g>
        <g
           style="font-size:17.16327858px;font-style:normal;font-variant:normal;font-weight:normal;font-stretch:normal;line-height:125%;letter-spacing:0px;word-spacing:0px;fill:#4886a1;fill-opacity:1;stroke:none;font-family:Seattle Sans;-inkscape-font-specification:Seattle Sans"
           id="text3097">
          <path
             d="m 185.38028,136.52635 -4.90417,0 0,-1.20155 c 0.0164,-0.29402 0.0655,-0.5718 0.14719,-0.83334 l 3.53081,-8.75344 0,-1.4713 c 0,-0.34324 -0.11855,-0.63333 -0.35565,-0.87027 -0.2371,-0.23691 -0.52727,-0.35537 -0.87052,-0.35538 -0.34326,10e-6 -0.63334,0.11847 -0.87027,0.35538 -0.23692,0.23694 -0.35538,0.52703 -0.35538,0.87027 l 0,1.22617 -1.22618,0 0,-1.22617 c 0,-0.67008 0.24112,-1.24624 0.72335,-1.72848 0.48222,-0.48222 1.05838,-0.72333 1.72848,-0.72334 0.67043,1e-5 1.24677,0.24112 1.729,0.72334 0.48222,0.48224 0.72334,1.0584 0.72334,1.72848 l 0,1.37335 c -0.0164,0.27797 -0.0574,0.53951 -0.12309,0.78463 l -3.5549,8.87548 3.67799,0 z"
             style=""
             id="path3116" />
          <path
             d="m 191.28016,134.07453 c -1e-5,0.67009 -0.24112,1.24625 -0.72334,1.72848 -0.48224,0.48223 -1.05857,0.72334 -1.72901,0.72334 -0.67009,0 -1.24625,-0.24111 -1.72848,-0.72334 -0.48222,-0.48223 -0.72334,-1.05839 -0.72334,-1.72848 l 0,-9.80781 c 0,-0.67008 0.24112,-1.24624 0.72334,-1.72848 0.48223,-0.48222 1.05839,-0.72333 1.72848,-0.72334 0.67044,1e-5 1.24677,0.24112 1.72901,0.72334 0.48222,0.48224 0.72333,1.0584 0.72334,1.72848 z m -1.22617,0 0,-9.80781 c -1e-5,-0.34324 -0.11856,-0.63333 -0.35565,-0.87027 -0.2371,-0.23691 -0.52728,-0.35537 -0.87053,-0.35538 -0.34325,10e-6 -0.63334,0.11847 -0.87026,0.35538 -0.23693,0.23694 -0.35539,0.52703 -0.35539,0.87027 l 0,9.80781 c 0,0.34325 0.11846,0.63334 0.35539,0.87026 0.23692,0.23693 0.52701,0.35539 0.87026,0.35539 0.34325,0 0.63343,-0.11846 0.87053,-0.35539 0.23709,-0.23692 0.35564,-0.52701 0.35565,-0.87026 z"
             style=""
             id="path3118" />
          <path
             d="m 195.26719,136.52635 -1.22565,0 0,-12.99502 -0.78463,0.78462 -0.80924,-0.80924 1.69181,-1.69181 1.12771,0 z"
             style=""
             id="path3120" />
          <path
             d="m 201.33677,136.52635 -4.90417,0 0,-1.20155 c 0.0164,-0.29402 0.0655,-0.5718 0.14718,-0.83334 l 3.53082,-8.75344 0,-1.4713 c -1e-5,-0.34324 -0.11856,-0.63333 -0.35565,-0.87027 -0.2371,-0.23691 -0.52728,-0.35537 -0.87053,-0.35538 -0.34325,10e-6 -0.63334,0.11847 -0.87026,0.35538 -0.23693,0.23694 -0.35539,0.52703 -0.35539,0.87027 l 0,1.22617 -1.22617,0 0,-1.22617 c 0,-0.67008 0.24111,-1.24624 0.72334,-1.72848 0.48223,-0.48222 1.05839,-0.72333 1.72848,-0.72334 0.67044,1e-5 1.24677,0.24112 1.72901,0.72334 0.48222,0.48224 0.72333,1.0584 0.72334,1.72848 l 0,1.37335 c -0.0164,0.27797 -0.0574,0.53951 -0.12309,0.78463 l -3.55491,8.87548 3.678,0 z"
             style=""
             id="path3122" />
        </g>
      </g>
    </g>
  </g>
</svg>
