<?xml version="1.0" encoding="UTF-8" standalone="no"?>
<svg
   xmlns:dc="http://purl.org/dc/elements/1.1/"
   xmlns:cc="http://creativecommons.org/ns#"
   xmlns:rdf="http://www.w3.org/1999/02/22-rdf-syntax-ns#"
   xmlns:svg="http://www.w3.org/2000/svg"
   xmlns="http://www.w3.org/2000/svg"
   xmlns:sodipodi="http://sodipodi.sourceforge.net/DTD/sodipodi-0.dtd"
   xmlns:inkscape="http://www.inkscape.org/namespaces/inkscape"
   version="1.0"
   width="713.56799"
   height="166.22087"
   id="svg2"
   inkscape:version="0.48.4 r9939"
   sodipodi:docname="hoodie_badge.pdf">
  <metadata
     id="metadata42">
    <rdf:RDF>
      <cc:Work
         rdf:about="">
        <dc:format>image/svg+xml</dc:format>
        <dc:type
           rdf:resource="http://purl.org/dc/dcmitype/StillImage" />
        <dc:title></dc:title>
      </cc:Work>
    </rdf:RDF>
  </metadata>
  <defs
     id="defs40">
    <inkscape:perspective
       id="perspective3000"
       inkscape:persp3d-origin="150 : 91.666667 : 1"
       inkscape:vp_z="300 : 137.5 : 1"
       inkscape:vp_y="0 : 1000 : 0"
       inkscape:vp_x="0 : 137.5 : 1"
       sodipodi:type="inkscape:persp3d" />
  </defs>
  <sodipodi:namedview
     pagecolor="#ffffff"
     bordercolor="#666666"
     borderopacity="1"
     objecttolerance="10"
     gridtolerance="10"
     guidetolerance="10"
     inkscape:pageopacity="0"
     inkscape:pageshadow="2"
     inkscape:window-width="1328"
     inkscape:window-height="957"
     id="namedview38"
     showgrid="false"
     showborder="false"
     showguides="true"
     inkscape:guide-bbox="true"
     inkscape:zoom="0.70710678"
     inkscape:cx="503.44126"
     inkscape:cy="-66.075045"
     inkscape:window-x="590"
     inkscape:window-y="94"
     inkscape:window-maximized="0"
     inkscape:current-layer="text3184"
     fit-margin-top="0.25"
     fit-margin-left="0.25"
     fit-margin-right="0.25"
     fit-margin-bottom="0.25"
     units="in" />
  <g
     style="font-size:163.37043762px;font-style:normal;font-variant:normal;font-weight:normal;font-stretch:normal;line-height:125%;letter-spacing:0px;word-spacing:0px;fill:#000000;fill-opacity:1;stroke:none;font-family:Roke1984;-inkscape-font-specification:Roke1984"
     id="text3184">
    <path
       d="m 30.34178,81.31335 -3.267409,0 0,2.450557 3.267409,0 0,-2.450557 m 6.534818,0 -3.267409,0 0,2.450557 3.267409,0 0,-2.450557 m 16.337044,2.450557 3.267408,0 0,-2.450557 -3.267408,0 0,2.450557 m -3.267409,-2.450557 -3.267409,0 0,2.450557 3.267409,0 0,-2.450557 m 9.802226,2.450557 3.267409,0 0,-2.450557 -3.267409,0 0,2.450557 m -16.337044,-2.450557 -3.267408,0 0,2.450557 3.267408,0 0,-2.450557 m 29.406679,2.450557 3.267409,0 0,-2.450557 -3.267409,0 0,2.450557 m 22.871861,-2.450557 -3.267408,0 0,2.450557 3.267408,0 0,-2.450557 m -29.406678,2.450557 3.267408,0 0,-2.450557 -3.267408,0 0,2.450557 m 35.941493,-2.450557 -3.267406,0 0,2.450557 3.267406,0 0,-2.450557 m -13.069632,0 -3.267409,0 0,2.450557 3.267409,0 0,-2.450557 m -6.534818,0 -3.267408,0 0,2.450557 3.267408,0 0,-2.450557 m -6.861558,-57.179653 0,19.767823 -19.767823,-19.767823 -33.49094,0 0,116.809863 34.144422,0 0,-19.76782 19.767823,19.76782 33.490936,0 0,-116.809863 -34.144418,0 m 31.693868,57.179653 -1.96045,0 0,2.450557 1.96045,0 0,54.729093 -29.896793,0 -23.361973,-23.36197 0,23.36197 -29.243308,0 0,-111.908746 30.06016,0 23.198602,23.198602 0,-23.198602 29.243312,0 0,54.729096 m -80.051518,53.91224 24.342196,0 0,-1.6337 -24.342196,0 0,1.6337 m 7.678411,-17.15389 c 1.797073,0 3.267409,1.14359 3.75752,2.94067 0.653481,1.79707 -2e-6,3.75752 -1.633704,4.90111 -2.123814,1.30696 -3.594151,1.14359 -4.737743,2.61393 l 6.044706,0 0,1.79707 -8.331892,0 c 0,-1.14359 0.163371,-2.45056 1.306963,-3.43078 1.470333,-1.30696 2.7773,-1.30696 4.737743,-2.61392 1.960443,-1.1436 0.98022,-4.24764 -1.143593,-4.24764 -1.633703,0 -2.777298,0.98023 -2.940668,2.45056 l -1.797075,-0.32674 c 0.490111,-2.12381 1.633708,-3.92089 4.737743,-4.08426 m 9.802226,8.16852 2.777298,4.08426 -2.123816,0 -1.633704,-2.45055 -1.470334,2.45055 -2.287186,0 2.940667,-4.08426 -2.940667,-4.08426 2.287186,0 1.470334,2.45056 1.470334,-2.45056 2.287186,0 -2.777298,4.08426"
       style=""
       id="path3208" />
    <path
       d="m 179.4122,41.614334 -2.45056,0 0,3.267409 2.45056,0 0,-3.267409 m 0,-6.534817 -2.45056,0 0,3.267408 2.45056,0 0,-3.267408 m 0,13.069635 -2.45056,0 0,3.267408 2.45056,0 0,-3.267408 m 0,-19.604453 -2.45056,0 0,3.267409 2.45056,0 0,-3.267409 m -1.30696,-4.574372 c -33.0008,0 -59.95695,26.792785 -59.95695,59.79358 0,33.164163 26.95615,59.956953 59.95695,59.956953 33.16416,0 59.95695,-26.79279 59.95695,-59.956953 0,-33.000795 -26.79279,-59.79358 -59.95695,-59.79358 m 40.67924,100.472823 c -10.4557,10.45569 -24.83233,16.82715 -40.67924,16.82715 -15.84692,0 -30.22355,-6.37146 -40.67924,-16.82715 -10.29233,-10.29233 -16.82716,-24.668956 -16.82716,-40.679243 0,-15.846917 6.53483,-30.223541 16.82716,-40.515869 10.45569,-10.455697 24.83232,-16.827155 40.67924,-16.827155 15.84691,0 30.22354,6.371458 40.67924,16.827155 10.29232,10.128957 16.66378,24.178841 16.82715,39.699017 l -54.40236,0 c -0.32674,-0.816852 -0.98022,-1.470334 -1.79707,-1.797075 l 0,-0.326741 -2.45056,0 0,0.653482 c -0.65348,0.490111 -1.14359,1.306964 -1.14359,2.287186 0,1.470332 1.14359,2.777297 2.7773,2.777297 1.14359,0 2.12381,-0.816853 2.45055,-1.960445 l 54.56573,0 c -0.16337,15.683551 -6.53483,29.733431 -16.82715,39.862391 m -39.37228,-50.154728 -2.45056,0 0,3.267408 2.45056,0 0,-3.267408 m 0,-6.534818 -2.45056,0 0,3.267409 2.45056,0 0,-3.267409 m 0,-6.534817 -2.45056,0 0,3.267408 2.45056,0 0,-3.267408 m 0,-6.534818 -2.45056,0 0,3.267409 2.45056,0 0,-3.267409 m 1.96045,32.674088 2.12381,0 -3.75752,5.881335 3.92089,5.881336 -2.12381,0 -2.7773,-4.247631 -2.94067,4.247631 -2.12382,0 3.92089,-5.881336 -3.75752,-5.881335 2.12382,0 2.7773,4.084261 2.61393,-4.084261 m 6.37144,3.75752 c -0.49011,0.32674 -1.47033,0.653482 -1.96044,1.143593 l 2.94066,0 0,1.306963 -4.73774,0 c 0,-0.816851 0,-1.470334 0.65348,-2.123815 0.65348,-0.490111 1.63371,-0.653483 2.61393,-1.306964 0.65348,-0.490111 0.32674,-1.797075 -0.65348,-1.797075 -0.49011,0 -1.14359,0.326742 -1.30696,1.306964 l -1.30697,-0.163371 c 0.16337,-1.306962 1.1436,-2.450556 2.61393,-2.450556 2.28718,0 3.10404,2.777299 1.14359,4.084261"
       style=""
       id="path3210" />
    <path
       d="m 251.07821,136.69593 16.17367,0 0,-1.63371 -16.17367,0 0,1.63371 m 19.93119,-114.195937 -24.83231,0 0,119.913897 23.36198,0 c 0,0 0.16337,0 1.47033,0 32.51068,-0.81685 58.48662,-27.44626 58.48662,-59.956946 0,-32.674055 -25.97594,-59.1401 -58.48662,-59.956951 m -1.14359,117.463347 -0.16337,0 -21.07479,0 0,-115.012791 20.91142,0 0.32674,0 c 0.16337,0 0.32674,0 0.49011,0 l 0,1.633705 2.45055,0 0,-1.470334 c 30.2235,1.633703 54.23899,26.629412 54.23899,57.343024 0,31.693836 -25.64919,57.343026 -57.17965,57.506396 m 7.51504,-21.07479 0.32674,2.45056 c 1.14359,-0.16337 2.28718,-0.32674 3.26741,-0.65348 l -0.65349,-2.45056 c -0.98022,0.32674 -1.96044,0.49011 -2.94066,0.65348 m 3.10403,-74.823659 c -1.14359,-0.326741 -2.12381,-0.490112 -3.2674,-0.653482 l -0.49012,2.450556 c 1.1436,0.163371 2.12382,0.326742 3.10404,0.490112 l 0.65348,-2.287186 m 6.37145,2.123815 c -0.98022,-0.49011 -2.12381,-0.816852 -3.10404,-1.143593 l -0.81685,2.287186 c 0.98022,0.326741 1.96045,0.653483 2.94067,1.143593 l 0.98022,-2.287186 m -15.84693,73.353324 0,1.79708 -0.65348,0 0,3.26741 2.45055,0 0,-2.7773 c 0.49011,0 1.1436,0 1.63371,0 l -0.32674,-2.45056 c -0.98022,0 -1.96045,0.16337 -3.10404,0.16337 m 35.45138,-48.194276 2.28719,-0.816852 c -0.32674,-1.143592 -0.81685,-2.123817 -1.14359,-3.104039 l -2.28719,0.816852 c 0.32674,0.980222 0.81685,1.960447 1.14359,3.104039 m -2.45055,-5.881336 2.12381,-1.143593 c -0.49011,-0.980222 -0.98022,-1.960446 -1.6337,-2.940668 l -2.12382,1.306964 c 0.65348,0.816851 1.1436,1.797075 1.63371,2.777297 m -20.58468,51.951802 0.81685,2.28718 c 1.1436,-0.32674 2.12382,-0.81685 3.10404,-1.30696 l -0.98022,-2.28719 c -0.98022,0.49011 -1.96045,0.98023 -2.94067,1.30697 m 24.3422,-40.02576 2.45055,-0.326741 c -0.16337,-1.143592 -0.32674,-2.123817 -0.65348,-3.267409 l -2.28718,0.490112 c 0.16337,0.980221 0.32674,2.123816 0.49011,3.104038 m -5.06449,24.3422 2.12382,1.30696 0,0 c 0.49011,-0.98022 1.14359,-1.96045 1.6337,-2.94067 l -2.28718,-1.143592 c -0.49011,0.980221 -0.98023,1.797072 -1.47034,2.777302 m 2.7773,-5.71797 2.28719,0.980222 c 0.49011,-1.143591 0.81685,-2.123816 1.14359,-3.267408 l -2.45056,-0.653482 c -0.16337,0.980222 -0.65348,1.960446 -0.98022,2.940668 m -6.53482,10.78245 1.79708,1.6337 c 0.81685,-0.81685 1.47033,-1.79707 2.12381,-2.61392 l -1.96044,-1.47034 c -0.65348,0.81685 -1.30696,1.63371 -1.96045,2.45056 m -6.20807,-57.343025 c -0.81685,-0.653481 -1.79708,-1.143594 -2.7773,-1.797075 l -1.30696,2.123816 c 0.98022,0.490111 1.96044,1.143594 2.77729,1.633704 l 1.30697,-1.960445 m 17.80738,31.040383 -2.45056,0.163371 c 0,0.490111 0,1.143593 0,1.797075 0,0.49011 0,0.816852 0,1.306963 l 2.45056,0 c 0,-0.326741 0,-0.816853 0,-1.306963 0,-0.653482 0,-1.306965 0,-1.960446 m -3.26741,9.475486 2.45055,0.490111 c 0.16337,-0.980222 0.32674,-2.123817 0.49011,-3.267409 l -2.45055,-0.326741 c 0,1.143592 -0.16337,2.123817 -0.49011,3.104039 M 302.53989,58.60486 c -0.65348,-0.816852 -1.30696,-1.797076 -2.12381,-2.613927 l -1.79708,1.633704 c 0.65348,0.816851 1.30697,1.633705 1.96045,2.450557 l 1.96044,-1.470334 m -4.411,-5.064484 c -0.81685,-0.653481 -1.79707,-1.470335 -2.61393,-2.123816 l -1.47033,1.960446 c 0.81685,0.653481 1.63371,1.306964 2.28719,1.960445 l 1.79707,-1.797075 m -8.98537,61.263914 1.30696,2.12382 c 0.98022,-0.65349 1.79708,-1.1436 2.7773,-1.79708 l -1.30696,-2.12381 c -0.98023,0.65348 -1.79708,1.30696 -2.7773,1.79707 m 5.22785,-3.59415 1.63371,1.96045 0,0 c 0.81685,-0.81686 1.6337,-1.47034 2.45055,-2.28719 l -1.6337,-1.79708 c -0.81685,0.81686 -1.63371,1.47034 -2.45056,2.12382 m -21.5649,-61.754025 -2.45055,0 0,3.267409 2.45055,0 0,-3.267409 m 0,-4.084261 c 0.32674,0 0.65349,0 0.81686,0 l 0.16337,-2.450556 c -0.81685,0 -1.79708,0 -3.43078,0 l 0,3.267408 2.45055,0 0,-0.816852 m 0,-15.520191 -2.45055,0 0,3.267408 2.45055,0 0,-3.267408 m 0,26.13927 -2.45055,0 0,3.267408 2.45055,0 0,-3.267408 m 0,-19.604453 -2.45055,0 0,3.267409 2.45055,0 0,-3.267409 m 0,78.41781 -2.45055,0 0,3.26741 2.45055,0 0,-3.26741 m 0,-6.53482 -2.45055,0 0,3.26741 2.45055,0 0,-3.26741 m 0,-6.53481 -2.45055,0 0,3.2674 2.45055,0 0,-3.2674 m 0,-39.20891 -2.45055,0 0,3.267409 2.45055,0 0,-3.267409 m -2.45055,68.61558 2.45055,0 0,-3.2674 -2.45055,0 0,3.2674 m 0,6.53482 2.45055,0 0,-3.26741 -2.45055,0 0,3.26741 m 2.45055,-42.476312 -2.45055,0 0,3.267408 2.45055,0 0,-3.267408 m 0,-19.604453 -2.45055,0 0,3.267409 2.45055,0 0,-3.267409 m 0,-6.534817 -2.45055,0 0,3.267408 2.45055,0 0,-3.267408 m 0,19.604452 -2.45055,0 0,3.267409 2.45055,0 0,-3.267409 m 0,-6.534817 -2.45055,0 0,3.267408 2.45055,0 0,-3.267408 m -12.41615,45.580347 2.7773,4.08427 -2.12382,0 -1.6337,-2.45056 -1.47034,2.45056 -2.28718,0 2.94067,-4.08427 -2.94067,-4.08426 2.28718,0 1.47034,2.45056 1.47033,-2.45056 2.28719,0 -2.7773,4.08426"
       style=""
       id="path3212" />
    <path
       d="m 412.57757,50.599708 0.32674,-0.16337 0,-26.302641 -75.1504,0 0,116.809863 75.1504,0 0,-28.09972 -0.32674,-0.65348 c -5.55459,0 -10.29234,-4.57437 -10.29234,-10.29233 0,-5.717964 4.73775,-10.292342 10.29234,-10.292342 l 0,-20.421305 c -5.55459,0 -10.29234,-4.574378 -10.29234,-10.292337 0,-5.71796 4.73775,-10.292338 10.29234,-10.292338 m -12.57953,9.148745 -2.12381,0 0,2.450556 2.12381,0 c 0.49011,5.55459 4.73775,10.128968 10.12897,11.10919 l 0,16.173673 c -5.55459,1.143592 -9.9656,5.881342 -10.12897,11.926038 l -2.12381,0 0,2.45056 2.12381,0 c 0.81685,5.39122 5.06449,9.63886 10.45571,10.61908 l 0,24.01545 -54.40236,0 0,-3.26741 -2.45055,0 0,3.26741 -13.39638,0 0,-111.908746 13.39638,0 0,0.816852 2.45055,0 0,-0.816852 54.40236,0 0,21.728268 c -5.55459,0.980222 -9.9656,5.554601 -10.45571,11.435931 m -24.99567,0 -3.26741,0 0,2.450556 3.26741,0 0,-2.450556 m 9.80222,2.450556 3.26741,0 0,-2.450556 -3.26741,0 0,2.450556 m -6.53482,0 3.26741,0 0,-2.450556 -3.26741,0 0,2.450556 m -9.80222,-2.450556 -3.26741,0 0,2.450556 3.26741,0 0,-2.450556 m -6.53482,0 -3.26741,0 0,2.450556 3.26741,0 0,-2.450556 m 32.67409,0 -3.26741,0 0,2.450556 3.26741,0 0,-2.450556 m -29.40668,44.110017 3.26741,0 0,-2.45056 -3.26741,0 0,2.45056 m 13.06963,0 3.26741,0 0,-2.45056 -3.26741,0 0,2.45056 m 6.53482,0 3.26741,0 0,-2.45056 -3.26741,0 0,2.45056 m 6.53482,0 3.26741,0 0,-2.45056 -3.26741,0 0,2.45056 m -32.67409,0 3.26741,0 0,-2.45056 -3.26741,0 0,2.45056 m 13.06964,0 3.26741,0 0,-2.45056 -3.26741,0 0,2.45056 m -18.13412,-4.574371 2.45055,0 0,-3.267409 -2.45055,0 0,3.267409 m 0,6.534821 2.45055,0 0,-3.26741 -2.45055,0 0,3.26741 m 0,-13.069639 2.45055,0 0,-3.267409 -2.45055,0 0,3.267409 m 0,32.674089 2.45055,0 0,-3.26741 -2.45055,0 0,3.26741 m 0,6.53482 2.45055,0 0,-3.26741 -2.45055,0 0,3.26741 m 0,-45.743726 2.45055,0 0,-3.267409 -2.45055,0 0,3.267409 m 0,26.139266 2.45055,0 0,-3.26741 -2.45055,0 0,3.26741 m 0,6.53482 2.45055,0 0,-3.26741 -2.45055,0 0,3.26741 m 0,-65.348174 2.45055,0 0,-3.267409 -2.45055,0 0,3.267409 m 0,-13.069635 2.45055,0 0,-3.267409 -2.45055,0 0,3.267409 m 0,6.534818 2.45055,0 0,-3.267409 -2.45055,0 0,3.267409 m 0,-13.069635 2.45055,0 0,-3.267409 -2.45055,0 0,3.267409 m 0,32.674087 2.45055,0 0,-3.267409 -2.45055,0 0,3.267409 m 0,6.534818 2.45055,0 0,-3.267409 -2.45055,0 0,3.267409 m 0,-13.069635 2.45055,0 0,-3.267409 -2.45055,0 0,3.267409 m 0,19.604452 2.45055,0 0,-3.267409 -2.45055,0 0,3.267409 m 9.47548,-35.614755 c 2.12382,0 4.08426,1.797077 4.08426,4.084261 l 0,4.247631 c 0.16337,2.287184 -1.96044,4.247631 -4.08426,4.247631 -2.28718,0 -4.24763,-1.960447 -4.24763,-4.247631 l 1.96045,0 c 0,1.306962 0.98022,2.287186 2.28718,2.287186 1.30697,0 2.28719,-0.980224 2.28719,-2.287186 l 0,-0.653482 c -0.65348,0.326741 -1.47034,0.653482 -2.28719,0.653482 -2.28718,0 -4.24763,-1.960447 -4.24763,-4.084261 0,-2.287184 1.79708,-4.084261 4.24763,-4.247631 m 0,6.534817 c 1.30697,0 2.28719,-1.143594 2.28719,-2.287186 0,-1.306962 -0.98022,-2.450557 -2.28719,-2.450557 -1.30696,0 -2.28718,1.143595 -2.28718,2.450557 0,1.143592 0.98022,2.287186 2.28718,2.287186 m 10.61908,-6.534817 c 3.26741,0 5.71797,3.104041 5.71797,6.208076 0,3.267406 -2.28719,6.208077 -5.71797,6.208077 -3.2674,0 -5.55459,-2.940671 -5.55459,-6.208077 0,-3.104035 2.28719,-6.044706 5.55459,-6.208076 m 3.92089,6.208076 c 0,-2.287184 -1.79707,-4.247631 -3.92089,-4.247631 -2.12381,0 -3.75752,1.960447 -3.75752,4.247631 0,2.450554 1.63371,4.411002 3.75752,4.411002 2.12382,0 3.92089,-1.960448 3.92089,-4.411002 m 5.06449,-6.044706 c 1.47033,0 2.77729,1.470336 2.77729,3.104038 0,1.633703 -1.14359,3.267409 -2.77729,3.267409 -1.79708,0 -2.94067,-1.633706 -2.94067,-3.267409 0,-1.470332 1.14359,-3.104038 2.94067,-3.104038 m 1.6337,3.104038 c 0,-0.980221 -0.81685,-1.960445 -1.6337,-1.960445 -0.98023,0 -1.79708,0.980224 -1.79708,1.960445 0,1.143592 0.81685,1.960446 1.79708,1.960446 0.81685,0 1.6337,-0.816854 1.6337,-1.960446 m -21.23816,38.392053 c 2.12382,0 4.08426,1.797077 4.08426,4.084261 l 0,4.247632 c 0.16337,2.287183 -1.96044,4.247631 -4.08426,4.247631 -2.28718,0 -4.24763,-1.960448 -4.24763,-4.247631 l 1.96045,0 c 0,1.306962 0.98022,2.287186 2.28718,2.287186 1.30697,0 2.28719,-0.980224 2.28719,-2.287186 l 0,-0.653482 c -0.65348,0.32674 -1.47034,0.653482 -2.28719,0.653482 -2.28718,0 -4.24763,-1.960448 -4.24763,-4.084261 0,-2.287184 1.79708,-4.084261 4.24763,-4.247632 m 0,6.534818 c 1.30697,0 2.28719,-1.143594 2.28719,-2.287186 0,-1.306963 -0.98022,-2.450557 -2.28719,-2.450557 -1.30696,0 -2.28718,1.143594 -2.28718,2.450557 0,1.143592 0.98022,2.287186 2.28718,2.287186 m 10.61908,-6.534818 c 3.26741,0 5.71797,3.104042 5.71797,6.208077 0,3.267405 -2.28719,6.208077 -5.71797,6.208077 -3.2674,0 -5.55459,-2.940672 -5.55459,-6.208077 0,-3.104035 2.28719,-6.044706 5.55459,-6.208077 m 3.92089,6.208077 c 0,-2.287184 -1.79707,-4.247631 -3.92089,-4.247631 -2.12381,0 -3.75752,1.960447 -3.75752,4.247631 0,2.450554 1.63371,4.411002 3.75752,4.411002 2.12382,0 3.92089,-1.960448 3.92089,-4.411002 m 5.06449,-6.044706 c 1.47033,0 2.77729,1.470335 2.77729,3.104038 0,1.633703 -1.14359,3.267409 -2.77729,3.267409 -1.79708,0 -2.94067,-1.633706 -2.94067,-3.267409 0,-1.470332 1.14359,-3.104038 2.94067,-3.104038 m 1.6337,3.104038 c 0,-0.980222 -0.81685,-1.960445 -1.6337,-1.960445 -0.98023,0 -1.79708,0.980223 -1.79708,1.960445 0,1.143592 0.81685,1.960445 1.79708,1.960445 0.81685,0 1.6337,-0.816853 1.6337,-1.960445"
       style=""
       id="path3214" />
    <path
       d="m 433.71616,87.848168 -10.12897,0 0,10.945819 10.12897,0 0,-10.945819 m -10.12897,51.788432 41.33272,0 0,-38.39206 -41.33272,0 0,38.39206 m 78.25444,-77.437591 c 0,-20.421284 -16.50044,-36.921719 -36.92172,-36.921719 0,0 0,0 0,0 l 0,0 -41.33272,0 0,60.937174 11.76267,0 0,12.579523 33.49094,0 c 18.62421,-1.960443 33.00083,-17.644026 33.00083,-36.594978 m -60.28369,14.86671 c 2.12381,0 4.08426,1.797077 4.08426,4.084261 l 0,4.247631 c 0.16337,2.287184 -1.96045,4.247632 -4.08426,4.247632 -2.28719,0 -4.24764,-1.960448 -4.24764,-4.247632 l 1.96045,0 c 0,1.306963 0.98022,2.287187 2.28719,2.287187 1.30696,0 2.28718,-0.980224 2.28718,-2.287187 l 0,-0.653481 c -0.65348,0.32674 -1.47033,0.653481 -2.28718,0.653481 -2.28719,0 -4.24764,-1.960447 -4.24764,-4.084261 0,-2.287183 1.79708,-4.084261 4.24764,-4.247631 m 0,6.534818 c 1.30696,0 2.28718,-1.143595 2.28718,-2.287187 0,-1.306962 -0.98022,-2.450556 -2.28718,-2.450556 -1.30697,0 -2.28719,1.143594 -2.28719,2.450556 0,1.143592 0.98022,2.287187 2.28719,2.287187 m 10.61907,-6.534818 c 3.26741,0 5.71797,3.104041 5.71797,6.208077 0,3.267405 -2.28719,6.208076 -5.71797,6.208076 -3.2674,0 -5.55459,-2.940671 -5.55459,-6.208076 0,-3.104036 2.28719,-6.044707 5.55459,-6.208077 m 3.9209,6.208077 c 0,-2.287184 -1.79708,-4.247632 -3.9209,-4.247632 -2.12381,0 -3.75752,1.960448 -3.75752,4.247632 0,2.450554 1.63371,4.411002 3.75752,4.411002 2.12382,0 3.9209,-1.960448 3.9209,-4.411002 m 5.06448,-6.044706 c 1.47033,0 2.7773,1.470335 2.7773,3.104038 0,1.633703 -1.1436,3.267409 -2.7773,3.267409 -1.79707,0 -2.94067,-1.633706 -2.94067,-3.267409 0,-1.470333 1.1436,-3.104038 2.94067,-3.104038 m 1.6337,3.104038 c 0,-0.980222 -0.81685,-1.960445 -1.6337,-1.960445 -0.98022,0 -1.79708,0.980223 -1.79708,1.960445 0,1.143592 0.81686,1.960445 1.79708,1.960445 0.81685,0 1.6337,-0.816853 1.6337,-1.960445"
       style=""
       id="path3216" />
    <path
       d="m 519.69751,79.189535 70.41266,0 C 588.3131,48.475923 562.82727,23.970327 531.78692,23.806956 l -22.54512,0 0,46.233834 c 0,0 0.16337,0 0.16337,0 5.22785,0 9.63886,3.920896 10.29234,9.148745 m -10.29234,11.43593 c 0,0 -0.16337,0 -0.16337,0 l 0,50.644835 22.21838,0 0,0 c 0,0 0,0 0.16337,0 l 0.16337,0 0,0 c 32.18395,-0.16337 58.32325,-26.30267 58.32325,-58.649986 0,-0.326741 0,-0.653482 0,-0.980223 l -70.41266,0 c -0.65348,5.064479 -5.06449,8.985374 -10.29234,8.985374 m 19.27771,-26.956122 c 1.79708,0 3.26741,1.143595 3.75752,2.940668 0.65349,1.797073 0,3.757521 -1.6337,4.901113 -2.12381,1.306962 -3.59415,1.143595 -4.73774,2.613927 l 6.0447,0 0,1.797075 -8.33189,0 c 0,-1.143592 0.16337,-2.450558 1.30696,-3.430779 1.47034,-1.306962 2.7773,-1.306965 4.73775,-2.613927 1.96044,-1.143592 0.98022,-4.247632 -1.1436,-4.247632 -1.6337,0 -2.77729,0.980225 -2.94066,2.450557 l -1.79708,-0.326741 c 0.49011,-2.123813 1.63371,-3.920891 4.73774,-4.084261 m 16.01031,1.960445 -1.63371,0 0,10.292338 -1.79707,0 0,-10.292338 -4.411,0 0,10.292338 -1.96045,0 0,-10.292338 -1.6337,0 0,-1.797074 11.43593,0 0,1.797074"
       style=""
       id="path3218" />
    <path
       d="m 691.06797,25.27729 -46.56058,0 0,47.050686 -1.6337,0 0,-47.050686 -46.56058,0 19.27772,55.87269 56.19943,0 19.27771,-55.87269 m -19.27771,58.323247 -56.19943,0 -19.27772,56.036063 46.56058,0 0,-46.560578 1.6337,0 0,46.560578 46.56058,0 -19.27771,-56.036063 m -38.88217,24.342193 2.12382,0 -3.75752,5.88134 3.92089,5.88133 -2.12382,0 -2.77729,-4.24763 -2.94067,4.24763 -2.12382,0 3.92089,-5.88133 -3.75752,-5.88134 2.12382,0 2.7773,4.08426 2.61392,-4.08426 m 6.37145,3.75752 c -0.49011,0.32674 -1.47033,0.65348 -1.96045,1.14359 l 2.94067,0 0,1.30697 -4.73774,0 c 0,-0.81685 0,-1.47034 0.65348,-2.12382 0.65348,-0.49011 1.63371,-0.65348 2.61393,-1.30696 0.65348,-0.49011 0.32674,-1.79708 -0.65348,-1.79708 -0.49011,0 -1.1436,0.32675 -1.30697,1.30697 l -1.30696,-0.16337 c 0.16337,-1.30696 1.14359,-2.45056 2.61393,-2.45056 2.28718,0 3.10403,2.7773 1.14359,4.08426 m 15.35682,-68.452212 2.12382,0 -3.75752,5.881336 3.92089,5.881336 -2.12382,0 -2.7773,-4.247631 -2.94066,4.247631 -2.12382,0 3.92089,-5.881336 -3.75752,-5.881336 2.12382,0 2.77729,4.084261 2.61393,-4.084261 m 3.92089,0.816853 c 0.32674,-0.163371 0.32674,-0.980223 0.32674,-0.980223 l 1.30697,0 0,6.371447 -1.47034,0 0,-3.92089 -1.47033,0 0,-1.306964 c 0.49011,0 0.98022,0 1.30696,-0.16337"
       style=""
       id="path3220" />
  </g>
</svg>
