<?xml version="1.0" encoding="UTF-8" standalone="no"?>
<!-- Created with Inkscape (http://www.inkscape.org/) -->

<svg
   xmlns:dc="http://purl.org/dc/elements/1.1/"
   xmlns:cc="http://creativecommons.org/ns#"
   xmlns:rdf="http://www.w3.org/1999/02/22-rdf-syntax-ns#"
   xmlns:svg="http://www.w3.org/2000/svg"
   xmlns="http://www.w3.org/2000/svg"
   xmlns:sodipodi="http://sodipodi.sourceforge.net/DTD/sodipodi-0.dtd"
   xmlns:inkscape="http://www.inkscape.org/namespaces/inkscape"
   width="649.01965"
   height="746.91431"
   id="svg2"
   version="1.1"
   inkscape:version="0.48.2 r9819"
   sodipodi:docname="New document 1">
  <defs
     id="defs4">
    <inkscape:path-effect
       effect="spiro"
       id="path-effect4031"
       is_visible="true" />
  </defs>
  <sodipodi:namedview
     id="base"
     pagecolor="#ffffff"
     bordercolor="#666666"
     borderopacity="1.0"
     inkscape:pageopacity="0.0"
     inkscape:pageshadow="2"
     inkscape:zoom="0.1767767"
     inkscape:cx="611.21327"
     inkscape:cy="422.11834"
     inkscape:document-units="px"
     inkscape:current-layer="layer1"
     showgrid="false"
     showguides="true"
     inkscape:guide-bbox="true"
     fit-margin-top="0"
     fit-margin-left="0"
     fit-margin-right="0"
     fit-margin-bottom="0"
     inkscape:window-width="1463"
     inkscape:window-height="1357"
     inkscape:window-x="998"
     inkscape:window-y="8"
     inkscape:window-maximized="0" />
  <metadata
     id="metadata7">
    <rdf:RDF>
      <cc:Work
         rdf:about="">
        <dc:format>image/svg+xml</dc:format>
        <dc:type
           rdf:resource="http://purl.org/dc/dcmitype/StillImage" />
        <dc:title></dc:title>
      </cc:Work>
    </rdf:RDF>
  </metadata>
  <g
     inkscape:label="Layer 1"
     inkscape:groupmode="layer"
     id="layer1"
     transform="translate(-2.7059864,-1.5536408)">
    <path
       sodipodi:type="star"
       style="fill:none;stroke:#000000;stroke-width:18.17050934;stroke-linejoin:miter;stroke-miterlimit:4;stroke-opacity:1;stroke-dasharray:none;stroke-dashoffset:0"
       id="path3056"
       sodipodi:sides="6"
       sodipodi:cx="62.857143"
       sodipodi:cy="209.50504"
       sodipodi:r1="443.30853"
       sodipodi:r2="383.91644"
       sodipodi:arg1="1.5707963"
       sodipodi:arg2="2.0943951"
       inkscape:flatsided="true"
       inkscape:rounded="0"
       inkscape:randomized="0"
       d="M 62.857155,652.81357 -321.0593,431.15931 -321.05931,-12.149221 62.857132,-233.8035 446.77359,-12.149241 l 10e-6,443.308531 z"
       transform="matrix(0.82551344,0,0,0.82551344,275.40804,202.06157)" />
    <path
       style="fill:none;stroke:#000000;stroke-width:15;stroke-linecap:butt;stroke-linejoin:miter;stroke-miterlimit:4;stroke-opacity:1;stroke-dasharray:none"
       d="m 311.00515,729.07276 0,-139.40105 0,0"
       id="path3834"
       inkscape:connector-curvature="0" />
    <path
       inkscape:connector-curvature="0"
       id="path3836"
       d="m 343.00515,729.07276 0,-139.40105 0,0"
       style="fill:none;stroke:#000000;stroke-width:15;stroke-linecap:butt;stroke-linejoin:miter;stroke-miterlimit:4;stroke-opacity:1;stroke-dasharray:none" />
    <path
       style="fill:none;stroke:#000000;stroke-width:12.71636391;stroke-linecap:butt;stroke-linejoin:miter;stroke-miterlimit:4;stroke-opacity:1;stroke-dasharray:none"
       d="m 280.52163,589.59049 91.47468,0 0,0"
       id="path3840"
       inkscape:connector-curvature="0" />
    <rect
       style="fill:#000000;fill-opacity:1;stroke:#000000;stroke-width:9.562953;stroke-linejoin:miter;stroke-miterlimit:4;stroke-opacity:1;stroke-dasharray:none;stroke-dashoffset:0"
       id="rect3842"
       width="58.378479"
       height="59.875229"
       x="297.63266"
       y="514.77148" />
    <path
       sodipodi:type="arc"
       style="fill:#000000;fill-opacity:1;fill-rule:nonzero;stroke:none"
       id="path3848"
       sodipodi:cx="325.26913"
       sodipodi:cy="397.78333"
       sodipodi:rx="44.446712"
       sodipodi:ry="44.446712"
       d="m 369.71585,397.78333 c 0,24.54724 -19.89947,44.44671 -44.44672,44.44671 -24.54724,0 -44.44671,-19.89947 -44.44671,-44.44671 0,-24.54725 19.89947,-44.44672 44.44671,-44.44672 24.54725,0 44.44672,19.89947 44.44672,44.44672 z"
       transform="matrix(0.76483836,0,0,0.76483836,78.015909,207.57076)" />
    <path
       style="fill:none;stroke:#000000;stroke-width:12;stroke-linecap:butt;stroke-linejoin:miter;stroke-miterlimit:4;stroke-opacity:1;stroke-dasharray:none"
       d="m 326.78435,365.21932 0,85.71429 0,0 0,0"
       id="path3927"
       inkscape:connector-curvature="0" />
    <path
       inkscape:connector-curvature="0"
       id="path3929"
       d="m 218.47977,409.05761 60.60916,60.60915 0,0 0,0"
       style="fill:none;stroke:#000000;stroke-width:12;stroke-linecap:butt;stroke-linejoin:miter;stroke-miterlimit:4;stroke-opacity:1;stroke-dasharray:none" />
    <path
       inkscape:connector-curvature="0"
       id="path3931"
       d="m 181.07007,520.07646 85.71429,0 0,0 0,0"
       style="fill:none;stroke:#000000;stroke-width:12;stroke-linecap:butt;stroke-linejoin:miter;stroke-miterlimit:4;stroke-opacity:1;stroke-dasharray:none" />
    <path
       inkscape:connector-curvature="0"
       id="path3933"
       d="m 435.80321,409.05761 -60.60916,60.60915 0,0 0,0"
       style="fill:none;stroke:#000000;stroke-width:12;stroke-linecap:butt;stroke-linejoin:miter;stroke-miterlimit:4;stroke-opacity:1;stroke-dasharray:none" />
    <path
       inkscape:connector-curvature="0"
       id="path3935"
       d="m 472.78436,518.64789 -85.71429,0 0,0 0,0"
       style="fill:none;stroke:#000000;stroke-width:12;stroke-linecap:butt;stroke-linejoin:miter;stroke-miterlimit:4;stroke-opacity:1;stroke-dasharray:none" />
    <g
       id="g3997"
       transform="matrix(-0.5,0.8660254,-0.8660254,-0.5,813.10409,278.15613)">
      <path
         style="fill:none;stroke:#000000;stroke-width:15;stroke-linecap:butt;stroke-linejoin:miter;stroke-miterlimit:4;stroke-opacity:1;stroke-dasharray:none"
         d="m 311.00515,729.07276 0,-139.40105 0,0"
         id="path3999"
         inkscape:connector-curvature="0" />
      <path
         inkscape:connector-curvature="0"
         id="path4001"
         d="m 343.00515,729.07276 0,-139.40105 0,0"
         style="fill:none;stroke:#000000;stroke-width:15;stroke-linecap:butt;stroke-linejoin:miter;stroke-miterlimit:4;stroke-opacity:1;stroke-dasharray:none" />
      <path
         style="fill:none;stroke:#000000;stroke-width:12.71636391;stroke-linecap:butt;stroke-linejoin:miter;stroke-miterlimit:4;stroke-opacity:1;stroke-dasharray:none"
         d="m 280.52163,589.59049 91.47468,0 0,0"
         id="path4003"
         inkscape:connector-curvature="0" />
      <rect
         style="fill:#000000;fill-opacity:1;stroke:#000000;stroke-width:9.562953;stroke-linejoin:miter;stroke-miterlimit:4;stroke-opacity:1;stroke-dasharray:none;stroke-dashoffset:0"
         id="rect4005"
         width="58.378479"
         height="59.875229"
         x="297.63266"
         y="514.77148" />
      <path
         sodipodi:type="arc"
         style="fill:#000000;fill-opacity:1;fill-rule:nonzero;stroke:none"
         id="path4007"
         sodipodi:cx="325.26913"
         sodipodi:cy="397.78333"
         sodipodi:rx="44.446712"
         sodipodi:ry="44.446712"
         d="m 369.71585,397.78333 c 0,24.54724 -19.89947,44.44671 -44.44672,44.44671 -24.54724,0 -44.44671,-19.89947 -44.44671,-44.44671 0,-24.54725 19.89947,-44.44672 44.44671,-44.44672 24.54725,0 44.44672,19.89947 44.44672,44.44672 z"
         transform="matrix(0.76483836,0,0,0.76483836,78.015909,207.57076)" />
    </g>
    <g
       id="g4009"
       transform="matrix(-0.5,-0.8660254,0.8660254,-0.5,166.82134,844.91162)">
      <path
         style="fill:none;stroke:#000000;stroke-width:15;stroke-linecap:butt;stroke-linejoin:miter;stroke-miterlimit:4;stroke-opacity:1;stroke-dasharray:none"
         d="m 311.00515,729.07276 0,-139.40105 0,0"
         id="path4011"
         inkscape:connector-curvature="0" />
      <path
         inkscape:connector-curvature="0"
         id="path4013"
         d="m 343.00515,729.07276 0,-139.40105 0,0"
         style="fill:none;stroke:#000000;stroke-width:15;stroke-linecap:butt;stroke-linejoin:miter;stroke-miterlimit:4;stroke-opacity:1;stroke-dasharray:none" />
      <path
         style="fill:none;stroke:#000000;stroke-width:12.71636391;stroke-linecap:butt;stroke-linejoin:miter;stroke-miterlimit:4;stroke-opacity:1;stroke-dasharray:none"
         d="m 280.52163,589.59049 91.47468,0 0,0"
         id="path4015"
         inkscape:connector-curvature="0" />
      <rect
         style="fill:#000000;fill-opacity:1;stroke:#000000;stroke-width:9.562953;stroke-linejoin:miter;stroke-miterlimit:4;stroke-opacity:1;stroke-dasharray:none;stroke-dashoffset:0"
         id="rect4017"
         width="58.378479"
         height="59.875229"
         x="297.63266"
         y="514.77148" />
      <path
         sodipodi:type="arc"
         style="fill:#000000;fill-opacity:1;fill-rule:nonzero;stroke:none"
         id="path4019"
         sodipodi:cx="325.26913"
         sodipodi:cy="397.78333"
         sodipodi:rx="44.446712"
         sodipodi:ry="44.446712"
         d="m 369.71585,397.78333 c 0,24.54724 -19.89947,44.44671 -44.44672,44.44671 -24.54724,0 -44.44671,-19.89947 -44.44671,-44.44671 0,-24.54725 19.89947,-44.44672 44.44671,-44.44672 24.54725,0 44.44672,19.89947 44.44672,44.44672 z"
         transform="matrix(0.76483836,0,0,0.76483836,78.015909,207.57076)" />
    </g>
    <path
       style="fill:#ffffff;fill-opacity:1;stroke:#ffffff;stroke-width:0.65896189px;stroke-linecap:butt;stroke-linejoin:miter;stroke-opacity:1"
       d="m 306.4255,505.74948 c 2.04871,-4.44083 5.44912,-8.24709 9.63185,-10.78145 4.18273,-2.53436 9.13072,-3.78648 14.01546,-3.54671 2.93413,0.14403 5.94268,0.86473 8.23784,2.69833 1.14758,0.9168 2.09236,2.10417 2.64121,3.4666 0.54886,1.36243 0.6886,2.90151 0.30393,4.31908 -0.3373,1.24301 -1.07923,2.37742 -2.10112,3.16137 -1.02189,0.78395 -2.32028,1.2079 -3.60688,1.14873 -1.6634,-0.0765 -3.17846,-0.91502 -4.7195,-1.54588 -0.77051,-0.31544 -1.56828,-0.58398 -2.39546,-0.67871 -0.82717,-0.0947 -1.69028,-0.007 -2.43715,0.36077 -0.55651,0.27417 -1.0327,0.69589 -1.41647,1.18333 -0.38378,0.48744 -0.67834,1.04001 -0.92125,1.61086 -0.4858,1.14171 -0.77061,2.36189 -1.27339,3.49623 -0.84593,1.90853 -2.3253,3.54149 -4.17367,4.51184 -1.84838,0.97035 -4.0578,1.25862 -6.0774,0.73016 -2.09262,-0.54756 -3.94068,-1.97267 -5.00219,-3.85737 -1.0615,-1.8847 -1.32226,-4.20381 -0.70581,-6.27718"
       id="path4029"
       inkscape:path-effect="#path-effect4031"
       inkscape:original-d="m 306.4255,505.74948 c 0,0 9.08616,-17.70635 23.64731,-14.32816 14.56115,3.37818 10.13457,11.29944 11.18298,10.48401 1.04841,-0.81541 -1.86381,5.00904 -5.708,4.3101 -3.84412,-0.69893 -9.08616,-3.37818 -9.55211,-1.86382 -0.46595,1.51436 -4.19357,4.19361 -3.61111,6.29042 0.58239,2.09679 -1.74737,6.05743 -10.25107,5.242 -8.50371,-0.81542 -5.708,-10.13455 -5.708,-10.13455 z"
       inkscape:connector-curvature="0"
       clip-path="none" />
  </g>
</svg>
