<?xml version="1.0" encoding="UTF-8" standalone="no"?>
<svg
   xmlns:dc="http://purl.org/dc/elements/1.1/"
   xmlns:cc="http://creativecommons.org/ns#"
   xmlns:rdf="http://www.w3.org/1999/02/22-rdf-syntax-ns#"
   xmlns:svg="http://www.w3.org/2000/svg"
   xmlns="http://www.w3.org/2000/svg"
   xmlns:xlink="http://www.w3.org/1999/xlink"
   xmlns:sodipodi="http://sodipodi.sourceforge.net/DTD/sodipodi-0.dtd"
   xmlns:inkscape="http://www.inkscape.org/namespaces/inkscape"
   version="1.0"
   width="401"
   height="401"
   id="svg2"
   inkscape:version="0.48.2 r9819"
   sodipodi:docname="sticker2.svg">
  <metadata
     id="metadata42">
    <rdf:RDF>
      <cc:Work
         rdf:about="">
        <dc:format>image/svg+xml</dc:format>
        <dc:type
           rdf:resource="http://purl.org/dc/dcmitype/StillImage" />
        <dc:title></dc:title>
      </cc:Work>
    </rdf:RDF>
  </metadata>
  <defs
     id="defs40">
    <inkscape:perspective
       id="perspective3000"
       inkscape:persp3d-origin="150 : 91.666667 : 1"
       inkscape:vp_z="300 : 137.5 : 1"
       inkscape:vp_y="0 : 1000 : 0"
       inkscape:vp_x="0 : 137.5 : 1"
       sodipodi:type="inkscape:persp3d" />
  </defs>
  <sodipodi:namedview
     pagecolor="#ffffff"
     bordercolor="#666666"
     borderopacity="1"
     objecttolerance="10"
     gridtolerance="10"
     guidetolerance="10"
     inkscape:pageopacity="0"
     inkscape:pageshadow="2"
     inkscape:window-width="1328"
     inkscape:window-height="957"
     id="namedview38"
     showgrid="false"
     showborder="false"
     showguides="true"
     inkscape:guide-bbox="true"
     inkscape:zoom="0.70710678"
     inkscape:cx="290.00823"
     inkscape:cy="218.72422"
     inkscape:window-x="2924"
     inkscape:window-y="312"
     inkscape:window-maximized="0"
     inkscape:current-layer="svg2"
     fit-margin-top="0"
     fit-margin-left="0"
     fit-margin-right="0"
     fit-margin-bottom="0" />
  <g
     id="g3287"
     transform="translate(0.5,0.5)"
     style="stroke:#aaccff">
    <g
       id="layer1"
       style="stroke:#aaccff;display:inline">
      <g
         id="g8191"
         style="stroke:#aaccff;stroke-opacity:1">
        <path
           id="path1872"
           style="fill:none;stroke:#aaccff;stroke-width:1px;stroke-linecap:butt;stroke-linejoin:miter;stroke-opacity:1"
           d="m 20,0 0,400"
           inkscape:connector-curvature="0" />
        <use
           xlink:href="#path1872"
           height="400"
           width="400"
           y="0"
           x="0"
           id="use8185"
           style="stroke:#aaccff;stroke-opacity:1"
           transform="translate(20,0)" />
        <use
           xlink:href="#path1872"
           height="400"
           width="400"
           y="0"
           x="0"
           id="use8187"
           style="stroke:#aaccff;stroke-opacity:1"
           transform="translate(40,0)" />
        <use
           xlink:href="#path1872"
           height="400"
           width="400"
           y="0"
           x="0"
           id="use8189"
           style="stroke:#aaccff;stroke-opacity:1"
           transform="translate(60,0)" />
      </g>
      <use
         xlink:href="#g8191"
         height="400"
         width="400"
         y="0"
         x="0"
         id="use8197"
         transform="translate(100,0)"
         style="stroke:#aaccff" />
      <use
         xlink:href="#g8191"
         height="400"
         width="400"
         y="0"
         x="0"
         id="use8199"
         transform="translate(200,0)"
         style="stroke:#aaccff" />
      <use
         xlink:href="#g8191"
         height="400"
         width="400"
         y="0"
         x="0"
         id="use8201"
         transform="translate(300,0)"
         style="stroke:#aaccff" />
      <use
         xlink:href="#g8191"
         height="400"
         width="400"
         y="0"
         x="0"
         id="use8203"
         transform="matrix(0,1,-1,0,400,0)"
         style="stroke:#aaccff" />
      <use
         xlink:href="#use8203"
         height="400"
         width="400"
         y="0"
         x="0"
         id="use8205"
         transform="translate(0,100)"
         style="stroke:#aaccff" />
      <use
         xlink:href="#use8203"
         height="400"
         width="400"
         y="0"
         x="0"
         id="use8207"
         transform="translate(0,200)"
         style="stroke:#aaccff" />
      <use
         xlink:href="#use8203"
         height="400"
         width="400"
         y="0"
         x="0"
         id="use8209"
         transform="translate(0,300)"
         style="stroke:#aaccff" />
    </g>
    <g
       id="layer2"
       style="stroke:#aaccff;display:inline">
      <g
         id="g8225"
         style="stroke:#aaccff;stroke-opacity:1">
        <path
           id="path8215"
           style="fill:none;stroke:#aaccff;stroke-width:1px;stroke-linecap:butt;stroke-linejoin:miter;stroke-opacity:1"
           d="m 100,0 0,400"
           inkscape:connector-curvature="0" />
        <use
           xlink:href="#path8215"
           height="400"
           width="400"
           y="0"
           x="0"
           id="use8217"
           style="stroke:#aaccff;stroke-opacity:1"
           transform="translate(100,0)" />
        <use
           xlink:href="#path8215"
           height="400"
           width="400"
           y="0"
           x="0"
           id="use8219"
           style="stroke:#aaccff;stroke-opacity:1"
           transform="translate(200,0)" />
      </g>
      <use
         xlink:href="#g8225"
         height="400"
         width="400"
         y="0"
         x="0"
         id="use8232"
         transform="matrix(0,1,-1,0,400,0)"
         style="stroke:#aaccff" />
    </g>
    <g
       id="layer3"
       style="stroke:#aaccff">
      <rect
         id="rect10078"
         style="fill:none;stroke:#aaccff;stroke-opacity:1"
         y="0.5"
         x="0.5"
         height="399"
         width="399" />
    </g>
  </g>
  <path
     inkscape:connector-curvature="0"
     id="path3330"
     style="font-size:157.07275391px;font-style:normal;font-variant:normal;font-weight:normal;font-stretch:normal;line-height:125%;letter-spacing:0px;word-spacing:0px;fill:#536c67;fill-opacity:1;stroke:none;font-family:Roke1984;-inkscape-font-specification:Roke1984"
     d="m 26.9,100.30708 0,2.43651 -3.06255,0 0,-2.43651 3.06255,0 m 6.12512,0 0,2.43651 -3.06258,0 0,-2.43651 3.06258,0 m 15.31276,2.43651 0,-2.43651 3.06254,0 0,2.43651 -3.06254,0 m -3.06256,-2.43651 0,2.43651 -3.06256,0 0,-2.43651 3.06256,0 m 9.18768,2.43651 0,-2.43651 3.06255,0 0,2.43651 -3.06255,0 m -15.31279,-2.43651 0,2.43651 -3.06255,0 0,-2.43651 3.06255,0 m 27.4883,2.43651 0,-2.43651 3.06256,0 0,2.43651 -3.06256,0 m 21.43788,-2.43651 0,2.43651 -3.06255,0 0,-2.43651 3.06255,0 m -27.4883,2.43651 0,-2.43651 3.06255,0 0,2.43651 -3.06255,0 m 33.61342,-2.43651 0,2.43651 -3.06256,0 0,-2.43651 3.06256,0 m -12.25021,0 0,2.43651 -3.06257,0 0,-2.43651 3.06257,0 m -6.12513,0 0,2.43651 -3.06254,0 0,-2.43651 3.06254,0 m -6.42389,-60.3541 31.97007,0 0,121.06611 -31.2978,0 -18.52472,-21.41349 0,21.41349 -31.97008,0 0,-121.06611 31.37251,0 18.45002,23.49208 0,-23.49208 m 29.72917,60.3541 0,-57.91758 -27.41358,0 0,26.87173 -21.73667,-26.87173 -28.16056,0 0,116.27168 27.4136,0 0,-25.02895 21.88605,25.02895 28.01116,0 0,-55.91759 -1.86739,0 0,-2.43651 1.86739,0 m -74.99522,53.13161 0,-1.65053 22.78242,0 0,1.65053 -22.78242,0 m 7.17085,-16.89837 c -2.39029,0.10483 -3.85932,1.44097 -4.40708,4.00846 l 1.718,0.31438 c 0.0996,-0.73356 0.37348,-1.30993 0.82169,-1.72914 0.49796,-0.47155 1.12042,-0.70735 1.86739,-0.70737 0.99594,2e-5 1.64332,0.5502 1.94211,1.65054 0.34858,1.10037 0.0747,1.93875 -0.82165,2.51511 -0.59759,0.41919 -1.36946,0.86459 -2.3156,1.33614 -0.94616,0.4192 -1.66822,0.83839 -2.16618,1.25756 -0.79679,0.78598 -1.19517,1.91255 -1.19516,3.37968 l 7.76843,0 0,-1.72914 -5.60222,0 c 0.29876,-0.41916 0.64733,-0.73356 1.04573,-0.94318 0.44818,-0.26196 0.99595,-0.52395 1.64334,-0.78594 0.64734,-0.26198 1.22002,-0.55018 1.71801,-0.8646 0.74696,-0.57635 1.26981,-1.28372 1.56862,-2.1221 0.29877,-0.89074 0.27387,-1.78152 -0.0747,-2.6723 -0.49799,-1.93871 -1.66825,-2.90808 -3.51074,-2.9081 m 9.18767,8.01691 2.61437,-4.00845 -2.1662,0 -1.34453,2.4365 -1.34454,-2.4365 -2.16619,0 2.76378,4.00845 -2.76378,4.00845 2.16619,0 1.34454,-2.35791 1.49393,2.35791 2.0168,0 -2.61437,-4.00845"
     sodipodi:nodetypes="ccccccccccccccccccccccccccccccccccccccccccccccccccccccccccccccccccccccccccccccccccccccccccccccccccccccccccccccccccccccccccc" />
  <path
     inkscape:connector-curvature="0"
     id="path3332"
     style="font-size:157.07275391px;font-style:normal;font-variant:normal;font-weight:normal;font-stretch:normal;line-height:125%;letter-spacing:0px;word-spacing:0px;fill:#536c67;fill-opacity:1;stroke:none;font-family:Roke1984;-inkscape-font-specification:Roke1984"
     d="m 162.58936,58.00628 0,3.27883 -2.47912,0 0,-3.27883 2.47912,0 m 0,-6.55767 0,3.27884 -2.47912,0 0,-3.27884 2.47912,0 m 0,13.11533 0,3.27884 -2.47912,0 0,-3.27884 2.47912,0 m 0,-19.673 0,3.27884 -2.47912,0 0,-3.27884 2.47912,0 m -1.35951,-4.55838 c 8.15703,1.2e-4 15.94092,1.59956 23.3517,4.7983 7.46391,3.14566 13.86162,7.4108 19.19317,12.79545 5.38463,5.33152 9.64979,11.70258 12.79543,19.11319 3.19875,7.35746 4.79819,15.1147 4.79829,23.27173 -1e-4,8.15714 -1.59954,15.94103 -4.79829,23.35169 -3.14564,7.41072 -7.4108,13.80844 -12.79543,19.19317 -5.33155,5.33144 -11.72926,9.5966 -19.19317,12.79545 -7.41078,3.14554 -15.19467,4.71832 -23.3517,4.71832 -10.82286,0 -20.84597,-2.66572 -30.06931,-7.99717 -9.22339,-5.38472 -16.52745,-12.68878 -21.91219,-21.91219 -5.38477,-9.22334 -8.07714,-19.2731 -8.07713,-30.14927 -1e-5,-10.82276 2.69236,-20.84585 8.07713,-30.0693 5.38474,-9.2233 12.6888,-16.5007 21.91219,-21.83223 9.22334,-5.38465 19.24645,-8.07702 30.06931,-8.07714 m 40.78549,100.76416 c 5.22469,-5.17147 9.3299,-11.19599 12.31562,-18.07357 2.98548,-6.87751 4.50494,-14.18158 4.55838,-21.91221 l -54.70054,0 c -0.37326,1.27959 -1.19964,1.91938 -2.47911,1.91932 -0.79979,6e-5 -1.46621,-0.26651 -1.9993,-0.79972 -0.47989,-0.53308 -0.7198,-1.17286 -0.71976,-1.91931 -4e-5,-0.95961 0.37316,-1.73266 1.11961,-2.31917 l 0,-0.63978 2.47912,0 0,0.31988 c 0.85298,0.31995 1.43943,0.90641 1.75938,1.75938 l 54.5406,0 c -0.0534,-7.62388 -1.5729,-14.84798 -4.55838,-21.67228 -2.98572,-6.87747 -7.09093,-12.90199 -12.31562,-18.07358 -5.33154,-5.33135 -11.516,-9.46319 -18.5534,-12.39559 -6.98426,-2.98549 -14.39496,-4.47829 -22.23209,-4.47842 -7.78396,1.3e-4 -15.19465,1.49293 -22.23209,4.47842 -7.03754,2.9324 -13.22199,7.06424 -18.55339,12.39559 -5.27816,5.27822 -9.41001,11.43602 -12.39562,18.47342 -2.9856,6.98427 -4.47839,14.36829 -4.47838,22.15213 -1e-5,7.83726 1.49278,15.2746 4.47838,22.31207 2.98561,7.03751 7.11746,13.19532 12.39562,18.47342 5.3314,5.33145 11.48921,9.46329 18.47342,12.39559 7.03744,2.9323 14.47479,4.39843 22.31206,4.39844 7.83713,-1e-5 15.24783,-1.46614 22.23209,-4.39844 7.0374,-2.9323 13.22186,-7.06414 18.5534,-12.39559 m -39.42598,-50.3021 0,3.27882 -2.47912,0 0,-3.27882 2.47912,0 m 0,-6.55767 0,3.27883 -2.47912,0 0,-3.27883 2.47912,0 m 0,-6.55768 0,3.27884 -2.47912,0 0,-3.27884 2.47912,0 m 0,-6.55766 0,3.27883 -2.47912,0 0,-3.27883 2.47912,0 m 1.91932,32.78834 -2.5591,4.07854 -2.799,-4.07854 -2.15923,0 3.75867,5.83792 -3.9186,5.9179 2.15921,0 2.95895,-4.2385 2.71905,4.2385 2.15922,0 -3.91861,-5.9179 3.75867,-5.83792 -2.15923,0 m 6.39773,3.75867 c 1.0129,-0.69304 1.35945,-1.54608 1.03962,-2.55909 -0.26664,-1.01293 -0.98639,-1.51941 -2.15923,-1.51947 -1.54618,6e-5 -2.42587,0.79977 -2.63906,2.39914 l 1.27955,0.15996 c 0.15987,-0.85299 0.61306,-1.27949 1.35951,-1.27955 0.47977,6e-5 0.773,0.23996 0.87969,0.71974 0.15987,0.42657 0.0798,0.77312 -0.23991,1.03964 -0.37327,0.26662 -0.85309,0.53319 -1.43949,0.79971 -0.58653,0.2133 -0.98639,0.39991 -1.19957,0.55979 -0.42659,0.42658 -0.63985,1.11966 -0.63978,2.07928 l 4.71834,0 0,-1.27955 -2.87899,0 c 0.15987,-0.21321 0.47976,-0.42647 0.95966,-0.63978 0.53308,-0.26652 0.85296,-0.42646 0.95966,-0.47982" />
  <path
     inkscape:connector-curvature="0"
     id="path3334"
     style="font-size:157.07275391px;font-style:normal;font-variant:normal;font-weight:normal;font-stretch:normal;line-height:125%;letter-spacing:0px;word-spacing:0px;fill:#536c67;fill-opacity:1;stroke:none;font-family:Roke1984;-inkscape-font-specification:Roke1984"
     d="m 223.55472,155.233 0,-1.61138 12.67792,0 0,1.61138 -12.67792,0 M 240.10634,39.93845 c 11.0442,0.26869 21.18178,3.14233 30.41284,8.62091 9.28587,5.42511 16.59374,12.73004 21.92359,21.91485 5.38468,9.18494 8.07707,19.17553 8.07713,29.97173 -6e-5,10.79631 -2.69245,20.78689 -8.07713,29.97174 -5.32985,9.18491 -12.63772,16.51671 -21.92359,21.9954 -9.23106,5.47871 -19.36864,8.35234 -30.41284,8.62092 l -1.48354,0 -18.09569,0 0,-121.09555 19.57923,0 m -1.15387,118.59789 c 10.65957,-0.0537 20.52243,-2.65878 29.58864,-7.81521 9.0661,-5.21013 16.2366,-12.2465 21.51152,-21.10913 5.27476,-8.9163 7.91218,-18.6383 7.91227,-29.16606 -9e-5,-10.15166 -2.50015,-19.57824 -7.50019,-28.27979 -4.94523,-8.70138 -11.70364,-15.68403 -20.27522,-20.94798 -8.57166,-5.26376 -17.9675,-8.16425 -28.18747,-8.70151 l 0,1.53083 -2.55503,0 0,-1.69195 -0.49452,0 -0.32967,0 -15.62309,0 0,116.1808 15.78794,0 0.16482,0 m 7.74746,-21.27027 c 1.31866,-0.21482 2.3352,-0.42969 3.04951,-0.64454 l 0.65937,2.41706 c -0.60445,0.26859 -1.73087,0.51029 -3.3792,0.72513 l -0.32968,-2.49765 m 3.21435,-75.57392 -0.65935,2.33651 c -0.32972,-0.0536 -0.85171,-0.13419 -1.56596,-0.24172 -0.71436,-0.16104 -1.26383,-0.26847 -1.64839,-0.32227 l 0.4945,-2.41708 c 1.31867,0.16123 2.44507,0.37609 3.3792,0.64456 m 6.59357,2.17536 -1.07148,2.25595 c -0.76928,-0.3759 -1.78577,-0.7519 -3.04949,-1.12798 l 0.90661,-2.33651 c 1.5934,0.53722 2.66485,0.94008 3.21436,1.20854 m -16.40151,74.04311 c 0.38459,2e-5 0.93406,-0.0268 1.64839,-0.0806 0.71428,-0.0537 1.23627,-0.0806 1.566,-0.0806 l 0.32965,2.49765 -1.64836,0 0,2.81992 -2.55503,0 0,-3.30333 0.65935,0 0,-1.85311 m 36.59431,-48.6638 c -0.10991,-0.42964 -0.32973,-0.99361 -0.65937,-1.69195 -0.27478,-0.75191 -0.43962,-1.23533 -0.49451,-1.45025 l 2.39017,-0.80569 c 0.0549,0.21492 0.21971,0.67149 0.49452,1.36967 0.32961,0.69835 0.54942,1.2892 0.65936,1.77253 l -2.39017,0.80569 m -2.4726,-5.96213 c -0.54953,-1.07417 -1.12646,-2.01415 -1.7308,-2.81992 l 2.22532,-1.2891 c 0.32962,0.48348 0.87909,1.47718 1.64841,2.98106 l -2.14293,1.12796 m -21.26425,52.45057 c 0.65932,-0.21482 1.64835,-0.64454 2.96711,-1.28911 l 1.07145,2.3365 c -1.53856,0.69829 -2.60998,1.12799 -3.21435,1.28912 l -0.82421,-2.33651 m 25.13797,-40.36518 c -0.055,-0.21478 -0.10989,-0.53706 -0.16483,-0.96683 -0.055,-0.48335 -0.10989,-0.88621 -0.16484,-1.20854 -0.055,-0.37592 -0.1099,-0.69822 -0.16483,-0.96684 l 2.30774,-0.48339 c 0.27465,0.91318 0.49444,2.01428 0.65936,3.30334 l -2.4726,0.32226 m -5.27484,24.5736 c 0.16475,-0.32222 0.41205,-0.77878 0.74174,-1.36966 0.3846,-0.64452 0.65932,-1.12792 0.82425,-1.45026 l 2.30773,1.12797 c -0.16493,0.37604 -0.43965,0.91317 -0.8242,1.61139 -0.3847,0.64459 -0.65942,1.10114 -0.82417,1.36966 l -2.22535,-1.2891 m 2.88468,-5.80097 c 0.65931,-1.8799 0.98897,-2.87359 0.98904,-2.98108 l 2.55501,0.72515 c -0.32974,1.18172 -0.71438,2.25597 -1.15389,3.22276 l -2.39016,-0.96683 m -6.75841,10.87684 2.06048,-2.41707 1.97809,1.45023 c -0.055,0.0538 -0.35721,0.42974 -0.90663,1.12798 -0.49456,0.6983 -0.90667,1.20857 -1.23627,1.53081 l -1.89567,-1.69195 m -6.42873,-57.84869 -1.3187,1.93366 c -1.37372,-0.8056 -2.33527,-1.34273 -2.8847,-1.61139 l 1.40114,-2.17536 c 1.81318,1.18177 2.74726,1.79948 2.80226,1.85309 m 18.46199,31.34143 0,1.93365 0,1.36969 -2.555,0 0,-1.36969 0,-1.77253 2.555,-0.16112 m -3.37919,9.50716 c 0.32961,-0.96679 0.49443,-2.01418 0.4945,-3.14221 l 2.4726,0.40287 -0.49452,3.30332 -2.47258,-0.56398 m -4.94517,-31.66371 -1.97809,1.53083 -2.06047,-2.49766 1.89564,-1.69195 c 0.32961,0.37607 0.74172,0.88633 1.23631,1.53083 0.54937,0.64462 0.85158,1.02062 0.90661,1.12795 m -4.53309,-5.07586 -1.89565,1.77253 c -0.43966,-0.42961 -1.20888,-1.07418 -2.30776,-1.93366 l 1.48356,-2.01423 2.71985,2.17536 m -9.31339,61.87718 c 0.10978,-0.0537 1.07137,-0.6714 2.88467,-1.85311 l 1.40111,2.17537 c -1.42864,0.85944 -2.39021,1.45027 -2.88466,1.77252 l -1.40112,-2.09478 m 5.43967,-3.62563 2.555,-2.17537 1.64838,1.8531 c -0.32972,0.3223 -0.82424,0.752 -1.48354,1.28909 -0.60445,0.53717 -0.96162,0.85944 -1.07143,0.96685 l -1.64841,-1.93367 m -22.25327,-62.36057 0,3.22277 -2.55503,0 0,-3.22277 2.55503,0 m 0,-4.18959 0,0.88625 -2.55503,0 0,-3.30333 3.54404,0 -0.16484,2.41708 -0.82417,0 m 0,-15.63043 0,3.30333 -2.55503,0 0,-3.30333 2.55503,0 m 0,26.34612 0,3.30334 -2.55503,0 0,-3.30334 2.55503,0 m 0,-19.73945 0,3.30333 -2.55503,0 0,-3.30333 2.55503,0 m 0,79.19955 0,3.30333 -2.55503,0 0,-3.30333 2.55503,0 m 0,-6.60669 0,3.30334 -2.55503,0 0,-3.30334 2.55503,0 m 0,-6.60669 0,3.30335 -2.55503,0 0,-3.30335 2.55503,0 m 0,-39.64003 0,3.30332 -2.55503,0 0,-3.30332 2.55503,0 m -2.55503,69.37007 0,-3.30331 2.55503,0 0,3.30331 -2.55503,0 m 0,6.52611 0,-3.30333 2.55503,0 0,3.30333 -2.55503,0 m 2.55503,-42.86281 0,3.30333 -2.55503,0 0,-3.30333 2.55503,0 m 0,-19.82003 0,3.30334 -2.55503,0 0,-3.30334 2.55503,0 m 0,-6.60668 0,3.30334 -2.55503,0 0,-3.30334 2.55503,0 m 0,19.82002 0,3.30335 -2.55503,0 0,-3.30335 2.55503,0 m 0,-6.60665 0,3.30334 -2.55503,0 0,-3.30334 2.55503,0 m -10.83083,46.005 2.88466,-4.10902 -2.39017,0 -1.48353,2.49765 -1.56598,-2.49765 -2.39018,0 3.04951,4.10902 -3.04951,4.18961 2.39018,0 1.56598,-2.49766 1.64837,2.49766 2.22533,0 -2.88466,-4.18961"
     sodipodi:nodetypes="cccccccccccccccccccccccccccccccccccccccccccccccccscccccccccccccccccccccccccccccccccccccccccccccccccccccccccccccccccccccccccccccccccccccccccccccccccccccccccccccccccccccccccccccccccccccccccccccccccccccccccccccccccccccccccccccccccccccccc" />
  <path
     inkscape:connector-curvature="0"
     id="path3336"
     style="font-size:157.07275391px;font-style:normal;font-variant:normal;font-weight:normal;font-stretch:normal;line-height:125%;letter-spacing:0px;word-spacing:0px;fill:#536c67;fill-opacity:1;stroke:none;font-family:Roke1984;-inkscape-font-specification:Roke1984"
     d="m 381.16389,70.33886 c -3.0112,1.1e-4 -3.59618,0.98681 -5.755,2.96016 -2.15899,1.92156 -3.23844,4.28449 -3.23836,7.08875 -8e-5,2.80442 1.07937,5.19332 3.23836,7.16668 2.15882,1.92155 2.7438,2.88228 5.755,2.88224 l 0,19.94198 c -3.0112,6e-5 -3.59618,0.98678 -5.755,2.96015 -2.15899,1.92156 -3.23844,4.28447 -3.23836,7.08877 -8e-5,2.80437 1.07937,5.19326 3.23836,7.16666 2.15882,1.92152 2.7438,2.88227 5.755,2.88225 l 0.34087,0.62316 0,29.42028 -82.27704,0 0,-120.04335 82.27704,0 0,29.70648 -0.34087,0.15579 m -11.46474,8.95836 c 0.22719,-2.85623 1.39185,-5.32301 3.49403,-7.40037 2.10199,-2.07722 2.65859,-3.34956 5.66977,-3.81704 l 0,-25.18838 -56.11989,0 0,0.779 -2.64181,0 0,-0.779 -18.31694,0 0,115.29155 18.31694,0 0,-5.19382 2.64181,0 0,5.19382 56.11989,0 0,-25.44745 c -2.89756,-0.51929 -3.39734,-1.71372 -5.49935,-3.58331 -2.04535,-1.92147 -3.26683,-4.2065 -3.66445,-6.85508 l -2.30093,0 0,-2.33696 2.30093,0 c 0.0568,-2.90814 1.1078,-5.42688 3.15313,-7.55614 2.0452,-2.18109 2.60179,-3.55732 5.66979,-4.12861 l 0,-15.73549 c -2.89755,-0.51927 -3.36892,-1.7916 -5.41412,-3.81704 -2.04535,-2.0253 -3.18161,-4.38819 -3.4088,-7.08875 l -2.30093,0 0,-2.33693 2.30093,0 m -26.6738,0 0,2.33693 -3.494,0 0,-2.33693 3.494,0 m 10.48204,2.33693 0,-2.33693 3.4088,0 0,2.33693 -3.4088,0 m -6.98802,0 0,-2.33693 3.49401,0 0,2.33693 -3.49401,0 m -10.48203,-2.33693 0,2.33693 -3.49401,0 0,-2.33693 3.49401,0 m -6.98803,0 0,2.33693 -3.49401,0 0,-2.33693 3.49401,0 m 34.8549,0 0,2.33693 -3.49402,0 0,-2.33693 3.49402,0 m -31.36088,42.99992 0,-2.33696 3.49401,0 0,2.33696 -3.49401,0 m 13.97604,0 0,-2.33696 3.49401,0 0,2.33696 -3.49401,0 m 6.98802,0 0,-2.33696 3.4088,0 0,2.33696 -3.4088,0 m 6.9028,0 0,-2.33696 3.49402,0 0,2.33696 -3.49402,0 m -34.85489,0 0,-2.33696 3.49401,0 0,2.33696 -3.49401,0 m 13.97605,0 0,-2.33696 3.494,0 0,2.33696 -3.494,0 m -19.4301,-4.4402 0,-3.19384 2.64181,0 0,3.19384 -2.64181,0 m 0,6.38767 0,-3.19384 2.64181,0 0,3.19384 -2.64181,0 m 0,-12.77534 0,-3.19384 2.64181,0 0,3.19384 -2.64181,0 m 0,31.93835 0,-3.19382 2.64181,0 0,3.19382 -2.64181,0 m 0,6.38769 0,-3.19385 2.64181,0 0,3.19385 -2.64181,0 m 0,-44.71373 0,-3.19384 2.64181,0 0,3.19384 -2.64181,0 m 0,25.5507 0,-3.19383 2.64181,0 0,3.19383 -2.64181,0 m 0,6.38767 0,-3.19383 2.64181,0 0,3.19383 -2.64181,0 m 0,-63.79883 0,-3.19384 2.64181,0 0,3.19384 -2.64181,0 m 0,-12.77536 0,-3.19382 2.64181,0 0,3.19382 -2.64181,0 m 0,6.38768 0,-3.19384 2.64181,0 0,3.19384 -2.64181,0 m 0,-12.77534 0,-3.19383 2.64181,0 0,3.19383 -2.64181,0 m 0,31.93837 0,-3.19384 2.64181,0 0,3.19384 -2.64181,0 m 0,6.30977 0,-3.11592 2.64181,0 0,3.11592 -2.64181,0 m 0,-12.69745 0,-3.19382 2.64181,0 0,3.19382 -2.64181,0 m 0,19.08513 0,-3.19383 2.64181,0 0,3.19383 -2.64181,0 M 330.24239,63.9512 c -1.30673,0.10395 -2.38617,0.54538 -3.23835,1.32428 -0.85222,0.72714 -1.27831,1.66192 -1.2783,2.80433 -10e-6,1.03875 0.42608,1.97353 1.2783,2.80434 0.90899,0.77908 1.98843,1.16858 3.23835,1.1685 0.73855,8e-5 1.56233,-0.20766 2.47139,-0.6232 l 0,0.6232 c -6e-5,0.67518 -0.22731,1.22049 -0.68178,1.63586 -0.45453,0.41554 -1.05106,0.62326 -1.78961,0.62318 -0.68179,8e-5 -1.27832,-0.20764 -1.78962,-0.62318 -0.45452,-0.41537 -0.68178,-0.96068 -0.68175,-1.63586 l -2.04528,0 c -10e-6,1.14258 0.42608,2.12931 1.2783,2.96012 0.90899,0.831 1.98843,1.24646 3.23835,1.24637 1.19304,9e-5 2.21569,-0.41537 3.06793,-1.24637 0.90896,-0.88275 1.33506,-1.86948 1.27828,-2.96012 l 0,-4.12862 c -3e-5,-1.09049 -0.42613,-2.02528 -1.27828,-2.80436 -0.85224,-0.77888 -1.87489,-1.16839 -3.06793,-1.16847 m 1.70441,5.76448 c -0.45456,0.41554 -1.02268,0.62329 -1.70441,0.62318 -0.68179,1.1e-4 -1.27832,-0.2336 -1.78962,-0.70109 -0.45452,-0.46729 -0.68178,-0.98662 -0.68175,-1.55796 -3e-5,-0.62308 0.22723,-1.16839 0.68175,-1.63588 0.5113,-0.51922 1.10783,-0.77888 1.78962,-0.77898 0.68173,10e-5 1.24985,0.25976 1.70441,0.77898 0.51128,0.46749 0.76692,1.0128 0.76698,1.63588 -6e-5,0.62328 -0.2557,1.16857 -0.76698,1.63587 m 9.62983,-5.76448 c -1.70443,0.0519 -3.12476,0.70118 -4.261,1.94747 -1.07948,1.19454 -1.61922,2.57073 -1.61917,4.12861 -5e-5,1.66193 0.53969,3.09005 1.61917,4.28441 1.13624,1.19453 2.55657,1.79175 4.261,1.79167 1.76116,8e-5 3.20991,-0.59714 4.34621,-1.79167 1.19302,-1.19436 1.78956,-2.62248 1.78962,-4.28441 -6e-5,-1.55788 -0.5966,-2.96004 -1.78962,-4.20652 -1.19314,-1.24628 -2.64186,-1.86948 -4.34621,-1.86956 m 4.17576,6.07608 c -4e-5,1.19453 -0.42614,2.20721 -1.2783,3.03802 -0.79543,0.831 -1.76125,1.24647 -2.89746,1.24639 -1.0795,8e-5 -2.01691,-0.41539 -2.81225,-1.24639 -0.79544,-0.83081 -1.19313,-1.84349 -1.19309,-3.03802 -4e-5,-1.14241 0.39765,-2.12912 1.19309,-2.96014 0.79534,-0.83082 1.73275,-1.24628 2.81225,-1.24638 1.13621,10e-5 2.10203,0.41556 2.89746,1.24638 0.85216,0.83102 1.27826,1.81773 1.2783,2.96014 m 5.45408,-5.92027 c -0.90908,7e-5 -1.67605,0.31166 -2.30094,0.93477 -0.56817,0.62327 -0.85225,1.32437 -0.8522,2.10324 -5e-5,0.83101 0.28403,1.58406 0.8522,2.25908 0.62489,0.62328 1.39186,0.93487 2.30094,0.93476 0.85213,1.1e-4 1.5623,-0.31148 2.13048,-0.93476 0.56807,-0.67502 0.85214,-1.42807 0.85221,-2.25908 -7e-5,-0.83081 -0.31253,-1.5319 -0.93742,-2.10324 -0.56819,-0.62311 -1.24995,-0.9347 -2.04527,-0.93477 m 1.70438,3.03801 c -6e-5,0.51943 -0.17049,0.96085 -0.51131,1.32429 -0.34094,0.36361 -0.73863,0.54537 -1.19307,0.5453 -0.51139,7e-5 -0.96589,-0.18169 -1.36352,-0.5453 -0.39775,-0.36344 -0.59659,-0.80486 -0.59654,-1.32429 -5e-5,-0.46729 0.19879,-0.9087 0.59654,-1.32426 0.39763,-0.41536 0.85213,-0.6231 1.36352,-0.6232 0.39763,1e-4 0.7669,0.20784 1.10784,0.6232 0.39765,0.41556 0.59648,0.85697 0.59654,1.32426 m -22.66846,37.46917 c -1.30673,0.0519 -2.38617,0.49341 -3.23835,1.32428 -0.85222,0.77902 -1.27831,1.7138 -1.2783,2.80435 -10e-6,1.09064 0.45448,2.05137 1.36352,2.88224 0.90899,0.77902 1.96002,1.16852 3.15313,1.16849 0.85217,3e-5 1.67596,-0.23366 2.47139,-0.7011 l 0,0.7011 c -6e-5,0.62321 -0.22731,1.14254 -0.68178,1.55796 -0.45453,0.4155 -1.05106,0.62322 -1.78961,0.62317 -0.68179,5e-5 -1.27832,-0.20767 -1.78962,-0.62317 -0.45452,-0.41542 -0.68178,-0.93475 -0.68175,-1.55796 l -2.04528,0 c -10e-6,1.0906 0.42608,2.05135 1.2783,2.88222 0.90899,0.83098 1.98843,1.24644 3.23835,1.24638 1.19304,6e-5 2.21569,-0.4154 3.06793,-1.24638 0.90896,-0.83087 1.33506,-1.79162 1.27828,-2.88222 l 0,-4.20653 c -3e-5,-1.09053 -0.45455,-2.02531 -1.36352,-2.80434 -0.85223,-0.77894 -1.84646,-1.16843 -2.98269,-1.16849 m 1.70441,5.76448 c -0.45456,0.41552 -1.02268,0.62324 -1.70441,0.62321 -0.68179,3e-5 -1.27832,-0.23365 -1.78962,-0.70109 -0.45452,-0.46733 -0.68178,-0.98667 -0.68175,-1.55797 -3e-5,-0.62314 0.22723,-1.16843 0.68175,-1.63588 0.5113,-0.46732 1.10783,-0.70104 1.78962,-0.70109 0.68173,5e-5 1.24985,0.23377 1.70441,0.70109 0.51128,0.46745 0.76692,1.01274 0.76698,1.63588 -6e-5,0.62324 -0.2557,1.16851 -0.76698,1.63585 m 9.62983,-5.76448 c -1.70443,0.0519 -3.12476,0.70116 -4.261,1.94746 -1.07948,1.19451 -1.61922,2.57071 -1.61917,4.12863 -5e-5,1.66188 0.53969,3.09001 1.61917,4.2844 1.13624,1.19449 2.55657,1.79171 4.261,1.79169 1.76116,2e-5 3.20991,-0.5972 4.34621,-1.79169 1.19302,-1.19439 1.78956,-2.62252 1.78962,-4.2844 -6e-5,-1.55792 -0.5966,-2.96009 -1.78962,-4.20651 -1.19314,-1.24634 -2.64186,-1.86952 -4.34621,-1.86958 m 4.17576,6.07609 c -4e-5,1.1945 -0.42614,2.20716 -1.2783,3.03803 -0.79543,0.83098 -1.76125,1.24642 -2.89746,1.24637 -1.13631,5e-5 -2.10213,-0.41539 -2.89748,-1.24637 -0.73861,-0.83087 -1.1079,-1.84353 -1.10786,-3.03803 -4e-5,-1.14247 0.39765,-2.1032 1.19309,-2.88225 0.79534,-0.83084 1.73275,-1.24632 2.81225,-1.24638 1.13621,6e-5 2.10203,0.41554 2.89746,1.24638 0.85216,0.77905 1.27826,1.73978 1.2783,2.88225 m 5.45408,-5.9203 c -0.90908,5e-5 -1.67605,0.31167 -2.30094,0.9348 -0.56817,0.62324 -0.85225,1.32433 -0.8522,2.10325 -5e-5,0.88291 0.28403,1.63592 0.8522,2.25906 0.56808,0.62324 1.33505,0.93482 2.30094,0.93479 0.85213,3e-5 1.5623,-0.31155 2.13048,-0.93479 0.56807,-0.67506 0.85214,-1.42808 0.85221,-2.25906 -7e-5,-0.77892 -0.31253,-1.48001 -0.93742,-2.10325 -0.62501,-0.62313 -1.30676,-0.93475 -2.04527,-0.9348 m 1.70438,3.03805 c -6e-5,0.51938 -0.17049,0.98677 -0.51131,1.40218 -0.34094,0.36357 -0.73863,0.54532 -1.19307,0.54529 -0.51139,3e-5 -0.96589,-0.18172 -1.36352,-0.54529 -0.39775,-0.41541 -0.59659,-0.8828 -0.59654,-1.40218 -5e-5,-0.46732 0.19879,-0.88279 0.59654,-1.24638 0.39763,-0.41539 0.85213,-0.62312 1.36352,-0.62318 0.39763,6e-5 0.7669,0.20779 1.10784,0.62318 0.39765,0.36359 0.59648,0.77906 0.59654,1.24638"
     sodipodi:nodetypes="ccccccccccccccccccsccccccccccccccccccccccccccccccccccccccccccccccccccccccccccccccccccccccccccccccccccccccccccccccccccccccccccccccccccccccccccccccccccccccccccccccccccccccccccccccccccccccccccccccccccccccccccccccccccccccccccccccccccccccccccccccccccccccccccccccccccccccccccccccccccccccccccccccccccccccccccccccccccccccc" />
  <path
     inkscape:connector-curvature="0"
     id="path3349"
     style="font-size:219.39880371px;font-style:normal;font-variant:normal;font-weight:normal;font-stretch:normal;line-height:125%;letter-spacing:0px;word-spacing:0px;fill:#1a1a1a;fill-opacity:1;stroke:none;font-family:Roke1984;-inkscape-font-specification:Roke1984"
     d="m 32.94586,287.49968 0,15.32579 -12.95538,0 0,-15.32579 12.95538,0 m -12.95538,72.60175 0,-53.80808 52.84164,0 0,53.80808 -52.84164,0 m 100.0727,-108.62296 c -1.1e-4,13.27499 -4.04654,24.79729 -12.1393,34.56694 -8.09296,9.76979 -18.12401,15.36314 -30.09322,16.78006 l -42.84458,0 0,-17.675 -14.9956,0 0,-85.46647 52.84164,0 0,0 c 13.05733,1.6e-4 24.17651,5.07146 33.35758,15.21393 9.24887,10.06817 13.87337,22.26167 13.87348,36.58054 m -77.12025,20.91915 c -1.5642,0.14924 -2.85633,0.78316 -3.87641,1.90174 -1.02015,1.04418 -1.53019,2.38658 -1.53016,4.02722 -3e-5,1.49164 0.54402,2.83404 1.63217,4.02721 1.08808,1.11875 2.34622,1.67808 3.7744,1.67801 0.74804,7e-5 1.73416,-0.29824 2.95832,-0.89494 l 0,0.89494 c -4e-5,0.89501 -0.30607,1.67808 -0.91811,2.34921 -0.54409,0.5967 -1.22415,0.89501 -2.04021,0.89493 -0.81612,8e-5 -1.53019,-0.29823 -2.14223,-0.89493 -0.54409,-0.67113 -0.81611,-1.4542 -0.81608,-2.34921 l -2.44826,0 c -3e-5,1.64079 0.51001,3.05777 1.53016,4.25095 1.08808,1.11874 2.38022,1.67808 3.87641,1.67801 1.42812,7e-5 2.65225,-0.59656 3.67239,-1.78988 1.08808,-1.19317 1.59813,-2.57287 1.53016,-4.13908 l 0,-5.92896 c -3e-5,-1.56605 -0.51009,-2.90846 -1.53016,-4.02721 -1.02014,-1.11859 -2.24427,-1.67792 -3.67239,-1.67801 m 2.04021,8.1663 c -0.54409,0.67128 -1.22415,1.00688 -2.04021,1.0068 -0.81612,8e-5 -1.53019,-0.33552 -2.14223,-1.0068 -0.54409,-0.67112 -0.81611,-1.4169 -0.81608,-2.23734 -3e-5,-0.96943 0.27199,-1.78979 0.81608,-2.46108 0.61204,-0.67112 1.32611,-1.00672 2.14223,-1.00681 0.81606,9e-5 1.49612,0.33569 2.04021,1.00681 0.61204,0.67129 0.91807,1.49165 0.91811,2.46108 -4e-5,0.82044 -0.30607,1.56622 -0.91811,2.23734 m 11.52723,-8.1663 c -2.04025,0.0747 -3.74043,1.00689 -5.10053,2.79668 -1.36019,1.71538 -2.04027,3.6544 -2.04023,5.81709 -4e-5,2.38657 0.68004,4.43747 2.04023,6.15269 1.3601,1.71536 3.06028,2.57301 5.10053,2.57294 2.10819,7e-5 3.84237,-0.85758 5.20257,-2.57294 1.4281,-1.71522 2.14217,-3.76612 2.14222,-6.15269 -5e-5,-2.23726 -0.71412,-4.21358 -2.14222,-5.92896 -1.42821,-1.78979 -3.16239,-2.68472 -5.20257,-2.68481 m 4.99854,8.61377 c -4e-5,1.71537 -0.5101,3.20693 -1.53015,4.47468 -0.95217,1.19332 -2.10828,1.78995 -3.46839,1.78987 -1.36018,8e-5 -2.51631,-0.59655 -3.46836,-1.78987 -0.88414,-1.26775 -1.32619,-2.75931 -1.32615,-4.47468 -4e-5,-1.56606 0.44201,-2.94575 1.32615,-4.13909 0.95205,-1.19316 2.10818,-1.78978 3.46836,-1.78987 1.36011,9e-5 2.51622,0.59671 3.46839,1.78987 1.02005,1.19334 1.53011,2.57303 1.53015,4.13909 m 6.5287,-8.39004 c -1.08817,9e-5 -2.00627,0.44756 -2.75429,1.34241 -0.68013,0.89502 -1.02017,1.90182 -1.02011,3.02041 -6e-5,1.19333 0.33998,2.27471 1.02011,3.24415 0.74802,0.89501 1.66612,1.34248 2.75429,1.3424 1.02006,8e-5 1.87014,-0.44739 2.55027,-1.3424 0.68002,-0.96944 1.02005,-2.05082 1.02012,-3.24415 -7e-5,-1.19316 -0.3741,-2.19997 -1.12213,-3.02041 -0.68012,-0.89485 -1.49621,-1.34232 -2.44826,-1.34241 m 1.42815,2.46108 c 0.40799,0.52213 0.61201,1.15604 0.61207,1.90174 -6e-5,0.74586 -0.20408,1.37978 -0.61207,1.90174 -0.40809,0.52213 -0.88415,0.78315 -1.42815,0.78307 -0.68012,8e-5 -1.25819,-0.26094 -1.73419,-0.78307 -0.40809,-0.52196 -0.61211,-1.15588 -0.61206,-1.90174 -5e-5,-0.7457 0.20397,-1.37961 0.61206,-1.90174 0.476,-0.59654 1.05407,-0.89485 1.73419,-0.89494 0.544,9e-5 1.02006,0.2984 1.42815,0.89494" />
  <path
     inkscape:connector-curvature="0"
     id="path3351"
     style="font-size:219.39880371px;font-style:normal;font-variant:normal;font-weight:normal;font-stretch:normal;line-height:125%;letter-spacing:0px;word-spacing:0px;fill:#1a1a1a;fill-opacity:1;stroke:none;font-family:Roke1984;-inkscape-font-specification:Roke1984"
     d="m 153.90588,275.40642 c -0.45844,-3.5608 -1.8992,-6.50398 -4.32225,-8.82955 -2.42308,-2.39806 -5.23908,-3.59713 -8.44801,-3.59723 l -0.19646,0 0,-63.22395 27.79985,0 c 9.3648,0.0728 18.33672,2.10762 26.91575,6.10438 8.6444,3.9244 16.14283,9.26573 22.49528,16.024 6.41779,6.75856 11.62411,14.78872 15.619,24.09051 3.9947,9.30202 6.25404,19.11262 6.77806,29.43184 l -86.64122,0 m -12.77026,15.69698 c 3.20893,7e-5 6.02493,-1.16267 8.44801,-3.48822 2.42305,-2.39807 3.86381,-5.34126 4.32225,-8.82955 l 86.64122,0 0,1.30808 c -1e-4,10.90075 -1.89928,21.29272 -5.6975,31.17595 -3.79842,9.81065 -8.90651,18.31317 -15.3243,25.5076 -6.35246,7.12179 -13.98185,12.79014 -22.88821,17.00506 -8.84101,4.21493 -18.14035,6.35873 -27.89808,6.4314 l -0.19646,0 -0.19648,0 -27.40691,0 0,-69.11032 0.19646,0 m 23.77231,-36.8443 c -3.14347,0.14544 -5.07537,1.99856 -5.79572,5.55934 l 2.16111,0.43603 c 0.13095,-1.0173 0.52389,-1.81668 1.1788,-2.39815 0.65486,-0.65394 1.47347,-0.98096 2.45581,-0.98106 1.37523,10e-5 2.22658,0.79948 2.55405,2.39815 0.39291,1.52619 -3e-5,2.68893 -1.17879,3.48822 -0.7204,0.50879 -1.70273,1.05383 -2.94697,1.6351 -1.24432,0.58146 -2.19389,1.19917 -2.84876,1.85312 -1.04784,1.09016 -1.57174,2.65259 -1.57172,4.68729 l 10.2162,0 0,-2.39815 -7.46568,0 c 0.45839,-0.58128 0.94955,-1.01731 1.47348,-1.30808 0.58937,-0.36327 1.30975,-0.72662 2.16114,-1.09007 0.8513,-0.36326 1.60442,-0.76295 2.25934,-1.19907 0.98229,-0.72662 1.63717,-1.70768 1.96464,-2.94319 0.39291,-1.30798 0.39291,-2.54339 0,-3.70623 -0.6549,-2.68873 -2.19388,-4.03315 -4.61693,-4.03325 m 19.74478,2.61616 0,-2.39815 -14.14551,0 0,2.39815 2.06288,0 0,14.06188 2.45583,0 0,-14.06188 5.40279,0 0,14.06188 2.16112,0 0,-14.06188 2.06289,0" />
  <path
     inkscape:connector-curvature="0"
     id="path3353"
     style="font-size:219.39880371px;font-style:normal;font-variant:normal;font-weight:normal;font-stretch:normal;line-height:125%;letter-spacing:0px;word-spacing:0px;fill:#1a1a1a;fill-opacity:1;stroke:none;font-family:Roke1984;-inkscape-font-specification:Roke1984"
     d="m 379.19173,199.684 -28.38595,78.41884 -82.57729,0 -28.38595,-78.41884 68.50162,0 0,66.00159 2.34595,0 0,-66.00159 68.50162,0 m -28.38595,81.88672 28.38595,78.53071 -68.50162,0 0,-65.33039 -2.34595,0 0,65.33039 -68.50162,0 28.38595,-78.53071 82.57729,0 m -57.12378,34.11947 -3.87081,5.70522 -4.1054,-5.70522 -3.04973,0 5.51297,8.1663 -5.86487,8.27816 3.16703,0 4.34,-5.92895 4.10541,5.92895 3.04972,0 -5.74756,-8.27816 5.51297,-8.1663 -3.04973,0 m 9.38379,5.25775 c 1.40749,-0.96947 1.87668,-2.16272 1.40756,-3.57974 -0.39106,-1.41694 -1.44673,-2.12543 -3.16703,-2.12548 -2.11142,5e-5 -3.40168,1.11872 -3.8708,3.35601 l 1.99405,0.22374 c 0.23453,-1.19321 0.86012,-1.78983 1.87675,-1.78987 0.78192,4e-5 1.25111,0.33564 1.40757,1.0068 0.23453,0.67124 0.0782,1.19329 -0.46919,1.56614 -0.46926,0.29835 -1.13394,0.63395 -1.99405,1.0068 -0.86025,0.29835 -1.44673,0.55938 -1.75946,0.78307 -0.70384,0.59667 -1.05574,1.60347 -1.05567,3.02041 l 7.03783,0 0,-1.90174 -4.34,0 c 0.23454,-0.22369 0.50822,-0.41014 0.82109,-0.55933 0.39092,-0.2237 0.78191,-0.41014 1.17296,-0.55934 0.46912,-0.22369 0.78192,-0.37285 0.93839,-0.44747 m 22.52107,-95.98197 -3.87081,5.70522 -3.9881,-5.70522 -3.16703,0 5.51297,8.1663 -5.74756,8.27816 3.04972,0 4.34,-5.92895 4.10541,5.92895 3.16703,0 -5.74757,-8.27816 5.51297,-8.1663 -3.16703,0 m 6.21677,-0.22374 c -10e-5,0.74592 -0.1565,1.19339 -0.4692,1.34241 -0.31289,0.14929 -0.93847,0.22387 -1.87675,0.22373 l 0,1.78988 2.11135,0 0,5.59335 2.22865,0 0,-8.94937 -1.99405,0" />
</svg>
