<?xml version="1.0" encoding="UTF-8" standalone="no"?>
<!-- Generator: Adobe Illustrator 14.0.0, SVG Export Plug-In . SVG Version: 6.00 Build 43363)  -->

<svg
   xmlns:dc="http://purl.org/dc/elements/1.1/"
   xmlns:cc="http://creativecommons.org/ns#"
   xmlns:rdf="http://www.w3.org/1999/02/22-rdf-syntax-ns#"
   xmlns:svg="http://www.w3.org/2000/svg"
   xmlns="http://www.w3.org/2000/svg"
   xmlns:sodipodi="http://sodipodi.sourceforge.net/DTD/sodipodi-0.dtd"
   xmlns:inkscape="http://www.inkscape.org/namespaces/inkscape"
   version="1.1"
   id="Layer_1"
   x="0px"
   y="0px"
   width="401.00015"
   height="243.04298"
   viewBox="0 0 401.00015 243.04298"
   enable-background="new 0 0 828 591"
   xml:space="preserve"
   inkscape:version="0.48.2 r9819"
   sodipodi:docname="rainbow.svg"><metadata
   id="metadata23"><rdf:RDF><cc:Work
       rdf:about=""><dc:format>image/svg+xml</dc:format><dc:type
         rdf:resource="http://purl.org/dc/dcmitype/StillImage" /><dc:title></dc:title></cc:Work></rdf:RDF></metadata><defs
   id="defs21"><linearGradient
     id="linearGradient4183"><stop
       id="stop4185"
       offset="0"
       style="stop-color:#ffc0cb;stop-opacity:1;" /><stop
       style="stop-color:#ffc0cb;stop-opacity:0.49803922;"
       offset="0.11504425"
       id="stop4191" /><stop
       id="stop4193"
       offset="0.28733653"
       style="stop-color:#ffc0cb;stop-opacity:0.24705882;" /><stop
       id="stop4187"
       offset="1"
       style="stop-color:#ffc0cb;stop-opacity:0;" /></linearGradient><inkscape:perspective
     id="perspective14"
     inkscape:persp3d-origin="131.5 : 61 : 1"
     inkscape:vp_z="263 : 91.5 : 1"
     inkscape:vp_y="0 : 1000 : 0"
     inkscape:vp_x="0 : 91.5 : 1"
     sodipodi:type="inkscape:persp3d" /></defs><sodipodi:namedview
   pagecolor="#ffffff"
   bordercolor="#666666"
   borderopacity="1"
   objecttolerance="10"
   gridtolerance="10"
   guidetolerance="10"
   inkscape:pageopacity="0"
   inkscape:pageshadow="2"
   inkscape:window-width="1223"
   inkscape:window-height="982"
   id="namedview19"
   showgrid="false"
   fit-margin-top="20"
   fit-margin-left="20"
   fit-margin-right="20"
   fit-margin-bottom="20"
   showborder="false"
   inkscape:zoom="1.5555556"
   inkscape:cx="159.45284"
   inkscape:cy="145.48225"
   inkscape:window-x="3085"
   inkscape:window-y="238"
   inkscape:window-maximized="0"
   inkscape:current-layer="Layer_1" />
<g
   id="g3"
   transform="translate(-5.9577443,-18.907)">
	<path
   d="m 206.458,38.907 c -77.292,0 -139.836,62.543 -139.836,139.836 h 77.705 c 0,-34.416 27.786,-62.131 62.131,-62.131 34.345,0 62.131,27.715 62.131,62.131 h 77.705 C 346.294,101.45 283.75,38.907 206.458,38.907 z"
   id="path5"
   inkscape:connector-curvature="0"
   style="fill:#e0e9f6" />
	<path
   d="m 299.655,178.743 h -15.492 c 0,-42.876 -34.758,-77.705 -77.705,-77.705 -42.947,0 -77.705,34.829 -77.705,77.705 h -15.492 c 0,-51.478 41.649,-93.268 93.197,-93.268 51.549,0 93.197,41.79 93.197,93.268 z"
   id="path7"
   inkscape:connector-curvature="0"
   style="fill:#9ed089" />
	<path
   d="m 315.229,178.743 h -15.573 c 0,-51.478 -41.648,-93.268 -93.197,-93.268 -51.548,0 -93.197,41.79 -93.197,93.268 H 97.688 c 0,-60.089 48.681,-108.7 108.771,-108.7 60.089,0 108.77,48.611 108.77,108.7 z"
   id="path9"
   inkscape:connector-curvature="0"
   style="fill:#ffcd78" />
	<path
   d="m 330.731,178.743 h -15.503 c 0,-60.089 -48.681,-108.7 -108.771,-108.7 -60.089,0 -108.771,48.611 -108.771,108.7 H 82.185 c 0,-68.69 55.583,-124.273 124.273,-124.273 68.691,0 124.273,55.582 124.273,124.273 z"
   id="path11"
   inkscape:connector-curvature="0"
   style="fill:#f89a54" />
	<path
   d="m 346.294,178.743 h -15.563 c 0,-68.69 -55.582,-124.273 -124.273,-124.273 -68.69,0 -124.273,55.583 -124.273,124.273 H 66.622 c 0,-77.292 62.544,-139.836 139.836,-139.836 77.292,0 139.836,62.543 139.836,139.836 z"
   id="path13"
   inkscape:connector-curvature="0"
   style="fill:#ef444e" />
	<path
   d="m 369.03,180.979 c 19.889,-18.988 -13.354,-37.844 -27.658,-20.111 -12.507,-18.931 -47.823,-14.388 -53.199,8.623 -9.004,-15.539 -44.177,-11.515 -31.499,20.74 -28.95,8.817 -3.471,59.468 28.023,36.498 8.921,22.698 67.744,17.712 73.958,-5.136 26.689,3.465 41.377,-31.33 10.375,-40.614 z"
   id="path15"
   inkscape:connector-curvature="0"
   style="fill:#e0e9f6;stroke:#bfddf4" />
	<path
   d="m 43.885,180.979 c -19.888,-18.988 13.355,-37.844 27.659,-20.111 12.506,-18.931 47.823,-14.388 53.199,8.623 9.004,-15.539 44.177,-11.515 31.499,20.74 28.951,8.817 3.471,59.468 -28.023,36.498 -8.92,22.698 -67.744,17.712 -73.958,-5.136 -26.688,3.465 -41.378,-31.33 -10.376,-40.614 z"
   id="path17"
   inkscape:connector-curvature="0"
   style="fill:#e0e9f6;stroke:#bfddf4" />
</g>
<text
   xml:space="preserve"
   style="font-size:39.85797119px;font-style:normal;font-variant:normal;font-weight:normal;font-stretch:normal;line-height:125%;letter-spacing:0px;word-spacing:0px;fill:#501616;fill-opacity:1;stroke:none;font-family:Roke1984;-inkscape-font-specification:Roke1984"
   x="79.152916"
   y="165.05933"
   id="text3000"
   sodipodi:linespacing="125%"
   transform="matrix(0.97676128,0.21433014,-0.21433014,0.97676128,0,0)"><tspan
     sodipodi:role="line"
     id="tspan3002"
     x="79.152916"
     y="165.05933">node</tspan></text>
<text
   xml:space="preserve"
   style="font-size:47.67240524px;font-style:normal;font-variant:normal;font-weight:normal;font-stretch:normal;line-height:125%;letter-spacing:0px;word-spacing:0px;fill:#501616;fill-opacity:1;stroke:none;font-family:Roke1984;-inkscape-font-specification:Roke1984"
   x="217.92587"
   y="262.32956"
   id="text3004"
   sodipodi:linespacing="125%"
   transform="matrix(0.96890164,-0.24744617,0.24744617,0.96890164,0,0)"><tspan
     sodipodi:role="line"
     id="tspan3006"
     x="217.92587"
     y="262.32956">PDX</tspan></text>
<g
   transform="translate(45.524215,0.00257134)"
   style="fill:#501616;display:inline"
   inkscape:label="unicorn"
   id="layer2"><path
     sodipodi:nodetypes="cssssssssssssssscccssssssssssssssssssccccccsssssssssssssssssssssssssssssscccscccsssssscsssscccsssssccssccssssscccssssssccssssscccsscccccssccssccssccssc"
     id="path2222"
     d="m 170.44658,169.90774 c -3.97186,-1.108 0.56301,-8.8977 5.19795,-8.9287 4.46899,-0.0299 4.82043,-0.9636 4.42177,-11.7482 -0.43156,-11.67521 -0.64345,-12.03581 -11.32594,-19.27851 -7.77056,-5.2685 -13.84924,-12.2854 -16.6757,-19.24961 -1.16307,-2.8658 -2.4881,-5.5553 -2.94453,-5.9767 -0.45641,-0.4214 -5.54699,-0.4013 -11.31239,0.0446 -6.75384,0.5224 -12.51639,0.4545 -16.2003,-0.1907 -5.67114,-0.9934 -8.09612,-2.0234 -20.96509,-8.904799 -6.49138,-3.471201 -6.862861,-3.550501 -13.817906,-2.950301 -3.930964,0.3392 -9.56437,1.069 -12.518694,1.6218 -5.193901,0.971801 -5.390478,1.120001 -5.9455,4.480802 -1.498518,9.074098 0.237812,14.450508 4.666792,14.450508 1.293527,0 2.725272,0.8054 3.281323,1.8459 1.284959,2.4044 1.277622,9.6059 -0.0098,9.6059 -1.169977,0 -5.674441,-4.3321 -5.674441,-5.4573 0,-0.4248 -1.608117,-1.7685 -3.573595,-2.986 l -3.573595,-2.2135 -0.211957,-11.00691 c -0.116575,-6.053799 0.201485,-11.780501 0.706791,-12.726001 0.505316,-0.9456 2.316022,-1.999 4.023801,-2.3411 5.594221,-1.120501 12.158142,-3.486001 12.158142,-4.381502 0,-0.4827 -0.413737,-0.8776 -0.919424,-0.8776 -1.31816,0 -2.669028,-2.865301 -4.291116,-9.101802 -1.160504,-4.461801 -1.217166,-6.596602 -0.314905,-11.865703 1.01776,-5.943602 0.944668,-6.723802 -0.975487,-10.413003 -1.141634,-2.193301 -2.075695,-4.751502 -2.075695,-5.684802 0,-0.9332 -0.629602,-2.5304 -1.399126,-3.549301 -1.687518,-2.2342 -1.795992,-1.6717 -0.432795,2.244401 0.784685,2.2541 0.664279,4.730801 -0.510366,10.498103 -0.923465,4.534201 -1.287858,9.110402 -0.912563,11.460703 0.716215,4.485301 -0.867669,6.868202 -4.565187,6.868202 -3.854594,0 -6.240002,-2.506101 -7.359071,-7.731602 -0.573824,-2.679401 -2.830696,-8.370203 -5.015279,-12.646204 -2.18459,-4.275901 -4.245259,-8.390002 -4.57927,-9.142302 -0.334013,-0.752301 -2.0795,-1.864201 -3.878875,-2.470901 -2.517479,-0.8488 -3.271585,-1.6334 -3.271585,-3.403701 0,-2.0724 0.349974,-2.2701 3.52692,-1.9928 l 3.526919,0.3079 -0.889977,-3.107601 c -1.170424,-4.086901 -0.546389,-4.497201 2.927603,-1.925101 l 2.87378,2.127701 2.426308,-1.911201 c 1.334468,-1.0512 3.695385,-3.665701 5.246477,-5.810001 3.677858,-5.084302 6.017762,-5.905602 13.210618,-4.636801 4.421413,0.7799 6.107445,0.7431 7.190388,-0.1569 C 80.470075,20.0504 81.100104,19.896 81.09208,20.3539 c -0.02472,1.410201 -1.329511,2.848801 -3.218914,3.549001 -3.563655,1.320701 -0.581104,1.769101 4.172064,0.627201 4.648036,-1.116701 5.011828,-1.055901 8.602542,1.436 2.659132,1.8454 4.573292,2.480801 6.583343,2.185301 3.578715,-0.525901 2.777085,0.9114 -1.508328,2.7045 -1.791591,0.7496 -3.010426,1.763201 -2.708508,2.252401 0.331753,0.5376 1.446515,0.4799 2.817698,-0.1457 1.738324,-0.7932 3.329718,-0.6732 6.806443,0.5131 2.49572,0.8516 5.53336,1.5484 6.75031,1.5484 3.06931,0 2.76484,1.573601 -0.64624,3.340101 -1.57239,0.8142 -2.85888,1.663901 -2.85888,1.888101 0,0.2243 2.0732,0.1618 4.60712,-0.1387 4.23389,-0.5022 4.97842,-0.2626 9.19056,2.957201 2.5209,1.927 5.16484,3.2802 5.87543,3.0071 2.37384,-0.9122 1.32759,0.3305 -1.51958,1.804901 -1.54635,0.8008 -3.6905,1.456 -4.76479,1.456 -2.80402,0 -2.4523,1.485601 1.95587,8.261202 4.19624,6.449802 9.12394,9.670203 18.00895,11.769304 14.15829,3.345101 22.76818,5.629601 25.45368,6.753701 2.65762,1.112601 3.5042,1.068101 6.4496,-0.3384 1.93631,-0.9247 3.83606,-2.7478 4.42947,-4.250701 2.2196,-5.621801 3.7029,-7.482402 7.67396,-9.626102 5.72208,-3.089001 13.45474,-2.565401 16.62515,1.1257 2.25714,2.627801 2.4141,3.272901 4.13213,16.982604 1.4079,11.234803 3.38443,17.396405 6.84753,21.346304 2.71515,3.0968 3.30706,3.3266 8.56632,3.3266 7.14937,0 11.88768,-1.925 15.88361,-6.453099 l 3.14798,-3.567201 -1.5286,3.817301 c -1.58031,3.946399 -6.19957,9.388499 -9.53216,11.230199 -1.04825,0.5793 -4.05008,1.5812 -6.67071,2.22631 l -4.76479,1.173 5.8217,0.0812 c 4.59412,0.0641 6.94209,-0.4848 11.13514,-2.60281 4.77167,-2.4103 5.20942,-2.4893 4.29317,-0.7748 -1.68772,3.15801 -9.37971,10.96341 -13.03124,13.22341 -2.7409,1.6964 -4.87126,2.1212 -10.73255,2.1404 -6.7699,0.0221 -7.58483,-0.1956 -10.97616,-2.9319 -2.01482,-1.6258 -8.14774,-2.6538 -9.38107,-12.17051 -0.69521,-5.3643 0,-16.8399 0,-16.8399 0,0 1.69534,-9.724303 -0.59467,-16.715104 -1.78452,-5.447702 -7.74388,-8.173103 -11.7362,-1.923201 -1.83498,2.872601 -4.1508,5.732302 -5.14627,6.354902 -1.75681,1.0987 -1.74127,1.2645 0.52902,5.646601 3.28948,6.349302 3.69057,13.699402 1.35144,24.765402 l -1.91633,9.06601 2.32419,3.3917 c 1.27832,1.8654 3.82505,4.8483 5.65939,6.6288 3.77153,3.6607 3.89894,4.7909 2.71845,24.11181 -0.53316,8.7264 -0.85599,10.1569 -2.3824,10.5566 -0.9711,0.2543 -1.76564,1.1178 -1.76564,1.9189 0,0.8011 -0.75046,1.6773 -1.66768,1.9471 -3.08002,0.906 -8.32376,1.3869 -10.00606,0.9176 z M 53.470881,50.176208 c 0,-1.7197 -0.222554,-1.8405 -1.474542,-0.7999 -1.177761,0.9788 -1.225714,1.383601 -0.238239,2.010801 1.700355,1.0802 1.712781,1.0714 1.712781,-1.210901 z M 124.22808,160.03154 c -1.17929,-0.4867 -2.14416,-1.3613 -2.14416,-1.9435 0,-1.6588 5.39125,-6.6375 7.18747,-6.6375 2.00149,0 12.37838,-6.12011 15.92177,-9.39031 4.48999,-4.1438 3.43699,-9.6294 -3.62752,-18.8976 -2.81616,-3.6946 -6.95599,-14.15761 -5.98601,-15.12891 0.18184,-0.1821 2.89427,-0.4723 6.02762,-0.645 l 5.697,-0.3139 3.04106,5.72591 c 3.90173,7.3463 3.58163,6.6131 6.04068,13.8376 3.76429,11.0591 3.8288,10.7111 -2.94932,15.9101 -3.30391,2.5342 -7.52876,5.9317 -9.38858,7.55001 -1.85981,1.6183 -4.13837,3.2178 -5.06345,3.5543 -0.92509,0.3365 -2.07792,1.6547 -2.56185,2.9293 -0.48393,1.2747 -1.22796,2.5245 -1.65339,2.7774 -1.78234,1.0594 -8.55661,1.4914 -10.54132,0.6721 z M 37.270584,117.99023 c 0,-2.1572 2.636331,-10.74321 4.234196,-13.79001 0.553897,-1.0561 3.010929,-4.928998 5.460081,-8.606299 2.449151,-3.677401 4.720271,-7.751902 5.046936,-9.054403 0.500017,-1.9938 2.05617,-2.879401 9.841376,-5.600801 5.086092,-1.778001 9.697851,-3.401401 10.248346,-3.607701 0.550496,-0.2063 1.691454,1.0751 2.535461,2.847501 l 1.534559,3.2226 -8.729693,2.643201 c -10.037256,3.039001 -11.976803,4.508401 -15.339699,11.621003 -1.537323,3.251499 -3.292129,5.485599 -4.742532,6.037799 -3.087758,1.1757 -3.801572,3.9459 -2.079947,8.07221 l 1.422396,3.4092 -3.507517,2.3868 c -4.264642,2.902 -5.923963,3.0193 -5.923963,0.4189 z m -4.54059,-80.397325 c -3.902379,-1.7438 -2.359965,-4.921301 1.806275,-3.721101 2.012411,0.5797 2.200925,0.9576 1.333751,2.674001 -0.831265,1.6453 -1.386697,1.8305 -3.140026,1.0471 z m -7.052012,-2.341601 c -2.686188,-0.5687 -2.968273,-3.0902 -0.34571,-3.0902 1.262935,0 2.507675,0.3426 2.766088,0.7613 0.773157,1.2528 -0.719504,2.689001 -2.420378,2.3289 z m -7.466569,-3.537401 c 0,-0.8537 0.558709,-1.1868 1.429439,-0.8522 1.849889,0.7109 1.849889,2.253701 0,2.253701 -0.786192,0 -1.429439,-0.6307 -1.429439,-1.401501 z m -4.764793,-1.4315 c 0,-0.5084 0.643247,-0.6771 1.429438,-0.375 1.830319,0.7033 1.830319,1.2994 0,1.2994 -0.786191,0 -1.429438,-0.416 -1.429438,-0.9244 z"
     style="fill:#501616;fill-opacity:1"
     inkscape:connector-curvature="0" /></g></svg>