<?xml version="1.0" encoding="UTF-8" standalone="no"?>
<svg
   xmlns:dc="http://purl.org/dc/elements/1.1/"
   xmlns:cc="http://creativecommons.org/ns#"
   xmlns:rdf="http://www.w3.org/1999/02/22-rdf-syntax-ns#"
   xmlns:svg="http://www.w3.org/2000/svg"
   xmlns="http://www.w3.org/2000/svg"
   xmlns:sodipodi="http://sodipodi.sourceforge.net/DTD/sodipodi-0.dtd"
   xmlns:inkscape="http://www.inkscape.org/namespaces/inkscape"
   version="1.0"
   width="384.32739"
   height="384.327"
   id="svg2"
   inkscape:version="0.48.2 r9819"
   sodipodi:docname="sticker1.svg">
  <metadata
     id="metadata42">
    <rdf:RDF>
      <cc:Work
         rdf:about="">
        <dc:format>image/svg+xml</dc:format>
        <dc:type
           rdf:resource="http://purl.org/dc/dcmitype/StillImage" />
        <dc:title></dc:title>
      </cc:Work>
    </rdf:RDF>
  </metadata>
  <defs
     id="defs40">
    <inkscape:perspective
       id="perspective3000"
       inkscape:persp3d-origin="150 : 91.666667 : 1"
       inkscape:vp_z="300 : 137.5 : 1"
       inkscape:vp_y="0 : 1000 : 0"
       inkscape:vp_x="0 : 137.5 : 1"
       sodipodi:type="inkscape:persp3d" />
  </defs>
  <sodipodi:namedview
     pagecolor="#ffffff"
     bordercolor="#666666"
     borderopacity="1"
     objecttolerance="10"
     gridtolerance="10"
     guidetolerance="10"
     inkscape:pageopacity="0"
     inkscape:pageshadow="2"
     inkscape:window-width="1328"
     inkscape:window-height="957"
     id="namedview38"
     showgrid="false"
     showborder="false"
     showguides="true"
     inkscape:guide-bbox="true"
     inkscape:zoom="0.46825397"
     inkscape:cx="791.18187"
     inkscape:cy="281.71255"
     inkscape:window-x="2924"
     inkscape:window-y="312"
     inkscape:window-maximized="0"
     inkscape:current-layer="svg2"
     fit-margin-top="0"
     fit-margin-left="0"
     fit-margin-right="0"
     fit-margin-bottom="0" />
  <rect
     x="0"
     y="0"
     width="384.32739"
     height="384.327"
     id="rect4"
     style="fill:#131313" />
  <rect
     x="0.32739258"
     y="0.46823883"
     width="96"
     height="215.85875"
     id="rect12"
     style="fill:#00c000" />
  <rect
     x="96.327393"
     y="0.46823883"
     width="96"
     height="215.85875"
     id="rect14"
     style="fill:#c000c0" />
  <rect
     x="192.32739"
     y="0.46823883"
     width="96"
     height="215.85875"
     id="rect16"
     style="fill:#c00000" />
  <rect
     x="288.32739"
     y="0.46823883"
     width="96"
     height="215.85875"
     id="rect18"
     style="fill:#0000c0" />
  <rect
     x="96.327393"
     y="216.32698"
     width="96"
     height="42"
     id="rect24"
     style="fill:#00c0c0" />
  <rect
     x="288.32739"
     y="216.32698"
     width="96"
     height="42"
     id="rect26"
     style="fill:#c0c0c0" />
  <rect
     x="0.32739258"
     y="258.32697"
     width="126.79542"
     height="126"
     id="rect28"
     style="fill:#00214c" />
  <rect
     x="127.30722"
     y="258.32697"
     width="129.8156"
     height="126"
     id="rect30"
     style="fill:#ffffff" />
  <rect
     x="258.55219"
     y="258.32697"
     width="123.77523"
     height="126"
     id="rect32"
     style="fill:#32006a" />
  <path
     inkscape:connector-curvature="0"
     id="path3036"
     style="font-size:126.34824371px;font-style:normal;font-variant:normal;font-weight:normal;font-stretch:normal;line-height:125%;letter-spacing:0px;word-spacing:0px;fill:#ffff00;fill-opacity:1;stroke:none;font-family:Roke1984;-inkscape-font-specification:Roke1984"
     d="m 38.796663,326.63836 0,9.6783 -8.97185,0 0,-9.6783 8.97185,0 m -8.97185,45.84829 0,-33.98001 36.59386,0 0,33.98001 -36.59386,0 m 69.30227,-68.59582 c -8e-5,8.38321 -2.80231,15.65958 -8.40671,21.82915 -5.60452,6.16966 -12.55123,9.70188 -20.84012,10.59668 l -29.6707,0 0,-11.16184 -10.38474,0 0,-53.97241 36.59386,0 0,0 c 9.04244,10e-5 16.74268,3.20265 23.10074,9.60766 6.40504,6.3581 9.60759,14.05834 9.60767,23.10076 m -53.40726,13.21052 c -1.08324,0.0943 -1.97807,0.49457 -2.68449,1.20096 -0.70646,0.6594 -1.05968,1.50713 -1.05967,2.5432 -10e-6,0.94197 0.37675,1.78972 1.13031,2.54321 0.75353,0.70648 1.62481,1.05971 2.61385,1.05966 0.51804,5e-5 1.20094,-0.18834 2.04869,-0.56516 l 0,0.56516 c -2e-5,0.56521 -0.21195,1.05971 -0.6358,1.48353 -0.37679,0.37682 -0.84775,0.56521 -1.41289,0.56516 -0.56518,5e-5 -1.05969,-0.18834 -1.48354,-0.56516 -0.37678,-0.42382 -0.56517,-0.91832 -0.56515,-1.48353 l -1.69547,0 c -10e-6,1.03617 0.35321,1.931 1.05967,2.68449 0.75352,0.70649 1.64835,1.05971 2.68449,1.05967 0.989,4e-5 1.83674,-0.37673 2.5432,-1.13031 0.75352,-0.7535 1.10674,-1.62478 1.05968,-2.61385 l 0,-3.74416 c -4e-5,-0.98897 -0.35325,-1.8367 -1.05968,-2.5432 -0.70646,-0.70639 -1.5542,-1.05962 -2.5432,-1.05967 m 1.41289,5.15705 c -0.37679,0.42391 -0.84775,0.63584 -1.41289,0.6358 -0.56518,4e-5 -1.05969,-0.21189 -1.48354,-0.6358 -0.37678,-0.42382 -0.56517,-0.89478 -0.56515,-1.41289 -2e-5,-0.6122 0.18837,-1.13026 0.56515,-1.55418 0.42385,-0.42381 0.91836,-0.63575 1.48354,-0.6358 0.56514,5e-5 1.0361,0.21199 1.41289,0.6358 0.42385,0.42392 0.63578,0.94198 0.6358,1.55418 -2e-5,0.51811 -0.21195,0.98907 -0.6358,1.41289 m 7.98283,-5.15705 c -1.41291,0.0472 -2.59033,0.63586 -3.53222,1.76611 -0.94196,1.08328 -1.41293,2.30778 -1.41289,3.67351 -4e-5,1.50713 0.47093,2.80229 1.41289,3.88546 0.94189,1.08326 2.11931,1.62486 3.53222,1.62483 1.45995,3e-5 2.66091,-0.54157 3.60287,-1.62483 0.98899,-1.08317 1.4835,-2.37833 1.48353,-3.88546 -3e-5,-1.41283 -0.49454,-2.66089 -1.48353,-3.74415 -0.98906,-1.13026 -2.19001,-1.69542 -3.60287,-1.69547 m 3.46158,5.43962 c -3e-5,1.08327 -0.35326,2.0252 -1.05966,2.82578 -0.65939,0.7536 -1.46003,1.13037 -2.40192,1.13032 -0.94195,5e-5 -1.7426,-0.37672 -2.40192,-1.13032 -0.61227,-0.80058 -0.9184,-1.74251 -0.91837,-2.82578 -3e-5,-0.98896 0.3061,-1.86025 0.91837,-2.61383 0.65932,-0.7535 1.45997,-1.13026 2.40192,-1.13032 0.94189,6e-5 1.74253,0.37682 2.40192,1.13032 0.7064,0.75358 1.05963,1.62487 1.05966,2.61383 m 4.52125,-5.29833 c -0.75357,5e-5 -1.38937,0.28263 -1.9074,0.84773 -0.471,0.56521 -0.70649,1.20101 -0.70645,1.90741 -4e-5,0.75359 0.23545,1.43649 0.70645,2.04869 0.51803,0.5652 1.15383,0.84777 1.9074,0.84773 0.7064,4e-5 1.29512,-0.28253 1.76611,-0.84773 0.47092,-0.6122 0.70641,-1.2951 0.70645,-2.04869 -4e-5,-0.75349 -0.25907,-1.38929 -0.77709,-1.90741 -0.47101,-0.5651 -1.03615,-0.84768 -1.69547,-0.84773 m 0.98902,1.55418 c 0.28254,0.32973 0.42383,0.73005 0.42387,1.20096 -4e-5,0.47101 -0.14133,0.87133 -0.42387,1.20095 -0.28262,0.32973 -0.61229,0.49457 -0.98902,0.49451 -0.471,6e-5 -0.87132,-0.16478 -1.20096,-0.49451 -0.28261,-0.32962 -0.4239,-0.72994 -0.42387,-1.20095 -3e-5,-0.47091 0.14126,-0.87123 0.42387,-1.20096 0.32964,-0.37672 0.72996,-0.5651 1.20096,-0.56516 0.37673,6e-5 0.7064,0.18844 0.98902,0.56516" />
  <path
     inkscape:connector-curvature="0"
     id="path3038"
     style="font-size:126.34824371px;font-style:normal;font-variant:normal;font-weight:normal;font-stretch:normal;line-height:125%;letter-spacing:0px;word-spacing:0px;fill:#ff5555;fill-opacity:1;stroke:none;font-family:Roke1984;-inkscape-font-specification:Roke1984"
     d="m 193.68382,319.26907 c 2.23312,-0.31904 4.07887,-1.32167 5.53731,-3.00791 1.50389,-1.68626 2.25587,-3.64597 2.25593,-5.8791 l 0,-0.13673 39.64978,0 0,19.34635 c -0.0456,6.51711 -1.32176,12.76083 -3.82826,18.73111 -2.4611,6.01578 -5.81083,11.23403 -10.04917,15.65483 -4.23849,4.46624 -9.27448,8.0894 -15.10793,10.86951 -5.8336,2.77996 -11.98613,4.35228 -18.45766,4.71694 l 0,-60.295 m -9.84408,-8.887 c -4e-5,2.23313 0.72916,4.19283 2.18757,5.8791 1.50392,1.68623 3.34968,2.68887 5.53731,3.0079 l 0,60.295 -0.82035,0 c -6.8362,-9e-5 -13.35335,-1.32173 -19.55144,-3.96496 -6.15257,-2.6434 -11.48478,-6.19818 -15.99663,-10.66443 -4.4663,-4.42077 -8.02111,-9.73021 -10.66443,-15.92829 -2.64331,-6.15258 -3.98776,-12.62414 -4.03333,-19.41471 l 0,-0.13671 0,-0.13673 0,-19.0729 43.3413,0 0,0.13673 m 23.10626,16.54352 c -0.0912,-2.18759 -1.25337,-3.53204 -3.48644,-4.03335 l -0.27344,1.50397 c 0.63798,0.0911 1.13929,0.36457 1.50394,0.82033 0.41012,0.45572 0.6152,1.02542 0.61525,1.70905 -6e-5,0.95704 -0.50137,1.54951 -1.50394,1.7774 -0.95713,0.27341 -1.68633,-2e-5 -2.18757,-0.82034 -0.31909,-0.50135 -0.66091,-1.18498 -1.02544,-2.05086 -0.36465,-0.86595 -0.75203,-1.52677 -1.16215,-1.98248 -0.68367,-0.72922 -1.66352,-1.0938 -2.93955,-1.09378 l 0,7.10962 1.50395,0 0,-5.1955 c 0.36454,0.31901 0.63799,0.66082 0.82034,1.02544 0.22782,0.41014 0.45569,0.91146 0.68362,1.50395 0.22781,0.59244 0.47847,1.11655 0.75198,1.57231 0.45568,0.6836 1.07093,1.13935 1.84576,1.36724 0.82029,0.27342 1.59505,0.27342 2.3243,0 1.68619,-0.45577 2.52932,-1.52677 2.52939,-3.213 m -1.64069,13.7407 1.50396,0 0,-9.84409 -1.50396,0 0,1.43559 -8.81865,0 0,1.70904 8.81865,0 0,3.75989 -8.81865,0 0,1.50394 8.81865,0 0,1.43561" />
  <path
     id="polygon2992"
     d="m 320.56318,276.37783 -11.46168,33.9898 -35.57072,0 28.45658,21.34243 -10.27599,33.9898 28.85181,-20.15674 28.85181,20.15674 -10.27599,-33.9898 28.45658,-21.34243 -35.57072,0 -11.46168,-33.9898 z"
     style="color:#0000ff;fill:#f8d64e;fill-opacity:1;stroke:#000000;stroke-width:0;stroke-miterlimit:4;stroke-opacity:1;stroke-dasharray:none"
     inkscape:connector-curvature="0" />
  <path
     inkscape:connector-curvature="0"
     id="path3144"
     style="font-size:144.23509216px;font-style:normal;font-variant:normal;font-weight:normal;font-stretch:normal;line-height:125%;letter-spacing:0px;word-spacing:0px;fill:#00ff00;fill-opacity:1;stroke:none;font-family:Roke1984;-inkscape-font-specification:Roke1984"
     d="m 13.342983,58.142111 25.89856,0 15.65656,15.65656 0,75.869089 -15.65656,-15.59133 0,17.61363 -25.89856,0 0,-93.547949 m 43.51219,93.547949 0,-93.547949 25.83333,0 0,93.547949 -25.83333,0 m 9.39393,-12.72095 c -2.13108,0.13048 -3.4358,1.26123 -3.91414,3.39225 l 1.50042,0.26094 c 0.13043,-1.3482 0.935,-2.02228 2.41372,-2.0223 0.86976,2e-5 1.43514,0.45666 1.69613,1.36995 0.26089,0.9133 -6e-5,1.60915 -0.78283,2.08754 -0.47845,0.34793 -1.13081,0.69585 -1.95706,1.04378 -0.82637,0.34792 -1.45698,0.71759 -1.89184,1.109 -0.73939,0.60887 -1.10906,1.54392 -1.109,2.80513 l 6.84975,0 0,-1.43519 -4.95792,0 c 0.34787,-0.47839 0.97848,-0.89155 1.89184,-1.23947 0.91323,-0.39141 1.56559,-0.69584 1.95706,-0.9133 1.47862,-1.04376 1.93527,-2.39197 1.36995,-4.04461 -0.21751,-0.73933 -0.60892,-1.32646 -1.17424,-1.76136 -0.56543,-0.4349 -1.19605,-0.65235 -1.89184,-0.65236 m 8.024,6.71926 2.21801,-3.32701 -1.8266,0 -1.23948,1.95707 -1.17424,-1.95707 -1.89184,0 2.41372,3.32701 -2.41372,3.32703 1.89184,0 1.17424,-2.02231 1.36995,2.02231 1.69613,0 -2.21801,-3.32703" />
  <path
     inkscape:connector-curvature="0"
     id="path3146"
     style="font-size:144.23509216px;font-style:normal;font-variant:normal;font-weight:normal;font-stretch:normal;line-height:125%;letter-spacing:0px;word-spacing:0px;fill:#800080;fill-opacity:1;stroke:none;font-family:Roke1984;-inkscape-font-specification:Roke1984"
     d="m 100.00176,123.37778 c -2.478957,-5.87117 -3.718437,-12.02506 -3.718437,-18.46169 0,-6.436529 1.23948,-12.568689 3.718437,-18.396459 2.47895,-5.87114 5.80597,-10.93777 9.98106,-15.19991 4.17506,-4.26199 9.17646,-7.67598 15.00419,-10.242 5.8277,-2.60935 11.93809,-3.97929 18.33124,-4.10985 l 0,96.026909 c -6.39315,-0.13048 -12.50354,-1.47868 -18.33124,-4.04461 -5.82773,-2.60943 -10.82913,-6.04517 -15.00419,-10.30724 -4.17509,-4.30555 -7.50211,-9.39391 -9.98106,-15.26515 M 188.5918,86.519631 c 2.47885,5.82777 3.71834,11.95993 3.71844,18.396459 -1e-4,6.43663 -1.23959,12.59052 -3.71844,18.46169 -2.47904,5.87124 -5.80606,10.9596 -9.98105,15.26515 -4.17517,4.26207 -9.17657,7.69781 -15.00421,10.30724 -5.82778,2.56593 -11.93819,3.91413 -18.33123,4.04461 l 0,-96.026909 c 6.39304,0.13056 12.50345,1.5005 18.33123,4.10985 5.82764,2.56602 10.82904,5.98001 15.00421,10.242 4.17499,4.26214 7.50201,9.32877 9.98105,15.19991 m -35.81438,11.74242 c -2.08761,0.0871 -3.37056,1.19604 -3.8489,3.327009 l 1.43518,0.26094 c 0.0869,-0.6088 0.34787,-1.0872 0.78283,-1.43518 0.43484,-0.39135 0.97847,-0.587069 1.63089,-0.587119 0.91324,5e-5 1.47862,0.478449 1.69613,1.435189 0.26088,0.91334 -7e-5,1.60919 -0.78283,2.08754 -0.47845,0.30448 -1.13081,0.63066 -1.95708,0.97853 -0.82637,0.34797 -1.45698,0.71764 -1.89182,1.10901 -0.69591,0.6524 -1.04383,1.58745 -1.04378,2.80514 l 6.78451,0 0,-1.43518 -4.95791,0 c 0.30438,-0.34789 0.63055,-0.60883 0.97854,-0.78284 0.39135,-0.21741 0.86975,-0.43485 1.43518,-0.65236 0.56531,-0.2174 1.06546,-0.45659 1.50042,-0.71759 0.65229,-0.43485 1.08721,-1.02197 1.30471,-1.76136 0.26088,-0.78277 0.26088,-1.52212 0,-2.21801 -0.43497,-1.609099 -1.45699,-2.413669 -3.06607,-2.413719 m 13.11236,1.56565 0,-1.43518 -9.39393,0 0,1.43518 1.36995,0 0,8.415409 1.56565,0 0,-8.415409 3.6532,0 0,8.415409 1.43519,0 0,-8.415409 1.36994,0" />
  <path
     inkscape:connector-curvature="0"
     id="path3148"
     style="font-size:144.23509216px;font-style:normal;font-variant:normal;font-weight:normal;font-stretch:normal;line-height:125%;letter-spacing:0px;word-spacing:0px;fill:#ff0000;fill-opacity:1;stroke:none;font-family:Roke1984;-inkscape-font-specification:Roke1984"
     d="m 215.65343,102.24142 c -0.30444,-2.13097 -1.26122,-3.892339 -2.87036,-5.284079 -1.60915,-1.43513 -3.47925,-2.15272 -5.61027,-2.15278 l -0.13048,0 0,-37.83669 18.4617,0 c 6.2191,0.0436 12.17728,1.26131 17.87457,3.65319 5.74069,2.34857 10.72035,5.54513 14.93897,9.58965 4.26201,4.04468 7.7195,8.85037 10.37248,14.41708 2.65284,5.56684 4.15326,11.43805 4.50125,17.613629 l -57.53786,0 m -8.48063,9.39395 c 2.13102,2e-5 4.00112,-0.69582 5.61027,-2.08755 1.60914,-1.43515 2.56592,-3.19651 2.87036,-5.2841 l 57.53786,0 0,0.78283 c -6e-5,6.52361 -1.26128,12.74274 -3.78366,18.65742 -2.52252,5.87123 -5.91476,10.9596 -10.17677,15.26514 -4.21862,4.26207 -9.28526,7.65433 -15.19992,10.17676 -5.87124,2.52245 -12.04687,3.80542 -18.52692,3.84891 l -0.13047,0 -0.13047,0 -18.20076,0 0,-41.35941 0.13048,0 m 15.78703,-22.049669 c -2.08756,0.087 -3.37053,1.19605 -3.84891,3.32702 l 1.43519,0.26094 c 0.087,-0.6088 0.3479,-1.0872 0.78283,-1.43518 0.43488,-0.39134 0.97851,-0.58706 1.63089,-0.58712 0.91328,6e-5 1.47866,0.47845 1.69613,1.43518 0.26092,0.91336 -2e-5,1.60921 -0.78283,2.08754 -0.47842,0.30449 -1.13077,0.63067 -1.95708,0.97854 -0.82634,0.34798 -1.45694,0.71765 -1.89182,1.10901 -0.69587,0.65241 -1.04379,1.58745 -1.04377,2.80514 l 6.7845,0 0,-1.4352 -4.95791,0 c 0.30441,-0.34786 0.6306,-0.6088 0.97854,-0.78282 0.39139,-0.2174 0.86979,-0.43486 1.43518,-0.65236 0.56536,-0.21739 1.0655,-0.45659 1.50042,-0.71759 0.65234,-0.43486 1.08724,-1.02197 1.30471,-1.76137 0.26093,-0.78276 0.26093,-1.5221 0,-2.21801 -0.43492,-1.60908 -1.45695,-2.41365 -3.06607,-2.41372 m 13.11237,1.56566 0,-1.43518 -9.39393,0 0,1.43518 1.36994,0 0,8.41541 1.6309,0 0,-8.41541 3.58795,0 0,8.41541 1.43519,0 0,-8.41541 1.36995,0" />
  <path
     inkscape:connector-curvature="0"
     id="path3150"
     style="font-size:144.23509216px;font-style:normal;font-variant:normal;font-weight:normal;font-stretch:normal;line-height:125%;letter-spacing:0px;word-spacing:0px;fill:#008080;fill-opacity:1;stroke:none;font-family:Roke1984;-inkscape-font-specification:Roke1984"
     d="m 365.49306,79.800351 c -2.04413,8e-5 -3.84897,0.65243 -5.41457,1.95708 -1.52223,1.26129 -2.47902,2.89218 -2.87037,4.89267 l -52.90613,0 0,-28.37752 61.32153,0 0,21.52777 -0.13046,0 m -8.41541,43.055539 c 0.26088,2.13106 1.17418,3.91416 2.7399,5.34933 1.56559,1.39171 3.45743,2.08756 5.67551,2.08754 l 0.13046,0 0,21.52777 -61.32153,0 0,-28.96464 52.77566,0 m 8.41541,-9.39393 c -2.1311,4e-5 -4.00119,0.71763 -5.61027,2.15277 -1.60921,1.39174 -2.54426,3.13135 -2.80514,5.21885 l -52.77566,0 0,-32.226409 52.77566,0 c 0.0435,2.26157 0.86975,4.17514 2.47896,5.74073 1.65256,1.52223 3.63139,2.28331 5.93645,2.28325 l 0.13046,0 0,16.830809 -0.13046,0 m -54.6675,-39.532819 c -2.08756,0.0871 -3.37053,1.19606 -3.8489,3.32702 l 1.43518,0.26094 c 0.0435,-0.56529 0.28268,-1.02195 0.71759,-1.36994 0.47839,-0.39135 1.04376,-0.58705 1.69613,-0.58713 0.8698,8e-5 1.43517,0.47847 1.69612,1.43519 0.30443,0.91338 0.0435,1.58747 -0.78282,2.0223 -0.43492,0.30451 -1.08727,0.65243 -1.95708,1.04378 -0.82632,0.348 -1.45693,0.71766 -1.89182,1.109 -0.69586,0.60894 -1.04379,1.54399 -1.04378,2.80514 l 6.78452,0 0,-1.50042 -4.95793,0 c 0.34793,-0.43484 0.97853,-0.82625 1.89185,-1.17424 0.91328,-0.34786 1.58738,-0.67403 2.0223,-0.97854 0.65234,-0.43483 1.08725,-1.02196 1.30471,-1.76136 0.26093,-0.78276 0.26093,-1.5221 0,-2.21802 -0.43491,-1.60907 -1.45694,-2.41364 -3.06607,-2.41372 m 8.02399,6.65404 2.28324,-3.32701 -1.89182,0 -1.17426,2.0223 -1.23946,-2.0223 -1.82661,0 2.34848,3.32701 -2.34848,3.39226 1.82661,0 1.23946,-2.02232 1.30472,2.02232 1.76136,0 -2.28324,-3.39226 m -8.02399,27.529449 c -2.08756,0.0871 -3.37053,1.21778 -3.8489,3.39225 l 1.43518,0.26095 c 0.0435,-0.60883 0.28268,-1.08722 0.71759,-1.43518 0.47839,-0.39137 1.04376,-0.58708 1.69613,-0.58712 0.8698,4e-5 1.43517,0.47843 1.69612,1.43518 0.30443,0.91334 0.0435,1.58744 -0.78282,2.0223 -0.47841,0.34797 -1.15251,0.71763 -2.02231,1.10901 -0.82633,0.34797 -1.43519,0.69589 -1.82659,1.04377 -0.69586,0.60891 -1.04379,1.54395 -1.04378,2.80514 l 6.78452,0 0,-1.50042 -4.95793,0 c 0.39141,-0.43488 1.02202,-0.82629 1.89185,-1.17424 0.91328,-0.3479 1.58738,-0.65233 2.0223,-0.9133 1.43518,-1.08722 1.87007,-2.43544 1.30471,-4.04462 -0.43491,-1.60911 -1.45694,-2.41368 -3.06607,-2.41372 m 8.02399,6.71928 2.28324,-3.32703 -1.89182,0 -1.17426,1.95708 -1.23946,-1.95708 -1.82661,0 2.34848,3.32703 -2.34848,3.32702 1.82661,0 1.23946,-2.02231 1.30472,2.02231 1.76136,0 -2.28324,-3.32702" />
</svg>
