<?xml version="1.0" encoding="UTF-8" standalone="no"?>
<svg
   xmlns:dc="http://purl.org/dc/elements/1.1/"
   xmlns:cc="http://creativecommons.org/ns#"
   xmlns:rdf="http://www.w3.org/1999/02/22-rdf-syntax-ns#"
   xmlns:svg="http://www.w3.org/2000/svg"
   xmlns="http://www.w3.org/2000/svg"
   xmlns:sodipodi="http://sodipodi.sourceforge.net/DTD/sodipodi-0.dtd"
   xmlns:inkscape="http://www.inkscape.org/namespaces/inkscape"
   version="1.0"
   width="672"
   height="504"
   id="svg2"
   inkscape:version="0.48.2 r9819"
   sodipodi:docname="sticker1.svg">
  <metadata
     id="metadata42">
    <rdf:RDF>
      <cc:Work
         rdf:about="">
        <dc:format>image/svg+xml</dc:format>
        <dc:type
           rdf:resource="http://purl.org/dc/dcmitype/StillImage" />
        <dc:title></dc:title>
      </cc:Work>
    </rdf:RDF>
  </metadata>
  <defs
     id="defs40">
    <inkscape:perspective
       id="perspective3000"
       inkscape:persp3d-origin="150 : 91.666667 : 1"
       inkscape:vp_z="300 : 137.5 : 1"
       inkscape:vp_y="0 : 1000 : 0"
       inkscape:vp_x="0 : 137.5 : 1"
       sodipodi:type="inkscape:persp3d" />
  </defs>
  <sodipodi:namedview
     pagecolor="#ffffff"
     bordercolor="#666666"
     borderopacity="1"
     objecttolerance="10"
     gridtolerance="10"
     guidetolerance="10"
     inkscape:pageopacity="0"
     inkscape:pageshadow="2"
     inkscape:window-width="1328"
     inkscape:window-height="957"
     id="namedview38"
     showgrid="false"
     showborder="false"
     showguides="true"
     inkscape:guide-bbox="true"
     inkscape:zoom="0.66221111"
     inkscape:cx="366.59582"
     inkscape:cy="156.38989"
     inkscape:window-x="760"
     inkscape:window-y="385"
     inkscape:window-maximized="0"
     inkscape:current-layer="svg2" />
  <rect
     x="0"
     y="113.34585"
     width="672"
     height="390.65417"
     id="rect4"
     style="fill:#131313" />
  <rect
     x="0"
     y="112.5908"
     width="96"
     height="223.40921"
     id="rect6"
     style="fill:#c0c0c0" />
  <rect
     x="96"
     y="112.5908"
     width="96"
     height="223.40921"
     id="rect8"
     style="fill:#c0c000" />
  <rect
     x="192"
     y="112.5908"
     width="96"
     height="223.40921"
     id="rect10"
     style="fill:#00c0c0" />
  <rect
     x="288"
     y="112.5908"
     width="96"
     height="223.40921"
     id="rect12"
     style="fill:#00c000" />
  <rect
     x="384"
     y="112.5908"
     width="96"
     height="223.40921"
     id="rect14"
     style="fill:#c000c0" />
  <rect
     x="480"
     y="112.5908"
     width="96"
     height="223.40921"
     id="rect16"
     style="fill:#c00000" />
  <rect
     x="576"
     y="112.5908"
     width="96"
     height="223.40921"
     id="rect18"
     style="fill:#0000c0" />
  <rect
     x="0"
     y="336"
     width="96"
     height="42"
     fill="#0000c0"
     id="rect20" />
  <rect
     x="192"
     y="336"
     width="96"
     height="42"
     fill="#c000c0"
     id="rect22" />
  <rect
     x="384"
     y="336"
     width="96"
     height="42"
     fill="#00c0c0"
     id="rect24" />
  <rect
     x="576"
     y="336"
     width="96"
     height="42"
     fill="#c0c0c0"
     id="rect26" />
  <rect
     x="0"
     y="378"
     width="120"
     height="126"
     fill="#00214c"
     id="rect28" />
  <rect
     x="120"
     y="378"
     width="120"
     height="126"
     fill="#ffffff"
     id="rect30" />
  <rect
     x="240"
     y="378"
     width="120"
     height="126"
     fill="#32006a"
     id="rect32" />
  <rect
     x="480"
     y="378"
     width="32"
     height="126"
     fill="#090909"
     id="rect34" />
  <rect
     x="544"
     y="378"
     width="32"
     height="126"
     fill="#1d1d1d"
     id="rect36" />
  <path
     inkscape:connector-curvature="0"
     id="path3028"
     style="font-size:126.34824371000000554px;font-style:normal;font-variant:normal;font-weight:normal;font-stretch:normal;line-height:125%;letter-spacing:0px;word-spacing:0px;fill:#333333;fill-opacity:1;stroke:none;font-family:Roke1984;-inkscape-font-specification:Roke1984"
     d="m 19.348552,220.22595 0,1.9125 -2.529433,0 0,-1.9125 2.529433,0 m 5.058865,0 0,1.9125 -2.529433,0 0,-1.9125 2.529433,0 m 12.647163,1.9125 0,-1.9125 2.529433,0 0,1.9125 -2.529433,0 m -2.529432,-1.9125 0,1.9125 -2.529433,0 0,-1.9125 2.529433,0 m 7.588297,1.9125 0,-1.9125 2.529433,0 0,1.9125 -2.529433,0 m -12.647163,-1.9125 0,1.9125 -2.529432,0 0,-1.9125 2.529432,0 m 22.7032,1.9125 0,-1.9125 2.529433,0 0,1.9125 -2.529433,0 m 17.706029,-1.9125 0,1.9125 -2.529433,0 0,-1.9125 2.529433,0 m -22.7032,1.9125 0,-1.9125 2.529432,0 0,1.9125 -2.529432,0 m 27.762065,-1.9125 0,1.9125 -2.529433,0 0,-1.9125 2.529433,0 m -10.117731,0 0,1.9125 -2.529432,0 0,-1.9125 2.529432,0 m -5.058865,0 0,1.9125 -2.529432,0 0,-1.9125 2.529432,0 m -5.305639,-44.23422 26.404809,0 0,90.31925 -25.849568,0 -15.299982,-15.23829 0,15.23829 -26.404809,0 0,-90.31925 25.911261,0 15.238289,15.29998 0,-15.29998 m 24.554004,44.23422 0,-42.32173 -22.641506,0 0,17.95281 -17.952802,-17.95281 -23.258442,0 0,86.55595 22.641507,0 0,-18.07618 18.076189,18.07618 23.135054,0 0,-42.32172 -1.542336,0 0,-1.9125 1.542336,0 m -61.940252,41.70479 0,-1.29556 18.816511,0 0,1.29556 -18.816511,0 m 5.922574,-13.2641 c -1.974203,0.0823 -3.187507,1.13107 -3.639915,3.14637 l 1.41895,0.24678 c 0.08225,-0.5758 0.308455,-1.02822 0.678628,-1.35726 0.411277,-0.37015 0.925389,-0.55523 1.542337,-0.55524 0.822565,1e-5 1.357241,0.43187 1.604031,1.29556 0.287886,0.86372 0.06168,1.52179 -0.678629,1.97419 -0.493562,0.32905 -1.131061,0.67864 -1.912498,1.04879 -0.781463,0.32904 -1.377832,0.65807 -1.78911,0.9871 -0.658075,0.61694 -0.987106,1.50121 -0.987096,2.65282 l 6.416122,0 0,-1.35726 -4.627011,0 c 0.246761,-0.32902 0.534664,-0.5758 0.863708,-0.74032 0.370148,-0.20564 0.822566,-0.41128 1.357257,-0.61694 0.534662,-0.20563 1.007645,-0.43184 1.41895,-0.67863 0.616918,-0.4524 1.048772,-1.00764 1.295563,-1.66572 0.246757,-0.69918 0.226192,-1.39837 -0.06169,-2.09758 -0.411307,-1.52175 -1.377837,-2.28264 -2.899594,-2.28266 m 7.588298,6.29274 2.159272,-3.14637 -1.789111,0 -1.110483,1.9125 -1.110482,-1.9125 -1.789111,0 2.282658,3.14637 -2.282658,3.14637 1.789111,0 1.110482,-1.85081 1.23387,1.85081 1.665724,0 -2.159272,-3.14637" />
  <path
     inkscape:connector-curvature="0"
     id="path3030"
     style="font-size:126.34824371000000554px;font-style:normal;font-variant:normal;font-weight:normal;font-stretch:normal;line-height:125%;letter-spacing:0px;word-spacing:0px;fill:#333333;fill-opacity:1;stroke:none;font-family:Roke1984;-inkscape-font-specification:Roke1984"
     d="m 144.65367,189.5026 0,2.52943 -1.9125,0 0,-2.52943 1.9125,0 m 0,-5.05887 0,2.52944 -1.9125,0 0,-2.52944 1.9125,0 m 0,10.11773 0,2.52944 -1.9125,0 0,-2.52944 1.9125,0 m 0,-15.17659 0,2.52943 -1.9125,0 0,-2.52943 1.9125,0 m -1.04879,-3.51653 c 6.29268,9e-5 12.2975,1.23396 18.01449,3.70161 5.75799,2.42669 10.69346,5.71701 14.80644,9.87096 4.15394,4.11297 7.44426,9.02787 9.87095,14.74474 2.46765,5.67585 3.70152,11.66011 3.70161,17.9528 -9e-5,6.29277 -1.23396,12.2976 -3.70161,18.01449 -2.42669,5.71695 -5.71701,10.65243 -9.87095,14.80644 -4.11298,4.1129 -9.04845,7.40322 -14.80644,9.87096 -5.71699,2.4266 -11.72181,3.63991 -18.01449,3.63991 -8.34923,0 -16.08147,-2.05645 -23.19675,-6.16935 -7.11533,-4.15402 -12.75,-9.78868 -16.90401,-16.90401 -4.154036,-7.11529 -6.231047,-14.86809 -6.231046,-23.25844 -10e-7,-8.34913 2.07701,-16.08138 6.231046,-23.19675 4.15401,-7.11524 9.78868,-12.72934 16.90401,-16.84232 7.11528,-4.15394 14.84752,-6.23095 23.19675,-6.23104 m 31.46367,77.73378 c 4.03056,-3.98949 7.19749,-8.63706 9.5008,-13.94272 2.30313,-5.30561 3.4753,-10.94028 3.51652,-16.90402 l -42.19833,0 c -0.28796,0.98714 -0.92546,1.48069 -1.9125,1.48065 -0.61699,4e-5 -1.1311,-0.20561 -1.54234,-0.61694 -0.37021,-0.41125 -0.55529,-0.90479 -0.55524,-1.48064 -5e-5,-0.74028 0.28786,-1.33665 0.86371,-1.78911 l 0,-0.49355 1.9125,0 0,0.24677 c 0.65801,0.24682 1.11043,0.69924 1.35725,1.35726 l 42.07495,0 c -0.0412,-5.8814 -1.21339,-11.45437 -3.51652,-16.71893 -2.30331,-5.30558 -5.47024,-9.95315 -9.5008,-13.94273 -4.11297,-4.11282 -8.88393,-7.30031 -14.31289,-9.56249 -5.38795,-2.30314 -11.10488,-3.45475 -17.15078,-3.45483 -6.00488,8e-5 -11.7218,1.15169 -17.15079,3.45483 -5.42905,2.26218 -10.20001,5.44967 -14.31289,9.56249 -4.07178,4.07184 -7.25927,8.82223 -9.56249,14.25119 -2.30322,5.38796 -3.454835,11.08432 -3.454831,17.0891 -4e-6,6.046 1.151611,11.78348 3.454831,17.21248 2.30322,5.42905 5.49071,10.17944 9.56249,14.25119 4.11288,4.11291 8.86327,7.3004 14.2512,9.56249 5.42899,2.2621 11.16647,3.39314 17.21248,3.39314 6.0459,0 11.76283,-1.13104 17.15078,-3.39314 5.42896,-2.26209 10.19992,-5.44958 14.31289,-9.56249 m -30.41488,-38.8052 0,2.52944 -1.9125,0 0,-2.52944 1.9125,0 m 0,-5.05886 0,2.52943 -1.9125,0 0,-2.52943 1.9125,0 m 0,-5.05887 0,2.52944 -1.9125,0 0,-2.52944 1.9125,0 m 0,-5.05886 0,2.52943 -1.9125,0 0,-2.52943 1.9125,0 m 1.48064,25.29432 -1.97419,3.14637 -2.15927,-3.14637 -1.66573,0 2.8996,4.50363 -3.02298,4.56532 1.66572,0 2.28266,-3.26976 2.09758,3.26976 1.66572,0 -3.02298,-4.56532 2.89959,-4.50363 -1.66572,0 m 4.93548,2.8996 c 0.78139,-0.53464 1.04873,-1.1927 0.80201,-1.97419 -0.2057,-0.78141 -0.76094,-1.17214 -1.66572,-1.17218 -1.1928,4e-5 -1.87142,0.61698 -2.03589,1.85081 l 0.9871,0.12338 c 0.12333,-0.65802 0.47293,-0.98705 1.04879,-0.98709 0.3701,4e-5 0.59631,0.18512 0.67863,0.55524 0.12333,0.32907 0.0616,0.59641 -0.18508,0.80201 -0.28796,0.20569 -0.65812,0.41133 -1.11049,0.61694 -0.45247,0.16455 -0.76094,0.3085 -0.9254,0.43185 -0.32908,0.32907 -0.4936,0.86375 -0.49355,1.60403 l 3.63992,0 0,-0.98709 -2.22097,0 c 0.12334,-0.16448 0.37011,-0.329 0.74033,-0.49355 0.41123,-0.20561 0.658,-0.329 0.74032,-0.37016" />
  <path
     inkscape:connector-curvature="0"
     id="path3032"
     style="font-size:126.34824371000000554px;font-style:normal;font-variant:normal;font-weight:normal;font-stretch:normal;line-height:125%;letter-spacing:0px;word-spacing:0px;fill:#333333;fill-opacity:1;stroke:none;font-family:Roke1984;-inkscape-font-specification:Roke1984"
     d="m 216.05442,263.04122 0,-1.23387 12.52377,0 0,1.23387 -12.52377,0 m 15.42337,-88.28336 c 8.26689,0.20573 15.85518,2.40613 22.76489,6.6012 6.95075,4.15411 12.4209,9.74764 16.41047,16.78063 4.03057,7.03311 6.04589,14.6831 6.04596,22.94997 -7e-5,8.26696 -2.01539,15.91694 -6.04596,22.94997 -3.98957,7.03307 -9.45972,12.64717 -16.41047,16.84232 -6.90971,4.19516 -14.498,6.39556 -22.76489,6.6012 l -1.11048,0 -18.07619,0 0,-92.72529 19.18667,0 m -0.86371,90.8128 c 7.97899,-0.0411 15.36164,-2.03589 22.14796,-5.98427 6.78623,-3.9895 12.15356,-9.37739 16.102,-16.16369 3.94831,-6.82738 5.9225,-14.27172 5.92257,-22.33304 -7e-5,-7.77333 -1.87143,-14.99146 -5.61411,-21.65441 -3.70166,-6.66282 -8.76052,-12.00959 -15.17659,-16.04031 -6.41616,-4.03055 -13.44921,-6.25151 -21.09917,-6.66289 l 0,1.17217 -1.9125,0 0,-1.29556 -0.37016,0 -0.24677,0 -16.22539,0 0,88.962 16.34877,0 0.12339,0 m 5.79919,-16.28708 c 0.98706,-0.1645 1.74795,-0.32902 2.28266,-0.49355 l 0.49354,1.85081 c -0.45245,0.20565 -1.29559,0.39073 -2.52943,0.55524 l -0.24677,-1.9125 m 2.40604,-57.86848 -0.49355,1.78911 c -0.2468,-0.0411 -0.63752,-0.10275 -1.17217,-0.18508 -0.53471,-0.12332 -0.946,-0.20558 -1.23387,-0.24678 l 0.37016,-1.8508 c 0.98707,0.12346 1.83021,0.28798 2.52943,0.49355 m 4.93548,1.66572 -0.80201,1.72742 c -0.57585,-0.28783 -1.33673,-0.57574 -2.28266,-0.86371 l 0.67862,-1.78911 c 1.19271,0.41136 1.99473,0.71983 2.40605,0.9254 m -12.277,56.69631 c 0.28788,1e-5 0.69917,-0.0205 1.23387,-0.0617 0.53465,-0.0411 0.92537,-0.0617 1.17217,-0.0617 l 0.24678,1.9125 -1.23387,0 0,2.15927 -1.9125,0 0,-2.52943 0.49355,0 0,-1.41895 m 27.3919,-37.26286 c -0.0823,-0.32898 -0.24682,-0.76084 -0.49355,-1.29557 -0.20569,-0.57575 -0.32908,-0.94591 -0.37016,-1.11048 l 1.78911,-0.61693 c 0.0411,0.16457 0.16447,0.51416 0.37017,1.04878 0.24672,0.53474 0.41123,0.98715 0.49354,1.35726 l -1.78911,0.61694 m -1.8508,-4.56532 c -0.41134,-0.82252 -0.84319,-1.54228 -1.29556,-2.15927 l 1.66572,-0.9871 c 0.24672,0.37022 0.65801,1.13111 1.23387,2.28266 l -1.60403,0.86371 m -15.91692,40.16245 c 0.49351,-0.1645 1.23384,-0.49353 2.22097,-0.98709 l 0.80201,1.78911 c -1.15165,0.53469 -1.95366,0.86372 -2.40604,0.98709 l -0.61694,-1.78911 m 18.81651,-30.90843 c -0.0412,-0.16447 -0.0823,-0.41124 -0.12339,-0.74032 -0.0412,-0.37011 -0.0823,-0.67858 -0.12338,-0.9254 -0.0412,-0.28786 -0.0823,-0.53463 -0.12339,-0.74033 l 1.72742,-0.37016 c 0.20559,0.69925 0.37011,1.54239 0.49355,2.52944 l -1.85081,0.24677 m -3.94838,18.81651 c 0.12334,-0.24674 0.30842,-0.59634 0.55524,-1.04879 0.28785,-0.49352 0.4935,-0.86368 0.61694,-1.11048 l 1.72741,0.86371 c -0.12344,0.28793 -0.32908,0.69922 -0.61693,1.23387 -0.28796,0.49357 -0.4936,0.84317 -0.61694,1.04879 l -1.66572,-0.9871 m 2.15927,-4.44193 c 0.4935,-1.43948 0.74027,-2.20036 0.74032,-2.28266 l 1.9125,0.55524 c -0.24683,0.90488 -0.53473,1.72745 -0.86371,2.46774 l -1.78911,-0.74032 m -5.05886,8.32862 1.54233,-1.8508 1.48065,1.11048 c -0.0412,0.0411 -0.26739,0.32906 -0.67863,0.86371 -0.37021,0.5347 -0.67868,0.92542 -0.9254,1.17217 l -1.41895,-1.29556 m -4.8121,-44.29592 -0.98709,1.48065 c -1.02826,-0.61687 -1.74802,-1.02816 -2.15927,-1.23387 l 1.04879,-1.66573 c 1.35721,0.90491 2.0564,1.37789 2.09757,1.41895 m 13.81934,23.99877 0,1.48064 0,1.04879 -1.91249,0 0,-1.04879 0,-1.35726 1.91249,-0.12338 m -2.52943,7.27983 c 0.24672,-0.74029 0.37011,-1.5423 0.37016,-2.40605 l 1.85081,0.30847 -0.37016,2.52943 -1.85081,-0.43185 m -3.70161,-24.24554 -1.48064,1.17218 -1.54234,-1.9125 1.41895,-1.29557 c 0.24673,0.28797 0.5552,0.6787 0.9254,1.17218 0.41125,0.49361 0.63746,0.78151 0.67863,0.86371 m -3.39314,-3.88669 -1.41895,1.35726 c -0.32907,-0.32897 -0.90488,-0.82252 -1.72742,-1.48065 l 1.11049,-1.54233 2.03588,1.66572 m -6.97136,47.38059 c 0.0822,-0.0411 0.80197,-0.51409 2.15927,-1.41895 l 1.04879,1.66573 c -1.06939,0.65808 -1.78915,1.1105 -2.15927,1.35725 l -1.04879,-1.60403 m 4.07177,-2.77621 1.9125,-1.66572 1.23386,1.41895 c -0.24681,0.2468 -0.61697,0.57583 -1.11048,0.9871 -0.45246,0.41131 -0.7198,0.65808 -0.80201,0.74032 l -1.23387,-1.48065 m -16.65724,-47.75075 0,2.46774 -1.9125,0 0,-2.46774 1.9125,0 m 0,-3.20806 0,0.67863 -1.9125,0 0,-2.52943 2.65282,0 -0.12339,1.8508 -0.61693,0 m 0,-11.96853 0,2.52943 -1.9125,0 0,-2.52943 1.9125,0 m 0,20.17376 0,2.52944 -1.9125,0 0,-2.52944 1.9125,0 m 0,-15.1149 0,2.52943 -1.9125,0 0,-2.52943 1.9125,0 m 0,60.64469 0,2.52943 -1.9125,0 0,-2.52943 1.9125,0 m 0,-5.05886 0,2.52943 -1.9125,0 0,-2.52943 1.9125,0 m 0,-5.05887 0,2.52943 -1.9125,0 0,-2.52943 1.9125,0 m 0,-30.35319 0,2.52943 -1.9125,0 0,-2.52943 1.9125,0 m -1.9125,53.11808 0,-2.52943 1.9125,0 0,2.52943 -1.9125,0 m 0,4.99718 0,-2.52944 1.9125,0 0,2.52944 -1.9125,0 m 1.9125,-32.82093 0,2.52943 -1.9125,0 0,-2.52943 1.9125,0 m 0,-15.1766 0,2.52943 -1.9125,0 0,-2.52943 1.9125,0 m 0,-5.05887 0,2.52944 -1.9125,0 0,-2.52944 1.9125,0 m 0,15.1766 0,2.52943 -1.9125,0 0,-2.52943 1.9125,0 m 0,-5.05886 0,2.52943 -1.9125,0 0,-2.52943 1.9125,0 m -9.62418,35.22697 2.15927,-3.14637 -1.78911,0 -1.11049,1.9125 -1.17217,-1.9125 -1.78911,0 2.28266,3.14637 -2.28266,3.20806 1.78911,0 1.17217,-1.9125 1.23387,1.9125 1.66573,0 -2.15927,-3.20806" />
  <path
     inkscape:connector-curvature="0"
     id="path3034"
     style="font-size:126.34824371000000554px;font-style:normal;font-variant:normal;font-weight:normal;font-stretch:normal;line-height:125%;letter-spacing:0px;word-spacing:0px;fill:#333333;fill-opacity:1;stroke:none;font-family:Roke1984;-inkscape-font-specification:Roke1984"
     d="m 364.9837,196.47396 c -2.1799,7e-5 -4.05127,0.78152 -5.61411,2.34435 -1.56296,1.52184 -2.34441,3.39321 -2.34435,5.61411 -6e-5,2.22102 0.78139,4.11296 2.34435,5.6758 1.56284,1.52183 3.43421,2.28271 5.61411,2.28266 l 0,15.79353 c -2.1799,4e-5 -4.05127,0.78149 -5.61411,2.34435 -1.56296,1.52181 -2.34441,3.39317 -2.34435,5.61411 -6e-5,2.22099 0.78139,4.11292 2.34435,5.6758 1.56284,1.52179 3.43421,2.28268 5.61411,2.28266 l 0.24677,0.49354 0,21.71611 -58.11526,0 0,-90.31925 58.11526,0 0,20.35884 -0.24677,0.12339 m -9.74757,7.09475 c 0.16446,-2.26203 1.0076,-4.21565 2.52943,-5.86088 1.52171,-1.64509 3.37252,-2.65275 5.55241,-3.02298 l 0,-16.78063 -42.07495,0 0,0.61694 -1.9125,0 0,-0.61694 -10.3645,0 0,86.55595 10.3645,0 0,-2.52943 1.9125,0 0,2.52943 42.07495,0 0,-18.56973 c -2.09763,-0.41127 -3.90731,-1.35724 -5.42902,-2.8379 -1.4807,-1.52175 -2.36497,-3.33142 -2.65282,-5.42903 l -1.66573,0 0,-1.8508 1.66573,0 c 0.0411,-2.30319 0.80196,-4.29795 2.28265,-5.98427 1.48059,-1.72738 3.33139,-2.8173 5.55242,-3.26975 l 0,-12.46209 c -2.09764,-0.41124 -3.88675,-1.41889 -5.36733,-3.02298 -1.4807,-1.60397 -2.30328,-3.47534 -2.46774,-5.6141 l -1.66573,0 0,-1.85081 1.66573,0 m -19.31006,0 0,1.85081 -2.52944,0 0,-1.85081 2.52944,0 m 7.5883,1.85081 0,-1.85081 2.46773,0 0,1.85081 -2.46773,0 m -5.05887,0 0,-1.85081 2.52943,0 0,1.85081 -2.52943,0 m -7.5883,-1.85081 0,1.85081 -2.52943,0 0,-1.85081 2.52943,0 m -5.05886,0 0,1.85081 -2.52944,0 0,-1.85081 2.52944,0 m 25.23263,0 0,1.85081 -2.52943,0 0,-1.85081 2.52943,0 m -22.7032,34.0548 0,-1.8508 2.52943,0 0,1.8508 -2.52943,0 m 10.11773,0 0,-1.8508 2.52943,0 0,1.8508 -2.52943,0 m 5.05887,0 0,-1.8508 2.46773,0 0,1.8508 -2.46773,0 m 4.99717,0 0,-1.8508 2.52943,0 0,1.8508 -2.52943,0 m -25.23264,0 0,-1.8508 2.52944,0 0,1.8508 -2.52944,0 m 10.11773,0 0,-1.8508 2.52944,0 0,1.8508 -2.52944,0 m -14.06611,-3.51653 0,-2.52943 1.9125,0 0,2.52943 -1.9125,0 m 0,5.05887 0,-2.52943 1.9125,0 0,2.52943 -1.9125,0 m 0,-10.11773 0,-2.52943 1.9125,0 0,2.52943 -1.9125,0 m 0,25.29432 0,-2.52943 1.9125,0 0,2.52943 -1.9125,0 m 0,5.05887 0,-2.52943 1.9125,0 0,2.52943 -1.9125,0 m 0,-35.41206 0,-2.52943 1.9125,0 0,2.52943 -1.9125,0 m 0,20.23546 0,-2.52943 1.9125,0 0,2.52943 -1.9125,0 m 0,5.05887 0,-2.52943 1.9125,0 0,2.52943 -1.9125,0 m 0,-50.52696 0,-2.52943 1.9125,0 0,2.52943 -1.9125,0 m 0,-10.11773 0,-2.52943 1.9125,0 0,2.52943 -1.9125,0 m 0,5.05887 0,-2.52944 1.9125,0 0,2.52944 -1.9125,0 m 0,-10.11774 0,-2.52943 1.9125,0 0,2.52943 -1.9125,0 m 0,25.29433 0,-2.52943 1.9125,0 0,2.52943 -1.9125,0 m 0,4.99717 0,-2.46774 1.9125,0 0,2.46774 -1.9125,0 m 0,-10.05603 0,-2.52944 1.9125,0 0,2.52944 -1.9125,0 m 0,15.1149 0,-2.52944 1.9125,0 0,2.52944 -1.9125,0 m 7.34153,-27.51529 c -0.94599,0.0823 -1.72744,0.43192 -2.34436,1.04879 -0.61695,0.57587 -0.92542,1.31619 -0.9254,2.22096 -2e-5,0.82265 0.30845,1.56297 0.9254,2.22097 0.65804,0.617 1.43949,0.92547 2.34436,0.9254 0.53465,7e-5 1.13102,-0.16445 1.78911,-0.49355 l 0,0.49355 c -3e-5,0.53474 -0.16454,0.9666 -0.49355,1.29556 -0.32906,0.3291 -0.76091,0.49361 -1.29556,0.49355 -0.49358,6e-5 -0.92543,-0.16445 -1.29557,-0.49355 -0.32905,-0.32896 -0.49357,-0.76082 -0.49355,-1.29556 l -1.48064,0 c -2e-5,0.9049 0.30845,1.68635 0.9254,2.34435 0.65804,0.65813 1.43949,0.98716 2.34436,0.9871 0.86368,6e-5 1.604,-0.32897 2.22096,-0.9871 0.65804,-0.69913 0.9665,-1.48058 0.9254,-2.34435 l 0,-3.26976 c -2e-5,-0.86363 -0.30849,-1.60395 -0.9254,-2.22096 -0.61696,-0.61686 -1.35728,-0.92533 -2.22096,-0.9254 m 1.23387,4.56531 c -0.32906,0.3291 -0.74035,0.49362 -1.23387,0.49355 -0.49358,7e-5 -0.92543,-0.18501 -1.29557,-0.55524 -0.32905,-0.37009 -0.49357,-0.78138 -0.49355,-1.23387 -2e-5,-0.49348 0.1645,-0.92533 0.49355,-1.29556 0.37014,-0.41122 0.80199,-0.61686 1.29557,-0.61694 0.49352,8e-5 0.90481,0.20572 1.23387,0.61694 0.37013,0.37023 0.55521,0.80208 0.55524,1.29556 -3e-5,0.49362 -0.18511,0.92547 -0.55524,1.29556 m 6.97136,-4.56531 c -1.2339,0.0412 -2.26213,0.55531 -3.08468,1.54233 -0.78147,0.94604 -1.1722,2.03596 -1.17217,3.26976 -3e-5,1.31619 0.3907,2.44724 1.17217,3.39314 0.82255,0.94603 1.85078,1.41901 3.08468,1.41895 1.27496,6e-5 2.32375,-0.47292 3.14637,-1.41895 0.86367,-0.9459 1.29552,-2.07695 1.29556,-3.39314 -4e-5,-1.2338 -0.43189,-2.34428 -1.29556,-3.33145 -0.86375,-0.98702 -1.91254,-1.48057 -3.14637,-1.48064 m 3.02298,4.81209 c -4e-5,0.94603 -0.3085,1.74805 -0.9254,2.40604 -0.57584,0.65813 -1.27503,0.98716 -2.09758,0.9871 -0.78148,6e-5 -1.46011,-0.32897 -2.03589,-0.9871 -0.57583,-0.65799 -0.86373,-1.46001 -0.86371,-2.40604 -2e-5,-0.90477 0.28788,-1.68622 0.86371,-2.34435 0.57578,-0.658 1.25441,-0.98703 2.03589,-0.9871 0.82255,7e-5 1.52174,0.3291 2.09758,0.9871 0.6169,0.65813 0.92536,1.43958 0.9254,2.34435 m 3.94838,-4.68871 c -0.6581,8e-5 -1.21334,0.24685 -1.66572,0.74033 -0.41133,0.49362 -0.61697,1.04886 -0.61694,1.66572 -3e-5,0.65813 0.20561,1.2545 0.61694,1.78911 0.45238,0.49362 1.00762,0.74039 1.66572,0.74032 0.6169,7e-5 1.13101,-0.2467 1.54234,-0.74032 0.41125,-0.53461 0.61689,-1.13098 0.61693,-1.78911 -4e-5,-0.65799 -0.22625,-1.21323 -0.67863,-1.66572 -0.41133,-0.49348 -0.90487,-0.74025 -1.48064,-0.74033 m 1.23387,2.40605 c -4e-5,0.41136 -0.12343,0.76096 -0.37016,1.04879 -0.24681,0.28797 -0.53472,0.43192 -0.86371,0.43185 -0.3702,7e-5 -0.69923,-0.14388 -0.98709,-0.43185 -0.28795,-0.28783 -0.4319,-0.63743 -0.43186,-1.04879 -4e-5,-0.37009 0.14391,-0.71969 0.43186,-1.04879 0.28786,-0.32896 0.61689,-0.49347 0.98709,-0.49355 0.28786,8e-5 0.5552,0.16459 0.80202,0.49355 0.28786,0.3291 0.43181,0.6787 0.43185,1.04879 m -16.41046,29.67456 c -0.94599,0.0412 -1.72744,0.39077 -2.34436,1.04879 -0.61695,0.61698 -0.92542,1.3573 -0.9254,2.22097 -2e-5,0.86374 0.32901,1.62463 0.9871,2.28265 0.65804,0.61698 1.41892,0.92544 2.28266,0.92541 0.61691,3e-5 1.21328,-0.18505 1.78911,-0.55524 l 0,0.55524 c -3e-5,0.49358 -0.16454,0.90487 -0.49355,1.23387 -0.32906,0.32906 -0.76091,0.49358 -1.29556,0.49354 -0.49358,4e-5 -0.92543,-0.16448 -1.29557,-0.49354 -0.32905,-0.329 -0.49357,-0.74029 -0.49355,-1.23387 l -1.48064,0 c -2e-5,0.86374 0.30845,1.62463 0.9254,2.28266 0.65804,0.65809 1.43949,0.98712 2.34436,0.98709 0.86368,3e-5 1.604,-0.329 2.22096,-0.98709 0.65804,-0.65803 0.9665,-1.41892 0.9254,-2.28266 l 0,-3.33145 c -2e-5,-0.86367 -0.32906,-1.60399 -0.98709,-2.22097 -0.61696,-0.61689 -1.33672,-0.92536 -2.15927,-0.9254 m 1.23387,4.56532 c -0.32906,0.32907 -0.74035,0.49358 -1.23387,0.49355 -0.49358,3e-5 -0.92543,-0.18505 -1.29557,-0.55524 -0.32905,-0.37013 -0.49357,-0.78142 -0.49355,-1.23387 -2e-5,-0.49351 0.1645,-0.92537 0.49355,-1.29557 0.37014,-0.37012 0.80199,-0.5552 1.29557,-0.55524 0.49352,4e-5 0.90481,0.18512 1.23387,0.55524 0.37013,0.3702 0.55521,0.80206 0.55524,1.29557 -3e-5,0.49358 -0.18511,0.92544 -0.55524,1.29556 m 6.97136,-4.56532 c -1.2339,0.0412 -2.26213,0.55528 -3.08468,1.54234 -0.78147,0.946 -1.1722,2.03592 -1.17217,3.26975 -3e-5,1.31617 0.3907,2.44721 1.17217,3.39314 0.82255,0.946 1.85078,1.41899 3.08468,1.41895 1.27496,4e-5 2.32375,-0.47295 3.14637,-1.41895 0.86367,-0.94593 1.29552,-2.07697 1.29556,-3.39314 -4e-5,-1.23383 -0.43189,-2.34431 -1.29556,-3.33144 -0.86375,-0.98706 -1.91254,-1.48061 -3.14637,-1.48065 m 3.02298,4.81209 c -4e-5,0.94601 -0.3085,1.74802 -0.9254,2.40605 -0.57584,0.6581 -1.27503,0.98713 -2.09758,0.98709 -0.82261,4e-5 -1.5218,-0.32899 -2.09758,-0.98709 -0.53471,-0.65803 -0.80204,-1.46004 -0.80202,-2.40605 -2e-5,-0.9048 0.28788,-1.66568 0.86371,-2.28266 0.57578,-0.65802 1.25441,-0.98705 2.03589,-0.98709 0.82255,4e-5 1.52174,0.32907 2.09758,0.98709 0.6169,0.61698 0.92536,1.37786 0.9254,2.28266 m 3.94838,-4.6887 c -0.6581,4e-5 -1.21334,0.24681 -1.66572,0.74032 -0.41133,0.49359 -0.61697,1.04883 -0.61694,1.66572 -3e-5,0.69924 0.20561,1.29561 0.61694,1.78912 0.41125,0.49358 0.96649,0.74035 1.66572,0.74032 0.6169,3e-5 1.13101,-0.24674 1.54234,-0.74032 0.41125,-0.53464 0.61689,-1.13101 0.61693,-1.78912 -4e-5,-0.61689 -0.22625,-1.17213 -0.67863,-1.66572 -0.45245,-0.49351 -0.946,-0.74028 -1.48064,-0.74032 m 1.23387,2.40604 c -4e-5,0.41133 -0.12343,0.78149 -0.37016,1.11049 -0.24681,0.28794 -0.53472,0.43189 -0.86371,0.43185 -0.3702,4e-5 -0.69923,-0.14391 -0.98709,-0.43185 -0.28795,-0.329 -0.4319,-0.69916 -0.43186,-1.11049 -4e-5,-0.37012 0.14391,-0.69915 0.43186,-0.98709 0.28786,-0.32899 0.61689,-0.49351 0.98709,-0.49355 0.28786,4e-5 0.5552,0.16456 0.80202,0.49355 0.28786,0.28794 0.43181,0.61697 0.43185,0.98709" />
  <path
     inkscape:connector-curvature="0"
     id="path3036"
     style="font-size:126.34824371000000554px;font-style:normal;font-variant:normal;font-weight:normal;font-stretch:normal;line-height:125%;letter-spacing:0px;word-spacing:0px;fill:#ffff00;fill-opacity:1;stroke:none;font-family:Roke1984;-inkscape-font-specification:Roke1984"
     d="m 411.33249,225.28482 0,8.452 -7.83507,0 0,-8.452 7.83507,0 m -7.83507,40.03906 0,-29.67456 31.95722,0 0,29.67456 -31.95722,0 m 60.5213,-59.90436 c -7e-5,7.32101 -2.44724,13.67543 -7.34153,19.06328 -4.8944,5.38793 -10.96092,8.4726 -18.19957,9.25402 l -25.91126,0 0,-9.74757 -9.06894,0 0,-47.13382 31.95722,0 0,0 c 7.89672,9e-5 14.6213,2.79686 20.17376,8.39032 5.59348,5.55249 8.39025,12.27707 8.39032,20.17377 m -46.64027,11.53668 c -0.94599,0.0823 -1.72744,0.4319 -2.34435,1.04879 -0.61695,0.57585 -0.92542,1.31617 -0.92541,2.22096 -1e-5,0.82262 0.32902,1.56295 0.9871,2.22097 0.65805,0.61697 1.41893,0.92544 2.28266,0.9254 0.4524,4e-5 1.04877,-0.16448 1.78911,-0.49355 l 0,0.49355 c -2e-5,0.49359 -0.1851,0.92544 -0.55524,1.29556 -0.32905,0.32907 -0.74034,0.49359 -1.23387,0.49355 -0.49357,4e-5 -0.92542,-0.16448 -1.29557,-0.49355 -0.32904,-0.37012 -0.49356,-0.80197 -0.49354,-1.29556 l -1.48065,0 c -1e-5,0.90488 0.30846,1.68633 0.92541,2.34435 0.65804,0.61697 1.43949,0.92544 2.34435,0.9254 0.86369,4e-5 1.60401,-0.32899 2.22096,-0.98709 0.65805,-0.65803 0.96651,-1.41891 0.92541,-2.28266 l 0,-3.26976 c -3e-5,-0.86366 -0.30849,-1.60398 -0.92541,-2.22096 -0.61695,-0.61689 -1.35727,-0.92536 -2.22096,-0.9254 m 1.23387,4.50362 c -0.32905,0.3702 -0.74034,0.55528 -1.23387,0.55524 -0.49357,4e-5 -0.92542,-0.18504 -1.29557,-0.55524 -0.32904,-0.37012 -0.49356,-0.78141 -0.49354,-1.23387 -2e-5,-0.53463 0.1645,-0.98705 0.49354,-1.35726 0.37015,-0.37011 0.802,-0.55519 1.29557,-0.55524 0.49353,5e-5 0.90482,0.18513 1.23387,0.55524 0.37014,0.37021 0.55522,0.82263 0.55524,1.35726 -2e-5,0.45246 -0.1851,0.86375 -0.55524,1.23387 m 6.97136,-4.50362 c -1.23389,0.0412 -2.26212,0.55529 -3.08467,1.54233 -0.82261,0.94602 -1.2339,2.01537 -1.23387,3.20806 -3e-5,1.31617 0.41126,2.44722 1.23387,3.39315 0.82255,0.946 1.85078,1.41898 3.08467,1.41895 1.27497,3e-5 2.32376,-0.47295 3.14637,-1.41895 0.86368,-0.94593 1.29553,-2.07698 1.29556,-3.39315 -3e-5,-1.23382 -0.43188,-2.32374 -1.29556,-3.26975 -0.86374,-0.98705 -1.91253,-1.4806 -3.14637,-1.48064 m 3.02298,4.75039 c -3e-5,0.94601 -0.3085,1.76859 -0.9254,2.46774 -0.57584,0.65811 -1.27503,0.98714 -2.09758,0.9871 -0.8226,4e-5 -1.5218,-0.32899 -2.09758,-0.9871 -0.5347,-0.69915 -0.80204,-1.52173 -0.80201,-2.46774 -3e-5,-0.86366 0.26731,-1.62455 0.80201,-2.28265 0.57578,-0.65802 1.27498,-0.98705 2.09758,-0.9871 0.82255,5e-5 1.52174,0.32908 2.09758,0.9871 0.6169,0.6581 0.92537,1.41899 0.9254,2.28265 m 3.94838,-4.62701 c -0.65809,5e-5 -1.21333,0.24682 -1.66572,0.74032 -0.41132,0.4936 -0.61697,1.04884 -0.61694,1.66573 -3e-5,0.65811 0.20562,1.25448 0.61694,1.78911 0.45239,0.49359 1.00763,0.74036 1.66572,0.74032 0.6169,4e-5 1.13102,-0.24673 1.54234,-0.74032 0.41125,-0.53463 0.6169,-1.131 0.61694,-1.78911 -4e-5,-0.65802 -0.22625,-1.21326 -0.67863,-1.66573 -0.41133,-0.4935 -0.90487,-0.74027 -1.48065,-0.74032 m 0.86371,1.35726 c 0.24674,0.28795 0.37013,0.63755 0.37016,1.04879 -3e-5,0.41133 -0.12342,0.76093 -0.37016,1.04879 -0.24681,0.28795 -0.53471,0.4319 -0.86371,0.43185 -0.41132,5e-5 -0.76092,-0.1439 -1.04879,-0.43185 -0.2468,-0.28786 -0.37019,-0.63746 -0.37016,-1.04879 -3e-5,-0.41124 0.12336,-0.76084 0.37016,-1.04879 0.28787,-0.32899 0.63747,-0.4935 1.04879,-0.49355 0.329,5e-5 0.6169,0.16456 0.86371,0.49355" />
  <path
     inkscape:connector-curvature="0"
     id="path3038"
     style="font-size:126.34824371000000554px;font-style:normal;font-variant:normal;font-weight:normal;font-stretch:normal;line-height:125%;letter-spacing:0px;word-spacing:0px;fill:#ffff00;fill-opacity:1;stroke:none;font-family:Roke1984;-inkscape-font-specification:Roke1984"
     d="m 509.83806,218.56023 c -0.28792,-2.01528 -1.19275,-3.681 -2.71451,-4.99718 -1.52178,-1.3572 -3.29033,-2.03583 -5.30564,-2.03588 l -0.12339,0 0,-35.78222 17.45925,0 c 5.88142,0.0412 11.51609,1.19283 16.90402,3.45484 5.42898,2.22105 10.13824,5.24402 14.1278,9.06894 4.03059,3.82507 7.30034,8.36982 9.80927,13.63426 2.5088,5.26457 3.92775,10.81697 4.25685,16.65724 l -54.41365,0 m -8.02015,8.88386 c 2.01531,4e-5 3.78386,-0.65803 5.30564,-1.97419 1.52176,-1.35722 2.42659,-3.02294 2.71451,-4.99718 l 54.41365,0 0,0.74033 c -7e-5,6.16938 -1.19281,12.05082 -3.57823,17.64433 -2.38554,5.55243 -5.59359,10.36452 -9.62418,14.43627 -3.98956,4.03065 -8.78108,7.23871 -14.37458,9.62419 -5.55244,2.38548 -11.39275,3.59878 -17.52095,3.63991 l -0.12338,0 -0.12339,0 -17.21248,0 0,-39.11366 0.12339,0 m 14.92982,-20.8524 c -1.97421,0.0823 -3.18751,1.13111 -3.63992,3.14637 l 1.35726,0.24677 c 0.0822,-0.57575 0.32901,-1.02817 0.74032,-1.35725 0.41127,-0.37011 0.92539,-0.55519 1.54234,-0.55524 0.86369,5e-5 1.39836,0.45247 1.60403,1.35725 0.24675,0.86377 -2e-5,1.52183 -0.74032,1.97419 -0.45244,0.28796 -1.06938,0.59643 -1.85081,0.92541 -0.78147,0.32908 -1.37784,0.67868 -1.78911,1.04878 -0.65808,0.61699 -0.98711,1.50126 -0.98709,2.65282 l 6.41612,0 0,-1.35725 -4.68871,0 c 0.28789,-0.32898 0.59636,-0.57576 0.92541,-0.74032 0.37014,-0.2056 0.82256,-0.41124 1.35725,-0.61694 0.53466,-0.20559 1.00764,-0.4318 1.41895,-0.67863 0.61692,-0.41123 1.02821,-0.96647 1.23387,-1.66572 0.24675,-0.74027 0.24675,-1.43946 0,-2.09758 -0.41131,-1.52171 -1.37784,-2.2826 -2.89959,-2.28266 m 12.40039,1.48065 0,-1.35726 -8.88386,0 0,1.35726 1.29556,0 0,7.95845 1.54234,0 0,-7.95845 3.39314,0 0,7.95845 1.35725,0 0,-7.95845 1.29557,0" />
  <path
     inkscape:connector-curvature="0"
     id="path3040"
     style="font-size:126.34824371000000554px;font-style:normal;font-variant:normal;font-weight:normal;font-stretch:normal;line-height:125%;letter-spacing:0px;word-spacing:0px;fill:#ffff00;fill-opacity:1;stroke:none;font-family:Roke1984;-inkscape-font-specification:Roke1984"
     d="m 662.35565,176.85544 -14.92982,43.24712 -43.43221,0 -14.92982,-43.24713 36.02899,0 0,36.39916 1.23387,0 0,-36.39916 36.02899,0 m -14.92982,45.15963 14.92982,43.30882 -36.02899,0 0,-36.02899 -1.23387,0 0,36.02899 -36.02899,0 14.92982,-43.30882 43.43221,0 m -30.04472,18.81651 -2.03589,3.14637 -2.15927,-3.14637 -1.60403,0 2.89959,4.50363 -3.08467,4.56531 1.66572,0 2.28266,-3.26975 2.15927,3.26975 1.60403,0 -3.02298,-4.56531 2.8996,-4.50363 -1.60403,0 m 4.93547,2.8996 c 0.74029,-0.53466 0.98706,-1.19272 0.74033,-1.9742 -0.20569,-0.78142 -0.76093,-1.17215 -1.66573,-1.17217 -1.11051,2e-5 -1.78914,0.61696 -2.03588,1.8508 l 1.04879,0.12339 c 0.12335,-0.65804 0.45238,-0.98707 0.98709,-0.9871 0.41126,3e-5 0.65803,0.18511 0.74032,0.55525 0.12335,0.37018 0.0411,0.65808 -0.24677,0.8637 -0.24681,0.16454 -0.59641,0.34962 -1.04879,0.55525 -0.45245,0.16453 -0.76092,0.30848 -0.9254,0.43185 -0.3702,0.32905 -0.55528,0.88429 -0.55524,1.66572 l 3.70161,0 0,-1.04879 -2.28266,0 c 0.12335,-0.12336 0.2673,-0.22618 0.43185,-0.30846 0.20561,-0.12337 0.41126,-0.22619 0.61694,-0.30847 0.24673,-0.12337 0.41125,-0.20562 0.49354,-0.24677 m 11.84515,-52.93301 -2.03588,3.14637 -2.09758,-3.14637 -1.66573,0 2.8996,4.50362 -3.02298,4.56532 1.60403,0 2.28266,-3.26975 2.15927,3.26975 1.66572,0 -3.02298,-4.56532 2.8996,-4.50362 -1.66573,0 m 3.26976,-0.12339 c -5e-5,0.41137 -0.0823,0.65814 -0.24678,0.74033 -0.16456,0.0823 -0.4936,0.12346 -0.98709,0.12338 l 0,0.9871 1.11048,0 0,3.08467 1.17218,0 0,-4.93548 -1.04879,0" />
  <path
     inkscape:connector-curvature="0"
     id="path3050"
     style="font-size:159.91983032px;font-style:normal;font-variant:normal;font-weight:normal;font-stretch:normal;line-height:125%;letter-spacing:0px;word-spacing:0px;fill:#00ffff;fill-opacity:1;stroke:none;font-family:Roke1984;-inkscape-font-specification:Roke1984"
     d="m 56.007762,457.5246 0,-34.58944 -0.791028,0 -34.589441,0 c -4e-6,-6.2802 1.534107,-12.08105 4.602338,-17.40259 3.116154,-5.32136 7.310989,-9.54016 12.584515,-12.65643 5.321427,-3.11606 11.122284,-4.67414 17.402588,-4.67425 9.636097,1.1e-4 17.834001,3.40392 24.593741,10.21143 6.807554,6.75978 10.211363,14.93371 10.211436,24.52184 -7.3e-5,6.23239 -1.510214,11.98531 -4.530426,17.25877 -3.02035,5.27355 -7.143273,9.46839 -12.368782,12.58451 -5.225621,3.06826 -10.930596,4.65031 -17.114941,4.74616 m 0,1.51014 34.157972,0 c -7.4e-5,6.2803 -1.558155,12.08116 -4.674249,17.40259 -3.06829,5.32146 -7.263125,9.54026 -12.584516,12.65643 -5.321504,3.11616 -11.146331,4.67425 -17.4745,4.67425 -6.280305,0 -12.081161,-1.55809 -17.402588,-4.67425 -5.321468,-3.11617 -9.540274,-7.33497 -12.656427,-12.65643 -3.06823,-5.32143 -4.602341,-11.12229 -4.602338,-17.40259 -3e-6,-9.25257 3.188071,-17.21077 9.564233,-23.87462 6.424076,-6.71168 14.238453,-10.28329 23.443155,-10.71482 l 0,34.58944 1.653965,0 0.575293,0 m 8.054089,-36.09958 -2.301168,3.66749 -2.516903,-3.66749 -1.941611,0 3.379841,5.32145 -3.523665,5.32145 1.941611,0 2.660727,-3.88322 2.444992,3.88322 1.941611,0 -3.523665,-5.32145 3.379841,-5.32145 -1.941611,0 m 5.752923,3.37984 c 0.910825,-0.57523 1.222441,-1.31831 0.934849,-2.22926 -0.239758,-0.95874 -0.886961,-1.43816 -1.941611,-1.43823 -1.39034,7e-5 -2.181365,0.74316 -2.37308,2.22926 l 1.222496,0.14382 c 0.143772,-0.81493 0.5273,-1.22242 1.150584,-1.2225 0.431417,8e-5 0.695092,0.23978 0.791027,0.71912 0.14377,0.43154 0.07186,0.74315 -0.215734,0.93485 -0.287699,0.19183 -0.719168,0.40757 -1.294408,0.64721 -0.527402,0.19183 -0.886959,0.35962 -1.078673,0.50338 -0.383577,0.43153 -0.575342,1.07873 -0.575292,1.94161 l 4.314691,0 0,-1.15059 -2.660726,0 c 0.191713,-0.19169 0.5273,-0.40743 1.006761,-0.6472 l 0.719116,-0.43147" />
  <path
     inkscape:connector-curvature="0"
     id="path3052"
     style="font-size:159.91983032px;font-style:normal;font-variant:normal;font-weight:normal;font-stretch:normal;line-height:125%;letter-spacing:0px;word-spacing:0px;fill:#ff00ff;fill-opacity:1;stroke:none;font-family:Roke1984;-inkscape-font-specification:Roke1984"
     d="m 146.42409,459.17856 0,-16.61156 69.39462,0 0,16.61156 c -8e-5,9.54029 -3.37991,17.69025 -10.13952,24.44992 -6.75974,6.75969 -14.9097,10.13953 -24.44992,10.13953 -9.58823,0 -17.78614,-3.37984 -24.59374,-10.13953 -6.80763,-6.75967 -10.21144,-14.90963 -10.21144,-24.44992 m 69.39462,-35.38047 0,16.53966 -69.39462,0 0,-16.53966 c 0,-6.28019 1.55808,-12.08104 4.67425,-17.40259 3.11615,-5.32135 7.33496,-9.54016 12.65644,-12.65642 5.36936,-3.11607 11.19418,-4.67414 17.47449,-4.67425 6.28023,1.1e-4 12.05712,1.55818 17.33068,4.67425 5.32139,3.11626 9.51622,7.33507 12.58451,12.65642 3.1161,5.32155 4.67417,11.1224 4.67425,17.40259 m -41.13338,2.51691 c -2.3012,0.14389 -3.71546,1.39036 -4.24279,3.7394 l 1.65396,0.28764 c 0.1438,-1.4861 1.00673,-2.22919 2.58883,-2.22926 0.95878,7e-5 1.58201,0.52742 1.86969,1.58206 0.33555,1.00682 0.0718,1.74991 -0.79103,2.22925 -0.57532,0.3836 -1.31841,0.79109 -2.22925,1.2225 -0.91091,0.38359 -1.60606,0.76712 -2.08544,1.15059 -0.76708,0.67123 -1.15061,1.70196 -1.15058,3.0922 l 7.4788,0 0,-1.65397 -5.39336,0 c 0.28761,-0.38347 0.6232,-0.67112 1.00675,-0.86294 0.43144,-0.1917 0.95879,-0.40744 1.58206,-0.6472 0.6232,-0.23965 1.17452,-0.50333 1.65396,-0.79103 1.62996,-1.15052 2.13334,-2.63669 1.51015,-4.45852 -0.57533,-1.77374 -1.72591,-2.66065 -3.45175,-2.66072 m 14.45421,1.79778 0,-1.65396 -10.28335,0 0,1.65396 1.43823,0 0,9.2766 1.79779,0 0,-9.2766 3.95513,0 0,9.2766 1.65396,0 0,-9.2766 1.43824,0" />
  <path
     inkscape:connector-curvature="0"
     id="path3054"
     style="font-size:159.91983032px;font-style:normal;font-variant:normal;font-weight:normal;font-stretch:normal;line-height:125%;letter-spacing:0px;word-spacing:0px;fill:#00ffff;fill-opacity:1;stroke:none;font-family:Roke1984;-inkscape-font-specification:Roke1984"
     d="m 288.77248,492.90507 0,-56.09099 37.10634,0 0,56.09099 -37.10634,0 m 37.10634,-102.9773 0,44.65705 -63.64169,0 0,-15.46097 26.53535,-29.19608 37.10634,0 m -32.00063,30.63431 c -1.39032,7e-5 -2.51693,0.55139 -3.37984,1.65396 -0.19179,0.33566 -0.4315,0.98286 -0.71911,1.94161 l 1.65396,0.28765 c -3e-5,-0.47934 0.14379,-0.93478 0.43147,-1.36632 0.57526,-0.57522 1.24643,-0.86287 2.01352,-0.86294 1.00673,7e-5 1.65393,0.43154 1.94161,1.29441 0.19173,1.15066 -0.048,1.98962 -0.71911,2.5169 -0.28768,0.1439 -1.17458,0.59933 -2.66072,1.36632 -0.57533,0.23977 -1.12665,0.52741 -1.65397,0.86294 -0.76709,0.67123 -1.15061,1.70196 -1.15058,3.0922 l 7.33496,0 0,-1.65397 -5.39335,0 c 0.19173,-0.14376 0.45541,-0.31155 0.79102,-0.50338 0.38349,-0.1917 0.59923,-0.31155 0.6472,-0.35956 0.91086,-0.38346 1.8457,-0.86287 2.80455,-1.43823 1.62996,-1.05463 2.15732,-2.49286 1.58206,-4.31469 -0.67121,-1.67786 -1.84577,-2.51683 -3.52367,-2.5169 m 8.98894,7.11924 2.37308,-3.52367 -2.08543,0 -1.29441,2.01352 -1.36632,-2.01352 -1.8697,0 2.37308,3.52367 -2.37308,3.66749 1.8697,0 1.36632,-2.08544 1.43823,2.08544 1.94161,0 -2.37308,-3.66749 m 6.04057,-3.66749 c 0.43142,-0.52729 0.67113,-0.88683 0.71911,-1.07867 0.23966,-0.33552 0.23966,-0.6711 0,-1.00676 -0.23974,-0.52728 -0.43151,-0.81493 -0.57529,-0.86294 -0.28769,-0.33551 -0.62328,-0.50331 -1.00675,-0.50338 -0.76711,7e-5 -1.36637,0.31169 -1.7978,0.93484 l -0.28764,0.71912 0,0.28765 1.07867,0.14382 0,-0.28765 c -4e-5,-0.0958 0.0958,-0.19169 0.28765,-0.28764 0.14377,-0.28758 0.38348,-0.4314 0.71912,-0.43147 0.38347,7e-5 0.57524,0.19183 0.57528,0.57529 0.14378,0.23978 0.0479,0.52743 -0.28764,0.86294 -0.28769,0.19184 -0.62328,0.3836 -1.00676,0.57529 -0.19181,0.048 -0.38358,0.1439 -0.5753,0.28765 -0.19181,0.14389 -0.31166,0.21581 -0.35955,0.21573 -0.14387,0.1439 -0.33564,0.67125 -0.5753,1.58206 l 3.66749,0 0,-1.00676 -2.15734,0 0.14382,-0.14382 c 0.19172,6e-5 0.67113,-0.1917 1.43823,-0.5753" />
  <path
     inkscape:connector-curvature="0"
     id="path3056"
     style="font-size:159.91983032px;font-style:normal;font-variant:normal;font-weight:normal;font-stretch:normal;line-height:125%;letter-spacing:0px;word-spacing:0px;fill:#00ffff;fill-opacity:1;stroke:none;font-family:Roke1984;-inkscape-font-specification:Roke1984"
     d="m 420.28005,425.16441 0,31.92872 -22.86787,0 0,-31.92872 22.86787,0 m 34.58943,-2.08543 c -7e-5,6.42416 -1.72594,12.46472 -5.17762,18.12171 3.45168,5.65708 5.17755,11.69764 5.17762,18.12169 -7e-5,6.28031 -1.55815,12.08116 -4.67424,17.40259 -3.11623,5.27353 -7.33504,9.46836 -12.65643,12.58452 -5.32151,3.06823 -11.12236,4.60234 -17.40259,4.60234 -9.58823,0 -17.76216,-3.35587 -24.52182,-10.06761 -6.7597,-6.75967 -10.18748,-14.9336 -10.28335,-24.52184 l 37.10634,0 0,-36.38722 -37.10634,0 c 0.0959,-9.58813 3.52365,-17.73809 10.28335,-24.44992 6.75966,-6.75958 14.93359,-10.13942 24.52182,-10.13953 9.54021,1.1e-4 17.71415,3.40392 24.52183,10.21145 6.80755,6.8077 10.21136,14.98164 10.21143,24.52182 m -23.29932,14.3104 -2.30117,3.66748 -2.51691,-3.66748 -1.94161,0 3.37984,5.32144 -3.52366,5.24955 1.94161,0 2.66073,-3.81131 2.44499,3.81131 1.9416,0 -3.52365,-5.24955 3.37983,-5.32144 -1.9416,0 m 3.52366,0.71911 c -0.19181,0.0959 -0.57534,0.14388 -1.15058,0.14382 l 0,1.2225 1.2944,0 0,3.52366 1.36632,0 0,-5.75292 -1.15059,0 c -5e-5,0.47947 -0.1199,0.76711 -0.35955,0.86294" />
  <path
     id="polygon2992"
     d="m 624.23579,394.05085 -11.46168,33.9898 -35.57072,0 28.45658,21.34243 -10.27599,33.9898 28.85181,-20.15674 28.85181,20.15674 -10.27599,-33.9898 28.45658,-21.34243 -35.57072,0 -11.46168,-33.9898 z"
     style="color:#0000ff;fill:#f8d64e;fill-opacity:1;stroke:#000000;stroke-width:0;stroke-miterlimit:4;stroke-opacity:1;stroke-dasharray:none"
     inkscape:connector-curvature="0" />
</svg>
