<?xml version="1.0" encoding="utf-8"?>
<!-- Generator: Adobe Illustrator 14.0.0, SVG Export Plug-In . SVG Version: 6.00 Build 43363)  -->
<!DOCTYPE svg PUBLIC "-//W3C//DTD SVG 1.1//EN" "http://www.w3.org/Graphics/SVG/1.1/DTD/svg11.dtd">
<svg version="1.1" id="Layer_1" xmlns="http://www.w3.org/2000/svg" xmlns:xlink="http://www.w3.org/1999/xlink" x="0px" y="0px"
	 width="512px" height="256px" viewBox="0 0 512 256" enable-background="new 0 0 512 256" xml:space="preserve">
<path fill="#898989" d="M215.814,79.964l6.938-7.108h19.631v-13.2l22.507,13.2v38.754l-6.77,6.938h-42.307V79.964z M242.383,90.118
	h-2.877v12.185h2.877V90.118z"/>
<path fill="#898989" d="M294.467,118.549v-15.231h-3.046v15.231H269.76v-15.908l6.769-6.938l-6.769-6.769V72.856h21.661V89.78h3.046
	V72.856h21.662v16.077l-6.77,6.769l6.77,6.938v15.908H294.467z"/>
<text transform="matrix(1 0 0 1 185.959 140.0098)" fill="#4986A1" font-family="'seattlesans'" font-size="20">2012</text>
<path fill="#4886A1" d="M42.584,21.914l7.107,7.107v38.584H28.369l0-32.492l-3.045,0v32.492L4,67.605l0-45.691H42.584z"/>
<path fill="#4886A1" d="M102.968,60.667l-6.599,6.939l-42.477,0l0-38.753l6.77-6.938h42.308L102.968,60.667z M77.076,31.559
	l0,26.062h2.876l0-26.061L77.076,31.559z"/>
<path fill="#4886A1" d="M107.337,29.021l6.938-7.108h19.63v-13.2l22.508,13.2v38.753l-6.769,6.939h-42.308V29.021z M133.906,39.175
	l-2.877,0l0,12.185h2.876L133.906,39.175z"/>
<path fill="#4886A1" d="M169.26,67.605h34.825l6.77-6.938V44.251l-23.016,9.308l0,7.107l-2.876,0l0-8.631l25.893-10.661l0-19.461
	l-41.97,0l-7.107,6.939l0,31.271L169.26,67.605z M187.839,28.852v12.692h-2.877V28.852H187.839z"/>
<rect x="154.246" y="65.176" transform="matrix(0.7071 0.7071 -0.7071 0.7071 96.4032 -92.2101)" fill="#FEE823" width="10.537" height="10.187"/>
<path fill="#898989" d="M210.929,79.284l-6.428-6.428h-35.854l-6.769,6.938v38.754l22.508,13.2v-13.2h19.8l6.77-6.769V79.258
	L210.929,79.284z M187.432,101.287h-3.046V89.103h3.046V101.287z"/>
</svg>
