<?xml version="1.0" encoding="UTF-8" standalone="no"?>
<!-- Created with Inkscape (http://www.inkscape.org/) -->

<svg
   xmlns:dc="http://purl.org/dc/elements/1.1/"
   xmlns:cc="http://creativecommons.org/ns#"
   xmlns:rdf="http://www.w3.org/1999/02/22-rdf-syntax-ns#"
   xmlns:svg="http://www.w3.org/2000/svg"
   xmlns="http://www.w3.org/2000/svg"
   xmlns:sodipodi="http://sodipodi.sourceforge.net/DTD/sodipodi-0.dtd"
   xmlns:inkscape="http://www.inkscape.org/namespaces/inkscape"
   width="180"
   height="180"
   id="svg2"
   version="1.1"
   inkscape:version="0.48.2 r9819"
   sodipodi:docname="nodepdx-2016-logo-square.svg"
   inkscape:export-filename="/Users/thoward/github/nodepdx.github.com/design-assets/nodepdx-2016-square-logo-transparent.png"
   inkscape:export-xdpi="90"
   inkscape:export-ydpi="90">
  <defs
     id="defs4" />
  <sodipodi:namedview
     id="base"
     pagecolor="#ffffff"
     bordercolor="#666666"
     borderopacity="1.0"
     inkscape:pageopacity="0.0"
     inkscape:pageshadow="2"
     inkscape:zoom="1.0488751"
     inkscape:cx="-89.433718"
     inkscape:cy="27.0685"
     inkscape:document-units="px"
     inkscape:current-layer="g3919"
     showgrid="false"
     showguides="true"
     inkscape:guide-bbox="true"
     inkscape:window-width="1280"
     inkscape:window-height="752"
     inkscape:window-x="0"
     inkscape:window-y="0"
     inkscape:window-maximized="1"
     fit-margin-top="0.12"
     fit-margin-left="0.12"
     fit-margin-right="0.12"
     fit-margin-bottom="0.12"
     units="in">
    <sodipodi:guide
       orientation="1,0"
       position="-1.7930757,-78.221609"
       id="guide3177" />
    <sodipodi:guide
       orientation="1,0"
       position="649.63548,541.77837"
       id="guide4056" />
  </sodipodi:namedview>
  <metadata
     id="metadata7">
    <rdf:RDF>
      <cc:Work
         rdf:about="">
        <dc:format>image/svg+xml</dc:format>
        <dc:type
           rdf:resource="http://purl.org/dc/dcmitype/StillImage" />
        <dc:title></dc:title>
      </cc:Work>
    </rdf:RDF>
  </metadata>
  <g
     inkscape:label="Layer 1"
     inkscape:groupmode="layer"
     id="layer1"
     transform="translate(-50.364505,-345.56936)">
    <g
       id="g3037"
       transform="translate(9.075574e-4,-84.510067)">
      <g
         transform="matrix(1.7905738,0,0,1.7905738,-289.78479,-162.80267)"
         id="g3919">
        <rect
           style="fill:#292a38;fill-opacity:1;stroke:none"
           id="rect3150"
           width="100.52644"
           height="100.52644"
           x="189.96614"
           y="331.11292" />
        <g
           id="g3130"
           transform="matrix(0.24958475,0,0,0.24958475,147.41672,317.4684)">
          <g
             id="text2985"
             style="font-size:130.07681274px;font-style:normal;font-variant:normal;font-weight:normal;font-stretch:normal;text-align:start;line-height:125%;letter-spacing:0px;word-spacing:0px;writing-mode:lr-tb;text-anchor:start;fill:#ffff00;fill-opacity:1;stroke:#ffaaaa;stroke-width:1.88445795;stroke-miterlimit:4;stroke-opacity:1;font-family:TESLA;-inkscape-font-specification:TESLA">
            <path
               inkscape:connector-curvature="0"
               id="path3106"
               style="font-size:130.07681274px;font-style:normal;font-variant:normal;font-weight:normal;font-stretch:normal;text-align:start;line-height:125%;writing-mode:lr-tb;text-anchor:start;fill:#ffaaaa;stroke:#ffaaaa;stroke-miterlimit:4;stroke-opacity:1;font-family:TESLA;-inkscape-font-specification:TESLA"
               d="M 258.07342,195.4433 216.31876,131.31543 216.31876,195.4433 196.15686,195.4433 196.15686,109.72268 209.81492,109.72268 206.30285,104.38953 224.64368,104.38953 251.17935,145.23365 251.17935,104.38953 267.56903,104.38953 267.56903,109.72268 277.32479,109.72268 277.32479,194.66284 267.56903,179.70401 267.56903,195.4433 258.07342,195.4433 M 214.75784,126.11236 258.85388,193.88238 266.0081,193.88238 266.0081,177.36263 252.74027,156.94057 252.74027,175.8017 210.72546,111.2836 197.71778,111.2836 197.71778,193.88238 214.75784,193.88238 214.75784,126.11236 M 267.56903,176.84232 275.76387,189.45977 275.76387,111.2836 267.56903,111.2836 267.56903,176.84232 M 252.74027,154.07888 266.0081,174.50094 266.0081,111.2836 262.23588,111.2836 262.23588,164.87525 252.74027,150.43673 252.74027,154.07888 M 212.54653,111.2836 251.17935,170.59863 251.17935,154.59918 223.08276,111.2836 212.54653,111.2836 M 252.74027,147.57504 260.67496,159.80226 260.67496,109.72268 266.0081,109.72268 266.0081,105.95046 252.74027,105.95046 252.74027,147.57504 M 211.636,109.72268 223.86322,109.72268 251.17935,151.73749 251.17935,148.09534 223.73314,105.95046 209.03446,105.95046 211.636,109.72268" />
            <path
               inkscape:connector-curvature="0"
               id="path3108"
               style="stroke:#ffff00;stroke-opacity:1"
               d="M 300.22034,178.27316 300.35041,178.40324 300.74064,177.75286 300.22034,178.27316 M 374.23404,149.52619 374.23404,150.17657 C 374.23395,156.50702 373.0199,162.40383 370.59189,167.86702 368.25042,173.33027 364.9985,178.1431 360.83613,182.30554 356.6736,186.46801 351.86076,189.71993 346.3976,192.06131 340.93432,194.40269 335.03751,195.57338 328.70716,195.57338 322.46343,195.57338 316.56662,194.40269 311.01671,192.06131 305.46674,189.63321 300.61054,186.38129 296.44811,182.30554 292.37235,178.1431 289.12044,173.28691 286.69235,167.73694 284.35096,162.18703 283.18027,156.29022 283.18027,150.0465 283.18027,141.20133 285.56501,133.0065 290.3345,125.46198 L 290.8548,124.81159 295.27742,127.67328 C 296.66489,125.59212 298.31252,123.55426 300.22034,121.55967 305.24995,116.70355 311.06004,113.2782 317.65063,111.2836 L 316.21978,106.21061 317.00024,106.08053 C 320.72907,105.04001 324.63137,104.5197 328.70716,104.51961 334.77735,104.5197 340.71752,105.73375 346.52768,108.16176 347.13464,108.422 347.82838,108.76887 348.60891,109.20238 349.3893,109.54933 350.1264,109.93956 350.82022,110.37307 351.6006,110.80674 352.29435,111.19697 352.90144,111.54376 353.5084,111.89071 353.89863,112.15087 354.07214,112.32422 353.98534,112.41102 353.89863,112.5411 353.81198,112.71445 353.72519,112.80125 353.37832,113.2782 352.77137,114.14529 L 350.95029,116.61675 C 353.20488,118.17775 355.19939,119.82539 356.93383,121.55967 L 357.19398,121.81983 C 359.44856,124.07456 361.35636,126.50266 362.91736,129.10413 L 363.30759,129.88459 359.27521,131.83574 358.88498,131.31543 C 357.4107,128.8874 355.7197,126.71946 353.81198,124.81159 351.99083,122.99059 350.16976,121.47303 348.34876,120.2589 L 342.36522,128.58382 341.71484,128.19359 C 339.72027,126.97961 337.59568,126.11243 335.34107,125.59205 333.08636,124.9851 330.78834,124.68159 328.447,124.68152 324.19778,124.68159 320.20877,125.63548 316.47994,127.54321 312.83775,129.45107 309.75927,132.09596 307.24448,135.47789 L 310.75656,137.81927 310.36633,138.46966 C 308.02492,142.02515 306.85423,145.92745 306.85425,150.17657 306.85423,153.12502 307.37453,155.89999 308.41517,158.50149 309.54248,161.10306 311.06004,163.40108 312.96786,165.39556 314.87562,167.30338 317.08692,168.8643 319.60178,170.07832 322.20327,171.20568 324.93488,171.81271 327.79662,171.8994 L 327.79662,127.0229 328.57708,127.0229 C 331.78559,127.02297 334.77735,127.62999 337.55238,128.84397 340.41401,130.05809 342.88547,131.70573 344.96676,133.78689 347.13464,135.86818 348.82564,138.33964 350.03975,141.20127 351.25373,143.9763 351.86076,146.96806 351.86083,150.17657 351.86076,153.29846 351.25373,156.29022 350.03975,159.15187 348.91235,161.92688 347.30807,164.35498 345.22691,166.43617 343.23234,168.51743 340.8476,170.20843 338.07269,171.50917 335.38438,172.72324 332.47933,173.37363 329.35754,173.46032 L 329.35754,188.54923 C 332.13246,188.3758 334.64728,188.07229 336.902,187.63869 342.19172,186.51137 347.00456,184.38678 351.34052,181.26493 355.67634,178.05639 359.23177,174.11073 362.00682,169.42794 365.47545,163.44444 367.20981,156.98396 367.20989,150.0465 L 367.20989,149.39611 374.23404,149.52619 M 329.35754,171.8994 C 332.21918,171.81271 334.90743,171.20568 337.4223,170.07832 340.02378,168.8643 342.27844,167.30338 344.1863,165.39556 346.09402,163.40108 347.56823,161.10306 348.60891,158.50149 349.73617,155.89999 350.29984,153.12502 350.29991,150.17657 350.29984,147.22821 349.73617,144.4966 348.60891,141.98173 347.56823,139.38025 346.09402,137.12559 344.1863,135.21774 342.27844,133.22329 340.02378,131.66237 337.4223,130.53497 334.90743,129.32099 332.21918,128.62725 329.35754,128.45374 L 329.35754,171.8994 M 348.73899,117.00698 C 342.58195,113.2782 335.86133,111.41377 328.57708,111.41368 327.10283,111.41377 325.58527,111.50048 324.02439,111.67384 322.55015,111.76064 321.07594,112.02079 319.60178,112.4543 L 319.99201,113.75506 C 320.599,113.58171 321.16266,113.45163 321.68301,113.36483 322.28999,113.2782 322.89702,113.19148 323.50408,113.10468 324.11107,113.01804 324.76145,112.97469 325.45524,112.9746 326.14893,112.88797 326.88603,112.84461 327.66654,112.84453 329.05398,112.84461 330.35475,112.88797 331.56885,112.9746 332.78284,113.0614 333.73674,113.14812 334.43054,113.23476 L 334.82077,113.36483 C 339.67691,114.14538 344.05616,115.74966 347.95853,118.17768 L 348.73899,117.00698 M 355.63306,122.47021 C 353.98534,120.82265 352.12091,119.30508 350.03975,117.91752 L 349.25929,119.08821 C 351.34045,120.47577 353.20488,121.99334 354.8526,123.6409 356.93375,125.7222 358.58139,127.80343 359.79552,129.88459 L 361.09628,129.23421 C 360.40246,128.02022 359.57864,126.89289 358.62482,125.85221 357.75757,124.72495 356.84703,123.64097 355.89321,122.60029 L 355.63306,122.47021 M 328.70716,106.08053 C 326.97275,106.08062 325.19504,106.2107 323.37401,106.47076 321.63961,106.64429 319.90525,106.9478 318.17094,107.3813 L 319.21155,110.89337 C 322.42007,110.19972 325.54191,109.85285 328.57708,109.85276 336.2082,109.85285 343.23234,111.84735 349.64952,115.83629 350.16976,115.14263 350.60335,114.53561 350.95029,114.01522 351.38381,113.49499 351.68732,113.0614 351.86083,112.71445 344.92333,108.29193 337.20545,106.08062 328.70716,106.08053 M 301.26095,122.60029 C 300.30703,123.55426 299.43985,124.55151 298.65941,125.59205 297.87893,126.54602 297.14183,127.54327 296.44811,128.58382 L 305.94371,134.69743 C 308.54522,131.05534 311.79714,128.23702 315.69948,126.24244 319.68846,124.16128 323.93763,123.12067 328.447,123.12059 333.30315,123.12067 337.81248,124.29136 341.97499,126.63267 L 347.04799,119.47844 C 343.14562,117.13714 338.98317,115.57622 334.56061,114.79568 L 334.17038,114.79568 C 333.5633,114.70904 332.65277,114.62232 331.43877,114.53553 330.22467,114.44889 328.96726,114.40553 327.66654,114.40545 326.88603,114.40553 326.14893,114.40553 325.45524,114.40545 324.84817,114.40553 324.2845,114.49225 323.76424,114.6656 322.46343,114.7524 321.07594,115.01255 319.60178,115.44606 L 318.9514,115.70622 318.04086,112.84453 C 311.6237,114.57897 306.03041,117.83088 301.26095,122.60029 M 295.66765,129.88459 C 293.41297,133.61352 291.85205,137.55918 290.98488,141.72158 290.11769,145.88409 289.9009,150.04654 290.3345,154.20895 290.76808,158.37145 291.85205,162.40383 293.58642,166.3061 295.40748,170.12171 297.83558,173.59042 300.87072,176.71224 L 308.2851,169.42794 C 305.85697,166.91315 303.99254,164.05146 302.69179,160.84287 301.47772,157.63435 300.8707,154.25235 300.87072,150.69688 300.8707,145.49386 302.30154,140.5943 305.16325,135.9982 L 295.66765,129.88459 M 328.70716,194.01246 C 334.69064,194.01246 340.32729,192.88513 345.61714,190.63046 350.90686,188.3758 355.54626,185.29732 359.53536,181.39501 363.5243,177.49272 366.6895,172.94004 369.03097,167.73694 371.37226,162.44718 372.58631,156.81053 372.67312,150.82696 L 368.77082,150.82696 C 368.68401,154.29571 368.1637,157.67771 367.20989,160.97295 366.34263,164.18154 365.04186,167.26002 363.30759,170.2084 360.44582,175.06462 356.71695,179.14036 352.12098,182.43562 347.61159,185.64419 342.62531,187.8555 337.16215,189.06954 335.77461,189.41642 334.38712,189.67657 332.99969,189.85 331.61215,189.93672 330.18131,189.98008 328.70716,189.98008 L 327.79662,189.98008 327.79662,173.46032 C 324.67473,173.37363 321.72633,172.72324 318.9514,171.50917 316.26311,170.20843 313.87837,168.51743 311.79717,166.43617 309.80263,164.35498 308.19835,161.92688 306.98433,159.15187 305.85697,156.29022 305.29331,153.29846 305.29333,150.17657 305.29331,145.92745 306.42064,141.93843 308.67533,138.20951 L 306.46402,136.77866 C 303.77574,141.11461 302.43162,145.75401 302.43164,150.69688 302.43162,154.16564 303.03864,157.46091 304.25272,160.58272 305.55346,163.70459 307.46125,166.47956 309.9761,168.90763 L 310.4964,169.55802 300.87072,178.92355 300.35041,178.40324 300.22034,178.27316 C 296.92504,175.06462 294.32351,171.42248 292.41573,167.34671 290.50792,163.18429 289.29387,158.93511 288.77358,154.59918 288.25326,150.26334 288.4267,145.88409 289.29388,141.46143 290.24777,137.03887 291.93877,132.87642 294.36688,128.97405 L 291.24504,127.0229 C 286.90913,133.96039 284.74119,141.63492 284.74119,150.0465 284.74119,156.11679 285.86852,161.84016 288.12319,167.21663 290.46456,172.50645 293.62976,177.14585 297.6188,181.13485 301.6078,185.12389 306.2472,188.28909 311.53702,190.63046 316.91349,192.88513 322.63686,194.01246 328.70716,194.01246" />
            <path
               inkscape:connector-curvature="0"
               id="path3110"
               style="fill:#ffaaaa;stroke:#ffaaaa;stroke-miterlimit:4;stroke-opacity:1"
               d="M 415.99479,195.70346 401.81642,195.70346 401.81642,185.03716 415.99479,185.03716 C 421.54469,185.03717 426.57432,184.25671 431.0837,182.69578 435.67969,181.04815 439.62535,178.75013 442.92069,175.8017 446.2159,172.85332 448.77408,169.29789 450.59523,165.13541 452.50294,160.97298 453.58692,156.33358 453.84715,151.21719 L 445.52223,151.21719 C 445.26201,155.20625 444.39483,158.80504 442.92069,162.01356 441.44643,165.22215 439.40856,167.99712 436.80708,170.33848 434.29221,172.59317 431.25709,174.37088 427.70171,175.67163 424.14623,176.8857 420.24393,177.49272 415.99479,177.4927 L 398.43442,177.4927 398.43442,195.70346 380.22367,195.70346 380.22367,122.86044 397.00358,122.86044 397.00358,104.64969 415.86472,104.64969 C 424.97005,104.64978 432.64457,105.9939 438.88831,108.68207 445.13193,111.37041 450.20492,114.83912 454.1073,119.08821 458.00952,123.33746 460.82785,128.10694 462.56229,133.39666 464.29656,138.59979 465.16374,143.71614 465.16383,148.74573 465.16374,155.76991 463.94969,162.18703 461.52168,167.9971 459.18021,173.7205 455.84158,178.66341 451.50576,182.82585 447.25652,186.9016 442.09681,190.0668 436.02662,192.32146 430.04304,194.57612 423.36577,195.70346 415.99479,195.70346 M 403.37734,194.14253 415.99479,194.14253 C 423.0189,194.14254 429.43601,193.10192 435.24616,191.02069 441.14291,188.93947 446.25926,185.81763 450.59523,181.65516 454.84432,177.49272 458.05288,172.67988 460.22091,167.21663 462.47549,161.66672 463.60282,155.50976 463.60291,148.74573 463.60282,143.80286 462.779,138.81659 461.13145,133.78689 459.48373,128.75732 456.75212,124.20464 452.93661,120.12883 449.20767,116.05317 444.30811,112.71453 438.23793,110.11291 432.16762,107.51147 424.70989,106.2107 415.86472,106.21061 L 398.43442,106.21061 398.43442,122.86044 415.99479,122.86044 C 421.45798,122.86051 426.05402,123.68433 429.78294,125.3319 433.51175,126.89289 436.54687,128.97412 438.88831,131.57559 441.22963,134.09047 442.92063,136.9088 443.96131,140.03058 445.00185,143.15248 445.52216,146.23096 445.52223,149.26603 L 445.52223,149.65626 455.40807,149.65626 455.40807,150.43673 C 455.23455,155.81327 454.19394,160.71283 452.28622,165.13541 450.46508,169.55804 447.77682,173.37363 444.22146,176.58216 440.57925,179.87746 436.37343,182.39228 431.60401,184.12662 426.9212,185.77427 421.71813,186.59809 415.99479,186.59808 L 403.37734,186.59808 403.37734,194.14253 M 381.78459,194.14253 397.00358,194.14253 397.00358,177.4927 389.32905,177.4927 389.32905,149.65626 397.00358,149.65626 397.00358,124.42136 381.78459,124.42136 381.78459,194.14253 M 398.43442,175.93178 415.99479,175.93178 C 420.07049,175.9318 423.756,175.36813 427.05132,174.24078 430.43327,173.02675 433.33831,171.33576 435.76647,169.16779 438.19451,166.99987 440.1023,164.39833 441.48985,161.36318 442.87727,158.32809 443.70109,154.9461 443.96131,151.21719 L 398.43442,151.21719 398.43442,175.93178 M 390.75989,175.93178 397.00358,175.93178 397.00358,151.21719 390.75989,151.21719 390.75989,175.93178 M 398.43442,149.65626 443.96131,149.65626 443.96131,149.26603 C 443.96124,146.40439 443.48429,143.49935 442.53046,140.55089 441.5765,137.60254 439.97222,134.95765 437.71762,132.6162 435.54962,130.18817 432.68793,128.23702 429.13255,126.76275 425.57707,125.20189 421.19782,124.42143 415.99479,124.42136 L 398.43442,124.42136 398.43442,149.65626" />
            <path
               inkscape:connector-curvature="0"
               id="path3112"
               style="fill:#ffaaaa;stroke:#ffaaaa;stroke-miterlimit:4;stroke-opacity:1"
               d="M 544.91718,195.4433 472.07417,195.4433 472.07417,108.94222 494.44738,108.94222 494.44738,104.38953 540.75472,104.38953 540.75472,108.94222 544.91718,108.94222 544.91718,195.4433 544.91718,195.4433 M 473.63509,193.88238 543.48634,193.88238 543.48634,110.50314 540.75472,110.50314 540.75472,125.3319 496.0083,125.3319 496.0083,138.20951 523.97481,138.20951 523.97481,159.28195 496.0083,159.28195 496.0083,173.85055 541.79534,173.85055 541.79534,190.50038 485.342,190.50038 485.342,157.8511 494.44738,157.8511 494.44738,139.77043 485.342,139.77043 485.342,123.77098 494.44738,123.77098 494.44738,110.50314 473.63509,110.50314 473.63509,193.88238 473.63509,193.88238 M 486.90292,188.93946 540.23442,188.93946 540.23442,175.41147 494.44738,175.41147 494.44738,159.28195 486.90292,159.28195 486.90292,188.93946 486.90292,188.93946 M 496.0083,157.8511 522.41389,157.8511 522.41389,139.77043 496.0083,139.77043 496.0083,157.8511 496.0083,157.8511 M 486.90292,138.20951 494.44738,138.20951 494.44738,125.3319 486.90292,125.3319 486.90292,138.20951 486.90292,138.20951 M 496.0083,123.77098 539.32388,123.77098 539.32388,110.50314 496.0083,110.50314 496.0083,123.77098 496.0083,123.77098 M 496.0083,108.94222 539.32388,108.94222 539.32388,105.95046 496.0083,105.95046 496.0083,108.94222 496.0083,108.94222" />
          </g>
          <g
             id="text4044"
             style="font-size:172.52824402px;font-style:normal;font-variant:normal;font-weight:normal;font-stretch:normal;text-align:start;line-height:125%;letter-spacing:0px;word-spacing:0px;writing-mode:lr-tb;text-anchor:start;fill:#ffff00;fill-opacity:1;stroke:#ffaaaa;stroke-width:2.49946332;stroke-miterlimit:4;stroke-opacity:1;font-family:TESLA;-inkscape-font-specification:TESLA">
            <path
               inkscape:connector-curvature="0"
               id="path3115"
               style="fill:#ff9955;stroke:#ff9955;stroke-miterlimit:4;stroke-opacity:1"
               d="M 222.99669,407.24283 197.63504,407.24283 197.63504,286.47306 230.07035,286.47306 C 233.40586,286.47318 237.02895,286.53069 240.93963,286.64559 244.85022,286.64571 248.35829,286.76073 251.46385,286.99064 254.68432,287.2208 257.67481,287.62337 260.43532,288.19834 263.31072,288.77355 265.95615,289.46366 268.37162,290.26868 279.29832,294.17943 286.5445,300.67799 290.11018,309.76437 290.34012,310.33956 290.51265,310.91466 290.62777,311.48965 290.85771,312.06484 291.08774,312.63994 291.31788,313.21494 291.54782,314.2502 291.77785,315.28537 292.00799,316.32044 292.23793,317.24068 292.41046,318.27585 292.52558,319.42595 292.87053,321.15132 293.04306,322.93411 293.04316,324.77433 L 293.04316,326.49961 C 292.81302,334.89606 290.68518,342.25725 286.65962,348.58323 L 286.14203,349.27334 279.2409,345.13266 279.93101,344.27002 C 283.15145,338.8642 284.76171,332.88323 284.76181,326.32708 L 284.76181,325.11938 C 284.76171,324.31434 284.7042,323.56671 284.58928,322.87652 284.58919,322.18649 284.53168,321.43887 284.41675,320.63365 284.18662,318.90846 283.84156,317.29819 283.38158,315.80286 283.26647,314.99782 282.97892,314.07767 282.51894,313.04241 279.52836,305.56628 273.77743,300.27542 265.26611,297.16981 261.12537,295.67468 256.12205,294.63951 250.25616,294.0643 248.87587,293.94939 247.32312,293.89189 245.59789,293.89177 243.87256,293.77687 242.08977,293.71936 240.24952,293.71924 238.52419,293.71936 236.7414,293.71936 234.90114,293.71924 233.17582,293.71936 231.56556,293.71936 230.07035,293.71924 L 222.65164,293.71924 208.67685,293.71924 208.67685,342.02715 211.09225,342.02715 220.92636,342.02715 220.92636,296.82475 249.22099,296.82475 C 254.28175,297.16992 259.11254,298.32011 263.71336,300.27532 271.07449,303.26591 276.02029,308.0967 278.55079,314.76769 278.78074,315.22786 278.89576,315.63042 278.89585,315.97539 279.01078,316.32053 279.18331,316.7231 279.41343,317.18308 279.64338,317.87329 279.7584,318.62091 279.75849,319.42595 279.87342,320.11615 280.04595,320.80626 280.27607,321.49629 280.391,322.07147 280.44851,322.70407 280.4486,323.3941 280.44851,324.0843 280.44851,324.77441 280.4486,325.46444 L 280.4486,326.32708 C 280.44851,332.19312 279.1258,337.42647 276.48045,342.02715 275.56022,343.52246 274.41003,345.07521 273.02989,346.68541 271.64958,348.29574 269.9243,349.79098 267.85404,351.17115 265.78363,352.43641 263.31072,353.52909 260.43532,354.44919 257.55979,355.36939 254.22424,355.88697 250.42869,356.00194 249.6235,356.00199 248.53082,356.0595 247.15065,356.17447 245.88539,356.17452 244.27513,356.17452 242.31986,356.17447 L 233.52092,356.17447 C 232.14065,356.17452 230.76043,356.11701 229.38024,356.00194 L 228.34507,356.00194 228.34507,344.09749 222.99669,344.09749 222.99669,407.24283 M 199.53285,405.17249 220.92636,405.17249 220.92636,344.09749 211.09225,344.09749 206.60651,344.09749 206.60651,291.6489 236.10884,291.6489 C 238.63921,291.64902 241.16962,291.70653 243.70008,291.82143 246.23044,291.82155 248.47331,291.87906 250.42869,291.99396 253.41911,292.22411 256.17956,292.62668 258.71004,293.20166 261.3554,293.77687 263.7708,294.46698 265.95623,295.272 274.92761,298.49263 281.08111,304.18606 284.41675,312.35229 284.87673,313.38756 285.16428,314.36522 285.27939,315.28527 285.73937,316.78061 286.08443,318.50589 286.31456,320.46112 286.5445,321.15132 286.65952,321.89894 286.65962,322.70399 286.65952,323.39419 286.71703,324.19932 286.83214,325.11938 L 286.83214,326.32708 C 286.60201,333.22829 285.04926,339.26677 282.17388,344.44255 L 285.45192,346.51289 C 289.13242,340.76201 290.97272,334.03342 290.97282,326.32708 L 290.97282,324.94686 C 290.97272,324.02679 290.91521,323.16415 290.80029,322.35893 290.8002,321.43887 290.74269,320.51872 290.62777,319.59848 290.39763,318.5634 290.16759,317.58574 289.93765,316.6655 289.82254,315.74544 289.65001,314.82529 289.42007,313.90505 289.18993,313.33005 288.9599,312.75495 288.72996,312.17977 288.61484,311.60477 288.44231,311.08718 288.21237,310.62701 284.76171,301.88569 277.9181,295.78969 267.68151,292.33902 263.1957,290.72887 257.73232,289.63619 251.29133,289.06098 248.18576,288.83106 244.67769,288.71604 240.7671,288.71592 236.97144,288.60102 233.40586,288.54352 230.07035,288.5434 L 199.53285,288.5434 199.53285,405.17249 M 230.41541,353.9316 C 231.45054,353.93165 233.11831,353.98916 235.41873,354.10413 237.71906,354.10418 240.01943,354.10418 242.31986,354.10413 244.27513,354.10418 245.88539,354.10418 247.15065,354.10413 248.4158,354.10418 249.50848,354.04667 250.42869,353.9316 253.99421,353.81664 257.09971,353.35656 259.74521,352.55138 262.39057,351.63128 264.69095,350.59611 266.64634,349.44587 268.60158,348.18072 270.21185,346.80049 271.47713,345.30519 272.85728,343.81001 273.94995,342.37227 274.75517,340.99198 276.02029,338.92171 276.94044,336.62134 277.51562,334.09085 278.09063,331.56051 278.43568,328.97259 278.55079,326.32708 278.5507,325.98211 278.49319,325.69456 278.37826,325.46444 278.37817,324.88943 278.37817,324.31434 278.37826,323.73916 278.37817,323.04913 278.32067,322.41653 278.20573,321.84135 278.09063,320.69125 277.80308,319.36853 277.34309,317.8732 277.11297,316.7231 276.88293,315.91797 276.65298,315.4578 274.2375,309.3619 269.69426,304.93368 263.02325,302.17313 260.60778,301.25308 258.2499,300.50546 255.94959,299.93026 253.76417,299.35527 251.5213,298.95271 249.22099,298.72256 L 222.99669,298.72256 222.99669,342.02715 228.34507,342.02715 228.34507,309.59184 229.38024,309.59184 C 234.21099,309.59194 238.06412,309.59194 240.93963,309.59184 243.93007,309.59194 245.88539,309.64945 246.80559,309.76437 251.17625,310.10952 254.85685,311.2022 257.8474,313.04241 262.44808,315.91797 264.74846,320.34619 264.74853,326.32708 264.86348,328.74256 264.46091,331.21546 263.54083,333.7458 260.89533,340.30194 255.48945,343.7525 247.32318,344.09749 L 236.79895,344.09749 230.41541,344.09749 230.41541,353.9316 M 230.41541,342.02715 236.79895,342.02715 247.32318,342.02715 C 251.80885,341.9122 255.08688,340.87703 257.15729,338.92164 259.34258,336.96639 260.83782,335.01108 261.64302,333.05568 262.44808,331.10044 262.85065,328.91508 262.85072,326.49961 L 262.85072,326.32708 C 262.62061,320.92128 260.60778,317.06816 256.81223,314.76769 254.16674,313.15752 250.77368,312.17986 246.63306,311.83471 246.05792,311.71979 244.62018,311.66228 242.31986,311.66218 240.01943,311.66228 236.05129,311.66228 230.41541,311.66218 L 230.41541,342.02715" />
            <path
               inkscape:connector-curvature="0"
               id="path3117"
               style="fill:#ff9955;stroke:#ff9955;stroke-miterlimit:4;stroke-opacity:1"
               d="M 349.17145,407.41536 330.36587,407.41536 330.36587,393.26804 349.17145,393.26804 C 356.5326,393.26805 363.20368,392.23289 369.18473,390.16253 375.28065,387.97719 380.514,384.9292 384.8848,381.01854 389.25542,377.10793 392.64847,372.39216 395.06396,366.87122 397.59428,361.35036 399.03201,355.19686 399.37717,348.4107 L 388.33536,348.4107 C 387.99022,353.70162 386.84003,358.47489 384.8848,362.73054 382.92939,366.98628 380.22645,370.66688 376.77597,373.77235 373.44035,376.76287 369.41469,379.12075 364.69899,380.84601 359.98316,382.4563 354.80732,383.26143 349.17145,383.2614 L 325.88014,383.2614 325.88014,407.41536 301.72618,407.41536 301.72618,310.79954 323.98233,310.79954 323.98233,286.64559 348.99892,286.64559 C 361.07584,286.64571 371.25499,288.4285 379.53642,291.99396 387.81769,295.55966 394.54628,300.16041 399.72223,305.79622 404.89797,311.43224 408.63607,317.75827 410.93656,324.77433 413.23682,331.67553 414.38701,338.46164 414.38713,345.13266 414.38701,354.44924 412.77675,362.96062 409.55634,370.66684 406.45072,378.25811 402.0225,384.81418 396.27166,390.33506 390.63565,395.74096 383.79203,399.93914 375.7408,402.92962 367.80443,405.92011 358.94799,407.41536 349.17145,407.41536 M 332.43621,405.34502 349.17145,405.34502 C 358.48791,405.34502 366.9993,403.9648 374.70563,401.20434 382.52683,398.4439 389.31293,394.30322 395.06396,388.78231 400.69978,383.26143 404.95548,376.87789 407.83105,369.63167 410.82143,362.27051 412.31667,354.10418 412.31679,345.13266 412.31667,338.57666 411.224,331.96308 409.03875,325.29191 406.85328,318.62091 403.23019,312.58243 398.16947,307.17645 393.22357,301.77067 386.72501,297.34245 378.67378,293.89177 370.62239,290.44132 360.73078,288.71604 348.99892,288.71592 L 325.88014,288.71592 325.88014,310.79954 349.17145,310.79954 C 356.41758,310.79964 362.51357,311.89231 367.45944,314.07758 372.40518,316.14801 376.43083,318.90846 379.53642,322.35893 382.64184,325.69456 384.88471,329.43267 386.26502,333.57327 387.64516,337.71402 388.33527,341.79718 388.33536,345.82277 L 388.33536,346.34036 401.44751,346.34036 401.44751,347.37553 C 401.21737,354.50675 399.83714,361.00531 397.30683,366.87122 394.89134,372.73721 391.32576,377.79804 386.61008,382.0537 381.7792,386.42444 376.2008,389.75998 369.87484,392.06034 363.66376,394.24571 356.76263,395.33839 349.17145,395.33838 L 332.43621,395.33838 332.43621,405.34502 M 303.79652,405.34502 323.98233,405.34502 323.98233,383.2614 313.80316,383.2614 313.80316,346.34036 323.98233,346.34036 323.98233,312.86988 303.79652,312.86988 303.79652,405.34502 M 325.88014,381.19106 349.17145,381.19106 C 354.57728,381.19109 359.46557,380.44347 363.83635,378.9482 368.32201,377.33796 372.17514,375.0951 375.39574,372.21959 378.61619,369.34416 381.1466,365.8936 382.98699,361.8679 384.8272,357.84229 385.91988,353.35656 386.26502,348.4107 L 325.88014,348.4107 325.88014,381.19106 M 315.70097,381.19106 323.98233,381.19106 323.98233,348.4107 315.70097,348.4107 315.70097,381.19106 M 325.88014,346.34036 386.26502,346.34036 386.26502,345.82277 C 386.26493,342.02722 385.63233,338.17409 384.36721,334.26338 383.10192,330.35282 380.97407,326.84475 377.98367,323.73916 375.10812,320.51872 371.3125,317.9308 366.5968,315.97539 361.88097,313.90514 356.07252,312.86997 349.17145,312.86988 L 325.88014,312.86988 325.88014,346.34036" />
            <path
               inkscape:connector-curvature="0"
               id="path3119"
               style="fill:#ff9955;stroke:#ff9955;stroke-miterlimit:4;stroke-opacity:1"
               d="M 465.30452,407.41536 424.76039,407.41536 467.02981,345.9953 430.10876,292.51155 449.43193,292.51155 445.46378,286.64559 516.71794,286.64559 512.57726,292.51155 543.9774,292.51155 505.67613,348.4107 546.3928,407.41536 509.47176,407.41536 487.21561,375.3251 465.30452,407.41536 465.30452,407.41536 M 428.55601,405.51755 464.09683,405.51755 486.00791,373.59982 470.13532,350.65356 487.38814,325.46444 485.49033,322.70399 477.72656,334.09085 450.81215,294.58189 434.07691,294.58189 469.4452,345.9953 428.55601,405.51755 428.55601,405.51755 M 510.67945,405.34502 542.42465,405.34502 504.46844,350.30851 488.59584,373.59982 510.67945,405.34502 510.67945,405.34502 M 472.72324,350.65356 487.21561,371.70201 503.26074,348.4107 488.76837,327.18972 472.72324,350.65356 472.72324,350.65356 M 504.46844,346.68541 540.18178,294.58189 511.19704,294.58189 489.97606,325.46444 504.46844,346.68541 504.46844,346.68541 M 453.22755,294.58189 477.72656,330.46776 484.28263,320.97871 466.16717,294.58189 453.22755,294.58189 453.22755,294.58189 M 486.87056,320.97871 488.76837,323.56663 508.78164,294.58189 504.98602,294.58189 486.87056,320.97871 486.87056,320.97871 M 466.68475,292.51155 467.37486,292.51155 485.49033,319.0809 503.77832,292.51155 510.16187,292.51155 512.74979,288.71592 449.2594,288.71592 451.84732,292.51155 466.68475,292.51155 466.68475,292.51155" />
          </g>
          <g
             id="text4006"
             style="font-size:71.42555237px;font-style:normal;font-variant:normal;font-weight:normal;font-stretch:normal;text-align:start;line-height:125%;letter-spacing:0px;word-spacing:0px;writing-mode:lr-tb;text-anchor:start;fill:#f1f1f1;fill-opacity:1;stroke:none;font-family:ADAM;-inkscape-font-specification:ADAM">
            <path
               inkscape:connector-curvature="0"
               id="path3122"
               d="M 333.11759,266.52887 333.11759,258.24351 316.26116,258.24351 C 317.97538,255.38649 319.26104,253.24372 320.33242,251.45808 322.97516,247.0297 324.33226,244.8155 328.26066,238.95861 330.83197,235.24448 332.18906,231.6732 332.40334,228.24477 332.61762,224.88778 331.76051,221.74505 329.83202,219.24515 327.97496,216.81669 325.26078,214.95962 322.11806,214.10251 319.04676,213.24541 315.90403,213.31683 313.04701,214.24537 307.76153,216.031 304.6188,220.60225 304.6188,226.45913 L 312.97559,226.45913 C 312.97559,224.17352 313.8327,222.74501 315.68976,222.10218 318.26108,221.24507 321.61808,222.24503 323.18944,224.24494 325.54648,227.31624 323.04659,231.88748 321.4038,234.31595 317.33255,240.31569 315.83261,242.74417 313.18987,247.17254 311.47565,250.02956 309.19003,253.88655 305.26163,260.172 L 301.33322,266.52887 333.11759,266.52887" />
            <path
               inkscape:connector-curvature="0"
               id="path3124"
               d="M 358.55625,266.52887 C 361.7704,266.52887 364.62743,265.74319 367.12732,264.1004 369.41293,262.60047 371.27,260.45769 372.69851,257.74353 374.98413,253.31515 376.19836,247.38681 376.19836,240.02999 376.19836,232.67317 374.98413,226.67341 372.69851,222.24503 371.27,219.53086 369.41293,217.45951 367.12732,215.95958 364.69885,214.31679 361.7704,213.53111 358.55625,213.53111 355.3421,213.53111 352.48508,214.31679 349.98519,215.95958 347.771,217.45951 345.91393,219.53086 344.48542,222.24503 342.12838,226.67341 340.98557,232.67317 340.98557,240.02999 340.98557,247.38681 342.12838,253.31515 344.48542,257.74353 345.91393,260.45769 347.771,262.60047 350.05661,264.1004 352.48508,265.74319 355.41353,266.52887 358.55625,266.52887 M 358.55625,221.81647 C 361.69897,221.81647 363.77032,223.17356 365.34168,226.17343 366.98447,229.31615 367.84157,234.10167 367.84157,240.02999 367.84157,245.9583 366.98447,250.74383 365.34168,253.88655 363.77032,256.88642 361.69897,258.24351 358.55625,258.24351 355.48496,258.24351 353.41361,256.88642 351.84225,253.88655 350.19946,250.74383 349.27093,245.9583 349.27093,240.02999 349.27093,234.10167 350.19946,229.31615 351.84225,226.17343 353.41361,223.17356 355.48496,221.81647 358.55625,221.81647" />
            <path
               inkscape:connector-curvature="0"
               id="path3126"
               d="M 399.8804,266.52887 399.8804,213.53111 380.09552,228.3162 385.02388,234.95878 391.59503,230.03041 391.59503,266.52887 399.8804,266.52887" />
            <path
               inkscape:connector-curvature="0"
               id="path3128"
               d="M 443.48012,247.6011 C 442.69444,243.38699 440.33739,239.67286 436.83754,237.17297 433.98052,235.17305 430.76636,234.17309 427.40937,234.17309 424.90947,234.17309 422.40958,234.81593 420.12396,235.95873 419.26685,236.38729 418.48117,236.95869 417.69549,237.5301 417.69549,237.31582 417.76692,237.17297 417.76692,236.95869 418.62402,232.17318 420.62394,228.10192 423.40954,225.45918 426.40941,222.53073 430.19497,221.38792 434.7662,222.03075 L 435.90901,213.74539 C 428.76646,212.81686 422.481,214.74535 417.62407,219.45943 415.4813,221.45934 413.76708,223.95924 412.33857,226.81626 411.05292,229.45901 410.12438,232.38746 409.55298,235.45875 408.41017,241.81562 408.91015,248.52964 410.98149,253.88655 413.2671,260.17199 417.40979,264.31468 422.69528,265.74319 424.26664,266.24317 425.98086,266.52887 427.62364,266.52887 432.90913,266.52887 437.8375,263.95755 440.83737,259.67202 443.33726,256.10074 444.2658,251.8152 443.48012,247.6011 M 434.05194,254.8865 C 432.55201,256.95784 430.19496,258.17208 427.62364,258.17208 426.76654,258.17208 425.98085,258.10065 425.19517,257.81495 425.12375,257.81495 425.12375,257.81495 425.12375,257.81495 424.40949,257.52925 423.76666,257.17212 423.12383,256.74357 419.55256,254.3151 418.69545,249.38673 421.12392,245.88688 422.62385,243.74412 424.90947,242.52988 427.40937,242.52988 429.05215,242.52988 430.62352,243.02986 432.05203,244.02982 433.76624,245.17263 434.90905,247.0297 435.26618,249.10103 435.69473,251.10095 435.19475,253.17229 434.05194,254.8865" />
          </g>
          <path
             inkscape:connector-curvature="0"
             id="path4058"
             d="M 203.29516,238.36218 C 270.37489,238.36218 271.56214,238.36218 271.56214,238.36218"
             style="fill:#f1f1f1;fill-opacity:1;stroke:#f1f1f1;stroke-width:4.1553812;stroke-linecap:round;stroke-linejoin:miter;stroke-miterlimit:4;stroke-opacity:1;stroke-dasharray:none" />
          <path
             style="fill:#f1f1f1;fill-opacity:1;stroke:#f1f1f1;stroke-width:4.1553812;stroke-linecap:round;stroke-linejoin:miter;stroke-miterlimit:4;stroke-opacity:1;stroke-dasharray:none"
             d="M 203.29516,250.36218 C 270.37489,250.36218 271.56214,250.36218 271.56214,250.36218"
             id="path4060"
             inkscape:connector-curvature="0" />
          <path
             style="fill:#f1f1f1;fill-opacity:1;stroke:#f1f1f1;stroke-width:4.1553812;stroke-linecap:round;stroke-linejoin:miter;stroke-miterlimit:4;stroke-opacity:1;stroke-dasharray:none"
             d="M 469.29516,238.36218 C 536.37489,238.36218 537.56214,238.36218 537.56214,238.36218"
             id="path4064"
             inkscape:connector-curvature="0" />
          <path
             inkscape:connector-curvature="0"
             id="path4066"
             d="M 469.29516,250.36218 C 536.37489,250.36218 537.56214,250.36218 537.56214,250.36218"
             style="fill:#f1f1f1;fill-opacity:1;stroke:#f1f1f1;stroke-width:4.1553812;stroke-linecap:round;stroke-linejoin:miter;stroke-miterlimit:4;stroke-opacity:1;stroke-dasharray:none" />
        </g>
      </g>
    </g>
  </g>
</svg>
