<?xml version="1.0" encoding="UTF-8" standalone="no"?>
<!-- Created with Inkscape (http://www.inkscape.org/) -->

<svg
   xmlns:dc="http://purl.org/dc/elements/1.1/"
   xmlns:cc="http://creativecommons.org/ns#"
   xmlns:rdf="http://www.w3.org/1999/02/22-rdf-syntax-ns#"
   xmlns:svg="http://www.w3.org/2000/svg"
   xmlns="http://www.w3.org/2000/svg"
   xmlns:sodipodi="http://sodipodi.sourceforge.net/DTD/sodipodi-0.dtd"
   xmlns:inkscape="http://www.inkscape.org/namespaces/inkscape"
   width="620.41803"
   height="93.073929"
   id="svg2"
   version="1.1"
   inkscape:version="0.48.2 r9819"
   sodipodi:docname="New document 1">
  <defs
     id="defs4" />
  <sodipodi:namedview
     id="base"
     pagecolor="#ffffff"
     bordercolor="#666666"
     borderopacity="1.0"
     inkscape:pageopacity="0.0"
     inkscape:pageshadow="2"
     inkscape:zoom="0.47757329"
     inkscape:cx="513.41244"
     inkscape:cy="17.578125"
     inkscape:document-units="px"
     inkscape:current-layer="layer1"
     showgrid="false"
     fit-margin-top="0"
     fit-margin-left="0"
     fit-margin-right="0"
     fit-margin-bottom="0"
     showguides="false"
     inkscape:window-width="1125"
     inkscape:window-height="692"
     inkscape:window-x="0"
     inkscape:window-y="0"
     inkscape:window-maximized="0" />
  <metadata
     id="metadata7">
    <rdf:RDF>
      <cc:Work
         rdf:about="">
        <dc:format>image/svg+xml</dc:format>
        <dc:type
           rdf:resource="http://purl.org/dc/dcmitype/StillImage" />
        <dc:title></dc:title>
      </cc:Work>
    </rdf:RDF>
  </metadata>
  <g
     inkscape:label="Layer 1"
     inkscape:groupmode="layer"
     id="layer1"
     transform="translate(-60.986691,-58.577154)">
    <path
       inkscape:connector-curvature="0"
       id="path3803"
       style="font-size:129.73493958000000248px;font-style:normal;font-variant:normal;font-weight:normal;font-stretch:normal;line-height:125%;letter-spacing:0px;word-spacing:0px;fill:#f9f9f9;fill-opacity:1;stroke:#ff9798;stroke-width:2;stroke-miterlimit:4;stroke-opacity:1;font-family:Aleo;-inkscape-font-specification:TESLA"
       d="M 123.74052,150.39161 82.095607,86.432287 82.095607,150.39161 61.986691,150.39161 61.986691,64.896287 75.60886,64.896287 72.106017,59.577154 90.398643,59.577154 116.86457,100.31393 116.86457,59.577154 133.21117,59.577154 133.21117,64.896287 142.94129,64.896287 142.94129,149.6132 133.21117,134.69368 133.21117,150.39161 123.74052,150.39161 M 80.538788,81.242889 124.51893,148.83479 131.65435,148.83479 131.65435,132.35846 118.42139,111.99007 118.42139,130.80164 76.517004,66.453106 63.543511,66.453106 63.543511,148.83479 80.538788,148.83479 80.538788,81.242889 M 133.21117,131.83952 141.38447,144.4238 141.38447,66.453106 133.21117,66.453106 133.21117,131.83952 M 118.42139,109.1359 131.65435,129.50429 131.65435,66.453106 127.89204,66.453106 127.89204,119.9039 118.42139,105.50332 118.42139,109.1359 M 78.333294,66.453106 116.86457,125.61224 116.86457,109.65484 88.841824,66.453106 78.333294,66.453106 M 118.42139,102.64915 126.33522,114.84424 126.33522,64.896287 131.65435,64.896287 131.65435,61.133974 118.42139,61.133974 118.42139,102.64915 M 77.425149,64.896287 89.620233,64.896287 116.86457,106.80067 116.86457,103.16809 89.490498,61.133974 74.83045,61.133974 77.425149,64.896287" />
    <path
       inkscape:connector-curvature="0"
       id="path3805"
       style="font-size:129.73493958000000248px;font-style:normal;font-variant:normal;font-weight:normal;font-stretch:normal;line-height:125%;letter-spacing:0px;word-spacing:0px;fill:#f9f9f9;fill-opacity:1;stroke:#ffff00;stroke-width:2;stroke-miterlimit:4;stroke-opacity:1;font-family:Aleo;-inkscape-font-specification:TESLA"
       d="M 165.77667,133.2666 165.9064,133.39634 166.29561,132.74766 165.77667,133.2666 M 239.59585,104.59518 239.59585,105.24385 C 239.59575,111.55766 238.3849,117.43897 235.96327,122.8878 233.62795,128.33669 230.38458,133.13688 226.23315,137.28838 222.08156,141.43991 217.28137,144.68328 211.83257,147.0185 206.38364,149.35373 200.50233,150.52135 194.18862,150.52135 187.9613,150.52135 182.07999,149.35373 176.54467,147.0185 171.00928,144.59679 166.16585,141.35342 162.01435,137.28838 157.94931,133.13688 154.70594,128.29345 152.28423,122.75807 149.949,117.22275 148.78139,111.34143 148.78139,105.11412 148.78139,96.292197 151.15986,88.118904 155.91681,80.594215 L 156.43575,79.94554 160.84674,82.799709 C 162.23056,80.724019 163.87387,78.691507 165.77667,76.702166 170.79306,71.858807 176.58788,68.442457 183.16115,66.453106 L 181.73407,61.393444 182.51248,61.263709 C 186.2315,60.225919 190.12355,59.70698 194.18862,59.706889 200.24286,59.70698 206.16742,60.917838 211.96231,63.339468 212.56767,63.599024 213.25959,63.944984 214.03807,64.377347 214.81641,64.723393 215.55157,65.112597 216.24356,65.544962 217.0219,65.977496 217.71382,66.3667 218.31932,66.712576 218.92467,67.058619 219.31388,67.318089 219.48693,67.490986 219.40037,67.577559 219.31388,67.707293 219.22746,67.880191 219.1409,67.966763 218.79494,68.442457 218.18958,69.307275 L 216.37329,71.772239 C 218.62196,73.329135 220.61123,74.972443 222.3411,76.702166 L 222.60057,76.961636 C 224.84923,79.210447 226.75201,81.632163 228.30891,84.226793 L 228.69811,85.005203 224.67633,86.951227 224.28713,86.432287 C 222.81672,84.010635 221.13017,81.848388 219.22746,79.94554 217.4111,78.129323 215.59481,76.61575 213.7786,75.404817 L 207.81079,83.707853 207.16211,83.318648 C 205.17278,82.107857 203.05378,81.242959 200.8051,80.72395 198.55631,80.11859 196.26433,79.815876 193.92915,79.815805 189.6911,79.815876 185.71256,80.767264 181.99354,82.669974 178.36092,84.572819 175.29053,87.21076 172.78235,90.583805 L 176.2852,92.919034 175.89599,93.567709 C 173.56074,97.11385 172.39312,101.00589 172.39315,105.24385 172.39312,108.18455 172.91206,110.95223 173.94997,113.54689 175.07431,116.14162 176.58788,118.4336 178.49069,120.42284 180.39344,122.32565 182.59893,123.88247 185.10717,125.0933 187.70183,126.21769 190.42626,126.82312 193.28048,126.90959 L 193.28048,82.151034 194.05888,82.151034 C 197.25896,82.151102 200.24286,82.756531 203.0106,83.967323 205.8647,85.178248 208.32967,86.821555 210.40549,88.897251 212.56767,90.973069 214.25422,93.438031 215.46515,96.292142 216.67594,99.059872 217.28137,102.04377 217.28144,105.24385 217.28137,108.35753 216.67594,111.34143 215.46515,114.19556 214.34071,116.96328 212.74065,119.38499 210.66496,121.46072 208.67562,123.53651 206.29715,125.22306 203.52954,126.52038 200.84829,127.73127 197.95088,128.37994 194.83729,128.46641 L 194.83729,143.51566 C 197.60492,143.34269 200.11313,143.03997 202.36192,142.60752 207.63775,141.48316 212.43793,139.36415 216.7625,136.2505 221.08692,133.05039 224.63301,129.1151 227.40076,124.44462 230.86028,118.47685 232.59007,112.03335 232.59016,105.11412 L 232.59016,104.46544 239.59585,104.59518 M 194.83729,126.90959 C 197.69141,126.82312 200.3726,126.21769 202.88086,125.0933 205.4755,123.88247 207.72424,122.32565 209.62708,120.42284 211.52979,118.4336 213.00012,116.14162 214.03807,113.54689 215.16237,110.95223 215.72455,108.18455 215.72462,105.24385 215.72455,102.30324 215.16237,99.578812 214.03807,97.070552 213.00012,94.475909 211.52979,92.227172 209.62708,90.324335 207.72424,88.335128 205.4755,86.77831 202.88086,85.653877 200.3726,84.443084 197.69141,83.751165 194.83729,83.578118 L 194.83729,126.90959 M 214.1678,72.161444 C 208.02695,68.442457 201.32399,66.582925 194.05888,66.582841 192.58851,66.582925 191.07494,66.669415 189.51816,66.842311 188.04779,66.928885 186.57746,67.188354 185.10717,67.620721 L 185.49638,68.91807 C 186.10177,68.745172 186.66395,68.615437 187.18293,68.528865 187.78832,68.442457 188.39375,68.355967 188.99922,68.269395 189.60461,68.182988 190.25328,68.139743 190.94525,68.13966 191.63712,68.053253 192.37228,68.010008 193.15074,68.009925 194.53453,68.010008 195.83188,68.053253 197.04279,68.13966 198.2536,68.226233 199.20498,68.312723 199.89696,68.39913 L 200.28616,68.528865 C 205.12954,69.307356 209.49728,70.907419 213.38939,73.329058 L 214.1678,72.161444 M 221.04375,77.610311 C 219.40037,75.967076 217.54084,74.453504 215.46515,73.069588 L 214.68674,74.237203 C 216.76243,75.621117 218.62196,77.13469 220.26534,78.777925 222.34102,80.853754 223.98433,82.929511 225.19527,85.005203 L 226.49262,84.356528 C 225.80062,83.145736 224.97897,82.021367 224.02766,80.983419 223.16268,79.859121 222.25453,78.777997 221.30322,77.740046 L 221.04375,77.610311 M 194.18862,61.263709 C 192.45877,61.263798 190.68573,61.393533 188.86949,61.652913 187.13965,61.825982 185.40985,62.128697 183.68009,62.561058 L 184.71797,66.063901 C 187.91806,65.372067 191.03169,65.026107 194.05888,65.026022 201.66994,65.026107 208.67562,67.015374 215.07594,70.993829 215.59481,70.30199 216.02726,69.696561 216.37329,69.17754 216.80567,68.658682 217.10839,68.226233 217.28144,67.880191 210.36218,63.46929 202.66458,61.263798 194.18862,61.263709 M 166.81455,77.740046 C 165.86314,78.691507 164.99824,79.686141 164.21985,80.72395 163.44142,81.675408 162.70626,82.670041 162.01435,83.707853 L 171.48501,89.805395 C 174.07968,86.172881 177.32305,83.36196 181.21513,81.372624 185.19362,79.296936 189.43163,78.259058 193.92915,78.258986 198.77253,78.259058 203.27001,79.426671 207.42158,81.761829 L 212.48125,74.626407 C 208.58913,72.291257 204.43762,70.734439 200.02669,69.95595 L 199.63749,69.95595 C 199.032,69.86954 198.12386,69.78305 196.91305,69.69648 195.70214,69.610071 194.44804,69.566826 193.15074,69.566745 192.37228,69.566826 191.63712,69.566826 190.94525,69.566745 190.33977,69.566826 189.77759,69.653316 189.25869,69.826215 187.9613,69.912785 186.57746,70.172255 185.10717,70.604624 L 184.4585,70.864094 183.55035,68.009925 C 177.15007,69.739805 171.57147,72.983176 166.81455,77.740046 M 161.23594,85.005203 C 158.98719,88.724333 157.43037,92.659622 156.56549,96.811082 155.70058,100.96265 155.48435,105.11416 155.91681,109.26564 156.34925,113.41719 157.43037,117.43897 159.16019,121.33099 160.97646,125.13657 163.39818,128.59616 166.42534,131.70978 L 173.82023,124.44462 C 171.39849,121.93644 169.53896,119.08228 168.24163,115.88212 167.03075,112.68203 166.42532,109.30892 166.42534,105.76279 166.42532,100.57345 167.8524,95.686767 170.7066,91.102745 L 161.23594,85.005203 M 194.18862,148.96453 C 200.15637,148.96453 205.77821,147.84016 211.05416,145.59142 216.32998,143.34269 220.95719,140.2723 224.9358,136.38024 228.91426,132.48821 232.07114,127.94749 234.40645,122.75807 236.74159,117.48222 237.95245,111.86037 238.03903,105.89253 L 234.14698,105.89253 C 234.0604,109.35217 233.54146,112.72527 232.59016,116.01185 231.72518,119.21201 230.42783,122.2824 228.69811,125.22303 225.84386,130.06649 222.1248,134.13152 217.54091,137.41812 213.04336,140.61826 208.0702,142.82375 202.62139,144.0346 201.2375,144.38057 199.85366,144.64004 198.46987,144.81301 197.08598,144.89951 195.6589,144.94275 194.18862,144.94274 L 193.28048,144.94274 193.28048,128.46641 C 190.16679,128.37994 187.22614,127.73127 184.4585,126.52038 181.77727,125.22306 179.3988,123.53651 177.32308,121.46072 175.33378,119.38499 173.73372,116.96328 172.52288,114.19556 171.39849,111.34143 170.83631,108.35753 170.83633,105.24385 170.83631,101.00589 171.96067,97.02736 174.20944,93.308239 L 172.00394,91.881154 C 169.32273,96.205707 167.98214,100.83291 167.98216,105.76279 167.98214,109.22243 168.58757,112.50905 169.79845,115.62265 171.09577,118.73632 172.99855,121.50399 175.50679,123.92568 L 176.02573,124.57436 166.42534,133.91527 165.9064,133.39634 165.77667,133.2666 C 162.49003,130.06649 159.89534,126.43392 157.99257,122.36887 156.08978,118.21738 154.87892,113.97938 154.35999,109.65484 153.84105,105.33039 154.01402,100.96265 154.87893,96.551612 155.83031,92.140683 157.51686,87.989169 159.9386,84.097058 L 156.82496,82.151034 C 152.50045,89.070292 150.33821,96.724646 150.33821,105.11412 150.33821,111.16845 151.46257,116.87679 153.71132,122.23913 156.04654,127.51504 159.20342,132.14225 163.18197,136.12077 167.16049,140.09932 171.78769,143.2562 177.06361,145.59142 182.42595,147.84016 188.13428,148.96453 194.18862,148.96453" />
    <path
       inkscape:connector-curvature="0"
       id="path3807"
       style="font-size:129.73493958000000248px;font-style:normal;font-variant:normal;font-weight:normal;font-stretch:normal;line-height:125%;letter-spacing:0px;word-spacing:0px;fill:#f9f9f9;fill-opacity:1;stroke:#ff9798;stroke-width:2;stroke-miterlimit:4;stroke-opacity:1;font-family:Aleo;-inkscape-font-specification:TESLA"
       d="M 281.24684,150.65108 267.10573,150.65108 267.10573,140.01282 281.24684,140.01282 C 286.78216,140.01283 291.79857,139.23442 296.2961,137.67759 300.88001,136.03429 304.81529,133.74231 308.10198,130.80164 311.38852,127.861 313.93998,124.31492 315.75634,120.16337 317.65904,116.01189 318.74016,111.38468 318.99971,106.28173 L 310.69667,106.28173 C 310.43714,110.26031 309.57224,113.84964 308.10198,117.04973 306.63158,120.24989 304.59907,123.01757 302.00443,125.35277 299.49617,127.60153 296.46902,129.37457 292.92299,130.6719 289.37685,131.88278 285.48481,132.48821 281.24684,132.48819 L 263.73263,132.48819 263.73263,150.65108 245.56973,150.65108 245.56973,77.999516 262.30554,77.999516 262.30554,59.836624 281.11711,59.836624 C 290.19851,59.836715 297.85286,61.177308 304.08019,63.858407 310.3074,66.53968 315.36706,69.999275 319.25918,74.237203 323.15115,78.475283 325.96207,83.232226 327.69195,88.508046 329.42166,93.6975 330.28656,98.800403 330.28665,103.81677 330.28656,110.8225 329.0757,117.22275 326.65407,123.01754 324.31876,128.7259 320.9889,133.65582 316.66448,137.80732 312.4264,141.87236 307.28026,145.02924 301.22602,147.27797 295.25816,149.52671 288.59844,150.65108 281.24684,150.65108 M 268.66255,149.09426 281.24684,149.09426 C 288.25248,149.09426 294.65273,148.05639 300.44761,145.98062 306.32887,143.90487 311.43177,140.79124 315.75634,136.63971 319.99427,132.48821 323.19439,127.68802 325.35672,122.23913 327.60538,116.70381 328.72974,110.56303 328.72983,103.81677 328.72974,98.886893 327.90809,93.913725 326.26487,88.897251 324.62148,83.8809 321.89704,79.340181 318.09157,75.275082 314.37243,71.210133 309.48575,67.880273 303.43152,65.285492 297.37717,62.690881 289.93904,61.393533 281.11711,61.393444 L 263.73263,61.393444 263.73263,77.999516 281.24684,77.999516 C 286.69567,77.999588 291.27963,78.821242 294.99875,80.46448 298.71776,82.021367 301.7449,84.097124 304.08019,86.691757 306.41536,89.200027 308.10191,92.010948 309.13985,95.124528 310.17767,98.238219 310.69661,101.30861 310.69667,104.33571 L 310.69667,104.72491 320.55653,104.72491 320.55653,105.50332 C 320.38347,110.86574 319.34559,115.75242 317.44289,120.16337 315.62653,124.57439 312.94534,128.37994 309.39932,131.58005 305.76668,134.86668 301.57192,137.37489 296.81504,139.10467 292.14453,140.74799 286.95514,141.56965 281.24684,141.56964 L 268.66255,141.56964 268.66255,149.09426 M 247.12655,149.09426 262.30554,149.09426 262.30554,132.48819 254.65118,132.48819 254.65118,104.72491 262.30554,104.72491 262.30554,79.556335 247.12655,79.556335 247.12655,149.09426 M 263.73263,130.93137 281.24684,130.93137 C 285.31183,130.93139 288.98765,130.36921 292.27431,129.24482 295.64737,128.03398 298.54478,126.34743 300.96655,124.18515 303.38821,122.02293 305.29099,119.42824 306.67489,116.40106 308.05866,113.37395 308.88032,110.00084 309.13985,106.28173 L 263.73263,106.28173 263.73263,130.93137 M 256.07826,130.93137 262.30554,130.93137 262.30554,106.28173 256.07826,106.28173 256.07826,130.93137 M 263.73263,104.72491 309.13985,104.72491 309.13985,104.33571 C 309.13979,101.48159 308.66409,98.584178 307.71277,95.643468 306.76132,92.702867 305.16125,90.064926 302.91258,87.729636 300.75027,85.307983 297.8961,83.36196 294.35007,81.891564 290.80394,80.334815 286.4362,79.556406 281.24684,79.556335 L 263.73263,79.556335 263.73263,104.72491" />
    <path
       inkscape:connector-curvature="0"
       id="path3809"
       style="font-size:129.73493958000000248px;font-style:normal;font-variant:normal;font-weight:normal;font-stretch:normal;line-height:125%;letter-spacing:0px;word-spacing:0px;fill:#f9f9f9;fill-opacity:1;stroke:#ff9798;stroke-width:2;stroke-miterlimit:4;stroke-opacity:1;font-family:Aleo;-inkscape-font-specification:TESLA"
       d="M 409.83038,150.39161 337.17882,150.39161 337.17882,64.117877 359.49323,64.117877 359.49323,59.577154 405.67887,59.577154 405.67887,64.117877 409.83038,64.117877 409.83038,150.39161 409.83038,150.39161 M 338.73564,148.83479 408.4033,148.83479 408.4033,65.674697 405.67887,65.674697 405.67887,80.46448 361.05005,80.46448 361.05005,93.308239 388.94306,93.308239 388.94306,114.3253 361.05005,114.3253 361.05005,128.85561 406.71675,128.85561 406.71675,145.46168 350.41178,145.46168 350.41178,112.89821 359.49323,112.89821 359.49323,94.865058 350.41178,94.865058 350.41178,78.90766 359.49323,78.90766 359.49323,65.674697 338.73564,65.674697 338.73564,148.83479 338.73564,148.83479 M 351.9686,143.90487 405.15993,143.90487 405.15993,130.41243 359.49323,130.41243 359.49323,114.3253 351.9686,114.3253 351.9686,143.90487 351.9686,143.90487 M 361.05005,112.89821 387.38624,112.89821 387.38624,94.865058 361.05005,94.865058 361.05005,112.89821 361.05005,112.89821 M 351.9686,93.308239 359.49323,93.308239 359.49323,80.46448 351.9686,80.46448 351.9686,93.308239 351.9686,93.308239 M 361.05005,78.90766 404.25178,78.90766 404.25178,65.674697 361.05005,65.674697 361.05005,78.90766 361.05005,78.90766 M 361.05005,64.117877 404.25178,64.117877 404.25178,61.133974 361.05005,61.133974 361.05005,64.117877 361.05005,64.117877" />
    <path
       inkscape:connector-curvature="0"
       id="path3811"
       style="font-size:129.73493958000000248px;font-style:normal;font-variant:normal;font-weight:normal;font-stretch:normal;line-height:125%;letter-spacing:0px;word-spacing:0px;fill:#f9f9f9;fill-opacity:1;stroke:#ff863d;stroke-width:2;stroke-miterlimit:4;stroke-opacity:1;font-family:Aleo;-inkscape-font-specification:TESLA"
       d="M 437.22272,150.52135 418.15168,150.52135 418.15168,59.706889 442.54185,59.706889 C 445.05003,59.70698 447.77446,59.750225 450.71515,59.836624 453.65577,59.836715 456.29371,59.923205 458.62898,60.096094 461.05065,60.269164 463.29939,60.571879 465.3752,61.004239 467.53739,61.436778 469.52666,61.955717 471.34301,62.561058 479.55949,65.501802 485.00835,70.38848 487.68961,77.221106 487.86251,77.653629 487.99225,78.086078 488.07881,78.518456 488.25172,78.950977 488.4247,79.383426 488.59775,79.815805 488.77066,80.594285 488.94364,81.372693 489.11669,82.151034 489.2896,82.843021 489.41933,83.62143 489.5059,84.486263 489.76529,85.783677 489.89503,87.12427 489.8951,88.508046 L 489.8951,89.805395 C 489.72205,96.119217 488.12198,101.65457 485.09491,106.41147 L 484.70571,106.93041 479.51631,103.81677 480.03525,103.16809 C 482.4569,99.103117 483.66776,94.605644 483.66783,89.67566 L 483.66783,88.767516 C 483.66776,88.162148 483.62451,87.599964 483.53809,87.080962 483.53802,86.562086 483.49478,85.999902 483.40836,85.394407 483.23531,84.097124 482.97584,82.886266 482.62995,81.761829 482.54339,81.156469 482.32716,80.46455 481.98127,79.68607 479.73247,74.064299 475.40797,70.085765 469.00778,67.750456 465.89409,66.62617 462.13178,65.847761 457.72084,65.415227 456.68292,65.328822 455.5153,65.285577 454.21799,65.285492 452.92061,65.199087 451.58001,65.155842 450.19621,65.155757 448.89883,65.155842 447.55823,65.155842 446.17443,65.155757 444.87705,65.155842 443.66619,65.155842 442.54185,65.155757 L 436.96325,65.155757 426.45472,65.155757 426.45472,101.48154 428.27101,101.48154 435.6659,101.48154 435.6659,67.490986 456.94243,67.490986 C 460.74794,67.750538 464.38051,68.615437 467.84016,70.085685 473.37546,72.334502 477.09453,75.967076 478.99737,80.983419 479.17028,81.329448 479.25677,81.632163 479.25684,81.891564 479.34326,82.151102 479.473,82.453817 479.64604,82.799709 479.81896,83.318716 479.90545,83.8809 479.90551,84.486263 479.99194,85.005268 480.12167,85.524207 480.29472,86.043082 480.38114,86.475596 480.42439,86.95129 480.42445,87.470166 480.42439,87.989169 480.42439,88.508108 480.42445,89.026986 L 480.42445,89.67566 C 480.42439,94.086705 479.42975,98.021994 477.44055,101.48154 476.74857,102.60596 475.88367,103.77357 474.84585,104.98438 473.80791,106.19529 472.51056,107.31966 470.9538,108.35749 469.39693,109.30892 467.53739,110.13058 465.3752,110.82246 463.2129,111.51441 460.70469,111.90362 457.85057,111.99007 457.2451,111.99011 456.42345,112.03335 455.38561,112.1198 454.43418,112.11984 453.22332,112.11984 451.75303,112.1198 L 445.13655,112.1198 C 444.09864,112.11984 443.06076,112.0766 442.02291,111.99007 L 441.2445,111.99007 441.2445,103.03836 437.22272,103.03836 437.22272,150.52135 M 419.57877,148.96453 435.6659,148.96453 435.6659,103.03836 428.27101,103.03836 424.8979,103.03836 424.8979,63.598938 447.08257,63.598938 C 448.98532,63.599024 450.88809,63.642269 452.79091,63.728672 454.69365,63.728759 456.3802,63.772004 457.85057,63.858407 460.09927,64.031474 462.17502,64.334188 464.07785,64.766552 466.06707,65.199087 467.88335,65.718026 469.52672,66.323371 476.27287,68.745172 480.90008,73.026421 483.40836,79.16713 483.75425,79.94561 483.97047,80.680774 484.05703,81.372624 484.40292,82.497062 484.66239,83.79441 484.83544,85.264672 485.00835,85.783677 485.09484,86.345861 485.09491,86.951227 485.09484,87.470229 485.13808,88.075659 485.22464,88.767516 L 485.22464,89.67566 C 485.05159,94.865114 483.88398,99.405832 481.7218,103.29783 L 484.18677,104.85465 C 486.95437,100.5302 488.33821,95.470543 488.33828,89.67566 L 488.33828,88.637781 C 488.33821,87.945924 488.29496,87.29725 488.20855,86.691757 488.20847,85.999902 488.16523,85.307983 488.07881,84.615998 487.90576,83.837655 487.73278,83.102491 487.55987,82.410504 487.47331,81.718653 487.34358,81.026734 487.17067,80.334745 486.99762,79.902366 486.82464,79.469916 486.65173,79.037395 486.56517,78.605017 486.43543,78.215813 486.26252,77.869781 483.66776,71.296623 478.52161,66.71266 470.82407,64.117877 467.4509,62.907105 463.34264,62.085452 458.49925,61.652913 456.16398,61.480023 453.52604,61.393533 450.58542,61.393444 447.73121,61.307043 445.05003,61.263798 442.54185,61.263709 L 419.57877,61.263709 419.57877,148.96453 M 442.80132,110.43325 C 443.5797,110.43329 444.8338,110.47654 446.56363,110.56299 448.2934,110.56303 450.0232,110.56303 451.75303,110.56299 453.22332,110.56303 454.43418,110.56303 455.38561,110.56299 456.33696,110.56303 457.15861,110.51978 457.85057,110.43325 460.53172,110.3468 462.86694,110.00084 464.85626,109.39537 466.84548,108.70349 468.57527,107.92508 470.04566,107.06014 471.51593,106.1088 472.72679,105.07092 473.67824,103.9465 474.71605,102.82218 475.53771,101.74106 476.1432,100.70313 477.09453,99.146362 477.78644,97.416565 478.21896,95.513733 478.65134,93.61101 478.91081,91.664988 478.99737,89.67566 478.9973,89.416252 478.95406,89.200027 478.86763,89.026986 478.86757,88.594598 478.86757,88.162148 478.86763,87.729636 478.86757,87.21076 478.82432,86.735066 478.7379,86.302552 478.65134,85.437717 478.43512,84.443084 478.08922,83.318648 477.91618,82.453817 477.7432,81.848388 477.57028,81.502359 475.75393,76.918465 472.33758,73.588605 467.32122,71.512769 465.50488,70.820929 463.73184,70.258745 462.00209,69.826215 460.35874,69.393846 458.67218,69.091131 456.94243,68.91807 L 437.22272,68.91807 437.22272,101.48154 441.2445,101.48154 441.2445,77.091371 442.02291,77.091371 C 445.65546,77.091445 448.55287,77.091445 450.71515,77.091371 452.96385,77.091445 454.43418,77.13469 455.12614,77.221106 458.41271,77.480649 461.18039,78.302303 463.42918,79.68607 466.88872,81.848388 468.61852,85.178248 468.61857,89.67566 468.70501,91.492009 468.40229,93.351541 467.71043,95.254263 465.72111,100.18424 461.65608,102.77894 455.51534,103.03836 L 447.60151,103.03836 442.80132,103.03836 442.80132,110.43325 M 442.80132,101.48154 447.60151,101.48154 455.51534,101.48154 C 458.88841,101.3951 461.35337,100.61669 462.91024,99.146311 464.55349,97.676035 465.67786,96.205707 466.28334,94.735323 466.88872,93.265051 467.19144,91.621743 467.19149,89.805395 L 467.19149,89.67566 C 467.01846,85.610697 465.50488,82.713286 462.65077,80.983419 460.66145,79.772631 458.11,79.037467 454.9964,78.777925 454.56391,78.691507 453.48279,78.648262 451.75303,78.648191 450.0232,78.648262 447.03929,78.648262 442.80132,78.648191 L 442.80132,101.48154" />
    <path
       inkscape:connector-curvature="0"
       id="path3813"
       style="font-size:129.73493958000000248px;font-style:normal;font-variant:normal;font-weight:normal;font-stretch:normal;line-height:125%;letter-spacing:0px;word-spacing:0px;fill:#f9f9f9;fill-opacity:1;stroke:#ff863d;stroke-width:2;stroke-miterlimit:4;stroke-opacity:1;font-family:Aleo;-inkscape-font-specification:TESLA"
       d="M 532.10152,150.65108 517.96041,150.65108 517.96041,140.01282 532.10152,140.01282 C 537.63683,140.01283 542.65324,139.23442 547.15077,137.67759 551.73468,136.03429 555.66997,133.74231 558.95665,130.80164 562.2432,127.861 564.79465,124.31492 566.61101,120.16337 568.51372,116.01189 569.59484,111.38468 569.85439,106.28173 L 561.55135,106.28173 C 561.29181,110.26031 560.42691,113.84964 558.95665,117.04973 557.48626,120.24989 555.45375,123.01757 552.85911,125.35277 550.35084,127.60153 547.3237,129.37457 543.77766,130.6719 540.23153,131.88278 536.33948,132.48821 532.10152,132.48819 L 514.5873,132.48819 514.5873,150.65108 496.42441,150.65108 496.42441,77.999516 513.16022,77.999516 513.16022,59.836624 531.97178,59.836624 C 541.05318,59.836715 548.70753,61.177308 554.93487,63.858407 561.16208,66.53968 566.22173,69.999275 570.11386,74.237203 574.00582,78.475283 576.81674,83.232226 578.54663,88.508046 580.27634,93.6975 581.14124,98.800403 581.14133,103.81677 581.14124,110.8225 579.93038,117.22275 577.50875,123.01754 575.17344,128.7259 571.84358,133.65582 567.51916,137.80732 563.28108,141.87236 558.13493,145.02924 552.0807,147.27797 546.11284,149.52671 539.45312,150.65108 532.10152,150.65108 M 519.51723,149.09426 532.10152,149.09426 C 539.10716,149.09426 545.50741,148.05639 551.30229,145.98062 557.18354,143.90487 562.28645,140.79124 566.61101,136.63971 570.84894,132.48821 574.04907,127.68802 576.2114,122.23913 578.46005,116.70381 579.58442,110.56303 579.58451,103.81677 579.58442,98.886893 578.76277,93.913725 577.11954,88.897251 575.47615,83.8809 572.75172,79.340181 568.94624,75.275082 565.2271,71.210133 560.34042,67.880273 554.28619,65.285492 548.23184,62.690881 540.79371,61.393533 531.97178,61.393444 L 514.5873,61.393444 514.5873,77.999516 532.10152,77.999516 C 537.55034,77.999588 542.1343,78.821242 545.85342,80.46448 549.57243,82.021367 552.59958,84.097124 554.93487,86.691757 557.27003,89.200027 558.95658,92.010948 559.99453,95.124528 561.03234,98.238219 561.55128,101.30861 561.55135,104.33571 L 561.55135,104.72491 571.4112,104.72491 571.4112,105.50332 C 571.23815,110.86574 570.20027,115.75242 568.29757,120.16337 566.4812,124.57439 563.80002,128.37994 560.254,131.58005 556.62136,134.86668 552.4266,137.37489 547.66971,139.10467 542.9992,140.74799 537.80981,141.56965 532.10152,141.56964 L 519.51723,141.56964 519.51723,149.09426 M 497.98123,149.09426 513.16022,149.09426 513.16022,132.48819 505.50586,132.48819 505.50586,104.72491 513.16022,104.72491 513.16022,79.556335 497.98123,79.556335 497.98123,149.09426 M 514.5873,130.93137 532.10152,130.93137 C 536.1665,130.93139 539.84232,130.36921 543.12899,129.24482 546.50204,128.03398 549.39945,126.34743 551.82123,124.18515 554.24289,122.02293 556.14566,119.42824 557.52957,116.40106 558.91334,113.37395 559.73499,110.00084 559.99453,106.28173 L 514.5873,106.28173 514.5873,130.93137 M 506.93294,130.93137 513.16022,130.93137 513.16022,106.28173 506.93294,106.28173 506.93294,130.93137 M 514.5873,104.72491 559.99453,104.72491 559.99453,104.33571 C 559.99446,101.48159 559.51877,98.584178 558.56745,95.643468 557.61599,92.702867 556.01593,90.064926 553.76725,87.729636 551.60495,85.307983 548.75078,83.36196 545.20475,81.891564 541.65861,80.334815 537.29087,79.556406 532.10152,79.556335 L 514.5873,79.556335 514.5873,104.72491" />
    <path
       inkscape:connector-curvature="0"
       id="path3815"
       style="font-size:129.73493958000000248px;font-style:normal;font-variant:normal;font-weight:normal;font-stretch:normal;line-height:125%;letter-spacing:0px;word-spacing:0px;fill:#f9f9f9;fill-opacity:1;stroke:#ff863d;stroke-width:2;stroke-miterlimit:4;stroke-opacity:1;font-family:Aleo;-inkscape-font-specification:TESLA"
       d="M 619.42932,150.65108 588.94161,150.65108 620.72667,104.46544 592.96339,64.247612 607.4937,64.247612 604.5098,59.836624 658.09033,59.836624 654.97669,64.247612 678.58845,64.247612 649.78729,106.28173 680.40474,150.65108 652.64146,150.65108 635.90566,126.52038 619.42932,150.65108 619.42932,150.65108 M 591.79578,149.224 618.52117,149.224 634.99751,125.22303 623.0619,107.96829 636.03539,89.026986 634.60831,86.951227 628.77023,95.513733 608.53158,65.804432 595.94729,65.804432 622.54296,104.46544 591.79578,149.224 591.79578,149.224 M 653.54961,149.09426 677.42084,149.09426 648.87915,107.70882 636.94354,125.22303 653.54961,149.09426 653.54961,149.09426 M 625.00792,107.96829 635.90566,123.79595 647.97101,106.28173 637.07327,90.324335 625.00792,107.96829 625.00792,107.96829 M 648.87915,104.98438 675.73428,65.804432 653.93881,65.804432 637.98141,89.026986 648.87915,104.98438 648.87915,104.98438 M 610.34787,65.804432 628.77023,92.789299 633.70016,85.653877 620.07799,65.804432 610.34787,65.804432 610.34787,65.804432 M 635.64619,85.653877 637.07327,87.599901 652.12252,65.804432 649.26835,65.804432 635.64619,85.653877 635.64619,85.653877 M 620.4672,64.247612 620.98614,64.247612 634.60831,84.226793 648.36021,64.247612 653.1604,64.247612 655.10643,61.393444 607.36397,61.393444 609.30999,64.247612 620.4672,64.247612 620.4672,64.247612" />
  </g>
</svg>
